<svg width="366" height="34" viewBox="0 0 366 34" fill="none" xmlns="http://www.w3.org/2000/svg">
<path d="M365.064 1.43541C365.323 1.33857 365.454 1.05043 365.357 0.791824C365.26 0.533218 364.972 0.402077 364.713 0.498917L364.889 0.967163L365.064 1.43541ZM-0.000396729 0.967163L3.68314 5.41294L5.69153 1.52588e-05L-0.000396729 0.967163ZM364.889 0.967163L364.713 0.498917C363.807 0.838268 362.899 1.17517 361.989 1.50961L362.162 1.9789L362.334 2.44819C363.246 2.11306 364.156 1.77547 365.064 1.43541L364.889 0.967163ZM356.686 3.95469L356.519 3.48337C354.695 4.12936 352.864 4.7655 351.026 5.39173L351.188 5.865L351.349 6.33828C353.19 5.71078 355.025 5.07333 356.853 4.42601L356.686 3.95469ZM345.667 7.70994L345.511 7.23478C343.672 7.83731 341.826 8.42995 339.974 9.01263L340.124 9.48958L340.274 9.96653C342.13 9.38268 343.979 8.78884 345.822 8.18509L345.667 7.70994ZM334.561 11.204L334.417 10.7254C332.564 11.2845 330.705 11.8338 328.84 12.3731L328.978 12.8534L329.117 13.3337C330.986 12.7934 332.849 12.243 334.706 11.6827L334.561 11.204ZM323.377 14.4378L323.244 13.9559C321.378 14.4719 319.507 14.9779 317.63 15.4739L317.758 15.9573L317.885 16.4407C319.766 15.9437 321.641 15.4367 323.51 14.9197L323.377 14.4378ZM312.121 17.412L311.999 16.9271C310.122 17.4001 308.24 17.863 306.352 18.3158L306.468 18.802L306.585 19.2882C308.477 18.8345 310.363 18.3707 312.243 17.8968L312.121 17.412ZM300.8 20.1275L300.689 19.64C298.802 20.07 296.909 20.49 295.012 20.8998L295.117 21.3886L295.223 21.8773C297.124 21.4667 299.02 21.0459 300.911 20.615L300.8 20.1275ZM289.42 22.5853L289.32 22.0954C287.424 22.4826 285.522 22.8598 283.616 23.2268L283.71 23.7178L283.805 24.2088C285.715 23.841 287.62 23.4631 289.52 23.0752L289.42 22.5853ZM277.988 24.7862L277.899 24.2942C275.995 24.6388 274.085 24.9733 272.171 25.2976L272.255 25.7906L272.338 26.2836C274.256 25.9586 276.169 25.6235 278.077 25.2782L277.988 24.7862ZM266.51 26.7312L266.432 26.2373C264.52 26.5395 262.604 26.8315 260.683 27.1133L260.755 27.6081L260.828 28.1028C262.753 27.8204 264.673 27.5278 266.588 27.2251L266.51 26.7312ZM254.991 28.4213L254.924 27.9258C253.006 28.1857 251.084 28.4354 249.157 28.675L249.219 29.1711L249.281 29.6673C251.211 29.4273 253.137 29.1771 255.059 28.9168L254.991 28.4213ZM243.439 29.8576L243.382 29.3608C241.459 29.5786 239.532 29.7862 237.6 29.9835L237.651 30.4809L237.702 30.9784C239.637 30.7806 241.568 30.5726 243.495 30.3545L243.439 29.8576ZM231.857 31.0412L231.812 30.5433C229.884 30.7191 227.953 30.8848 226.018 31.0402L226.058 31.5386L226.098 32.037C228.036 31.8813 229.972 31.7153 231.903 31.5392L231.857 31.0412ZM220.253 31.9733L220.218 31.4745C218.287 31.6086 216.353 31.7325 214.415 31.8462L214.444 32.3453L214.473 32.8445C216.415 32.7306 218.353 32.6064 220.288 32.4721L220.253 31.9733ZM208.631 32.655L208.607 32.1555C206.674 32.2481 204.737 32.3305 202.797 32.4027L202.816 32.9023L202.834 33.402C204.778 33.3297 206.718 33.2472 208.655 33.1544L208.631 32.655ZM196.998 33.0876L196.984 32.5878C195.049 32.6391 193.111 32.6802 191.17 32.711L191.178 33.211L191.186 33.7109C193.131 33.68 195.072 33.6388 197.011 33.5874L196.998 33.0876ZM185.357 33.2726L185.355 32.7726C184.385 32.7777 183.415 32.7803 182.444 32.7803V33.2803V33.7803C183.417 33.7803 184.389 33.7777 185.36 33.7726L185.357 33.2726ZM182.444 33.2803V32.7803C181.473 32.7803 180.503 32.7777 179.534 32.7726L179.531 33.2726L179.528 33.7726C180.5 33.7777 181.471 33.7803 182.444 33.7803V33.2803ZM173.71 33.211L173.718 32.711C171.777 32.6802 169.839 32.6391 167.904 32.5878L167.891 33.0876L167.878 33.5874C169.816 33.6388 171.758 33.68 173.702 33.7109L173.71 33.211ZM162.073 32.9023L162.091 32.4027C160.151 32.3305 158.214 32.2481 156.281 32.1555L156.257 32.655L156.233 33.1544C158.17 33.2472 160.11 33.3297 162.054 33.402L162.073 32.9023ZM150.444 32.3453L150.474 31.8462C148.535 31.7325 146.601 31.6086 144.67 31.4745L144.635 31.9733L144.601 32.4721C146.535 32.6064 148.473 32.7306 150.415 32.8445L150.444 32.3453ZM138.831 31.5386L138.871 31.0402C136.935 30.8848 135.004 30.7191 133.076 30.5433L133.031 31.0412L132.986 31.5392C134.917 31.7153 136.852 31.8813 138.791 32.037L138.831 31.5386ZM127.237 30.4809L127.288 29.9835C125.357 29.7862 123.429 29.5786 121.506 29.3608L121.45 29.8576L121.393 30.3545C123.32 30.5726 125.251 30.7806 127.186 30.9784L127.237 30.4809ZM115.669 29.1711L115.731 28.675C113.804 28.4354 111.882 28.1857 109.964 27.9259L109.897 28.4213L109.83 28.9168C111.751 29.1772 113.677 29.4273 115.608 29.6673L115.669 29.1711ZM104.133 27.6081L104.206 27.1134C102.285 26.8315 100.368 26.5395 98.4564 26.2373L98.3783 26.7312L98.3003 27.2251C100.216 27.5278 102.136 27.8204 104.06 28.1028L104.133 27.6081ZM92.6338 25.7906L92.7173 25.2976C90.8031 24.9733 88.8936 24.6388 86.989 24.2942L86.9 24.7862L86.811 25.2782C88.7192 25.6235 90.6324 25.9586 92.5502 26.2836L92.6338 25.7906ZM81.1778 23.7178L81.2723 23.2268C79.3658 22.8598 77.4644 22.4826 75.568 22.0954L75.4679 22.5853L75.3679 23.0752C77.2679 23.4632 79.1731 23.841 81.0833 24.2088L81.1778 23.7178ZM69.7711 21.3886L69.8767 20.8998C67.9789 20.49 66.0864 20.07 64.1993 19.64L64.0882 20.1275L63.9771 20.615C65.868 21.0459 67.7641 21.4667 69.6656 21.8773L69.7711 21.3886ZM58.42 18.802L58.5366 18.3158C56.6486 17.863 54.7662 17.4001 52.8894 16.9272L52.7672 17.412L52.645 17.8968C54.5255 18.3707 56.4117 18.8345 58.3033 19.2883L58.42 18.802ZM47.1307 15.9573L47.2584 15.4739C45.3813 14.9779 43.51 14.4719 41.6446 13.9559L41.5113 14.4378L41.378 14.9197C43.2472 15.4367 45.1222 15.9437 47.003 16.4407L47.1307 15.9573ZM35.9099 12.8534L36.0488 12.3731C34.1837 11.8338 32.3246 11.2846 30.4717 10.7254L30.3272 11.204L30.1828 11.6827C32.0394 12.243 33.9022 12.7934 35.771 13.3337L35.9099 12.8534ZM24.7642 9.48958L24.9143 9.01263C23.0623 8.42996 21.2166 7.83731 19.3774 7.23479L19.2218 7.70994L19.0661 8.18509C20.909 8.78884 22.7584 9.38268 24.6142 9.96653L24.7642 9.48958ZM13.7007 5.86501L13.862 5.39173C12.0242 4.7655 10.1931 4.12936 8.36884 3.48337L8.20193 3.95469L8.03503 4.42601C9.86313 5.07333 11.6979 5.71078 13.5394 6.33828L13.7007 5.86501ZM365.064 1.43541C365.323 1.33857 365.454 1.05043 365.357 0.791824C365.26 0.533218 364.972 0.402077 364.713 0.498917L364.889 0.967163L365.064 1.43541ZM-0.000396729 0.967163L3.68314 5.41294L5.69153 1.52588e-05L-0.000396729 0.967163ZM364.889 0.967163L364.713 0.498917C363.807 0.838268 362.899 1.17517 361.989 1.50961L362.162 1.9789L362.334 2.44819C363.246 2.11306 364.156 1.77547 365.064 1.43541L364.889 0.967163ZM356.686 3.95469L356.519 3.48337C354.695 4.12936 352.864 4.7655 351.026 5.39173L351.188 5.865L351.349 6.33828C353.19 5.71078 355.025 5.07333 356.853 4.42601L356.686 3.95469ZM345.667 7.70994L345.511 7.23478C343.672 7.83731 341.826 8.42995 339.974 9.01263L340.124 9.48958L340.274 9.96653C342.13 9.38268 343.979 8.78884 345.822 8.18509L345.667 7.70994ZM334.561 11.204L334.417 10.7254C332.564 11.2845 330.705 11.8338 328.84 12.3731L328.978 12.8534L329.117 13.3337C330.986 12.7934 332.849 12.243 334.706 11.6827L334.561 11.204ZM323.377 14.4378L323.244 13.9559C321.378 14.4719 319.507 14.9779 317.63 15.4739L317.758 15.9573L317.885 16.4407C319.766 15.9437 321.641 15.4367 323.51 14.9197L323.377 14.4378ZM312.121 17.412L311.999 16.9271C310.122 17.4001 308.24 17.863 306.352 18.3158L306.468 18.802L306.585 19.2882C308.477 18.8345 310.363 18.3707 312.243 17.8968L312.121 17.412ZM300.8 20.1275L300.689 19.64C298.802 20.07 296.909 20.49 295.012 20.8998L295.117 21.3886L295.223 21.8773C297.124 21.4667 299.02 21.0459 300.911 20.615L300.8 20.1275ZM289.42 22.5853L289.32 22.0954C287.424 22.4826 285.522 22.8598 283.616 23.2268L283.71 23.7178L283.805 24.2088C285.715 23.841 287.62 23.4631 289.52 23.0752L289.42 22.5853ZM277.988 24.7862L277.899 24.2942C275.995 24.6388 274.085 24.9733 272.171 25.2976L272.255 25.7906L272.338 26.2836C274.256 25.9586 276.169 25.6235 278.077 25.2782L277.988 24.7862ZM266.51 26.7312L266.432 26.2373C264.52 26.5395 262.604 26.8315 260.683 27.1133L260.755 27.6081L260.828 28.1028C262.753 27.8204 264.673 27.5278 266.588 27.2251L266.51 26.7312ZM254.991 28.4213L254.924 27.9258C253.006 28.1857 251.084 28.4354 249.157 28.675L249.219 29.1711L249.281 29.6673C251.211 29.4273 253.137 29.1771 255.059 28.9168L254.991 28.4213ZM243.439 29.8576L243.382 29.3608C241.459 29.5786 239.532 29.7862 237.6 29.9835L237.651 30.4809L237.702 30.9784C239.637 30.7806 241.568 30.5726 243.495 30.3545L243.439 29.8576ZM231.857 31.0412L231.812 30.5433C229.884 30.7191 227.953 30.8848 226.018 31.0402L226.058 31.5386L226.098 32.037C228.036 31.8813 229.972 31.7153 231.903 31.5392L231.857 31.0412ZM220.253 31.9733L220.218 31.4745C218.287 31.6086 216.353 31.7325 214.415 31.8462L214.444 32.3453L214.473 32.8445C216.415 32.7306 218.353 32.6064 220.288 32.4721L220.253 31.9733ZM208.631 32.655L208.607 32.1555C206.674 32.2481 204.737 32.3305 202.797 32.4027L202.816 32.9023L202.834 33.402C204.778 33.3297 206.718 33.2472 208.655 33.1544L208.631 32.655ZM196.998 33.0876L196.984 32.5878C195.049 32.6391 193.111 32.6802 191.17 32.711L191.178 33.211L191.186 33.7109C193.131 33.68 195.072 33.6388 197.011 33.5874L196.998 33.0876ZM185.357 33.2726L185.355 32.7726C184.385 32.7777 183.415 32.7803 182.444 32.7803V33.2803V33.7803C183.417 33.7803 184.389 33.7777 185.36 33.7726L185.357 33.2726ZM182.444 33.2803V32.7803C181.473 32.7803 180.503 32.7777 179.534 32.7726L179.531 33.2726L179.528 33.7726C180.5 33.7777 181.471 33.7803 182.444 33.7803V33.2803ZM173.71 33.211L173.718 32.711C171.777 32.6802 169.839 32.6391 167.904 32.5878L167.891 33.0876L167.878 33.5874C169.816 33.6388 171.758 33.68 173.702 33.7109L173.71 33.211ZM162.073 32.9023L162.091 32.4027C160.151 32.3305 158.214 32.2481 156.281 32.1555L156.257 32.655L156.233 33.1544C158.17 33.2472 160.11 33.3297 162.054 33.402L162.073 32.9023ZM150.444 32.3453L150.474 31.8462C148.535 31.7325 146.601 31.6086 144.67 31.4745L144.635 31.9733L144.601 32.4721C146.535 32.6064 148.473 32.7306 150.415 32.8445L150.444 32.3453ZM138.831 31.5386L138.871 31.0402C136.935 30.8848 135.004 30.7191 133.076 30.5433L133.031 31.0412L132.986 31.5392C134.917 31.7153 136.852 31.8813 138.791 32.037L138.831 31.5386ZM127.237 30.4809L127.288 29.9835C125.357 29.7862 123.429 29.5786 121.506 29.3608L121.45 29.8576L121.393 30.3545C123.32 30.5726 125.251 30.7806 127.186 30.9784L127.237 30.4809ZM115.669 29.1711L115.731 28.675C113.804 28.4354 111.882 28.1857 109.964 27.9259L109.897 28.4213L109.83 28.9168C111.751 29.1772 113.677 29.4273 115.608 29.6673L115.669 29.1711ZM104.133 27.6081L104.206 27.1134C102.285 26.8315 100.368 26.5395 98.4564 26.2373L98.3783 26.7312L98.3003 27.2251C100.216 27.5278 102.136 27.8204 104.06 28.1028L104.133 27.6081ZM92.6338 25.7906L92.7173 25.2976C90.8031 24.9733 88.8936 24.6388 86.989 24.2942L86.9 24.7862L86.811 25.2782C88.7192 25.6235 90.6324 25.9586 92.5502 26.2836L92.6338 25.7906ZM81.1778 23.7178L81.2723 23.2268C79.3658 22.8598 77.4644 22.4826 75.568 22.0954L75.4679 22.5853L75.3679 23.0752C77.2679 23.4632 79.1731 23.841 81.0833 24.2088L81.1778 23.7178ZM69.7711 21.3886L69.8767 20.8998C67.9789 20.49 66.0864 20.07 64.1993 19.64L64.0882 20.1275L63.9771 20.615C65.868 21.0459 67.7641 21.4667 69.6656 21.8773L69.7711 21.3886ZM58.42 18.802L58.5366 18.3158C56.6486 17.863 54.7662 17.4001 52.8894 16.9272L52.7672 17.412L52.645 17.8968C54.5255 18.3707 56.4117 18.8345 58.3033 19.2883L58.42 18.802ZM47.1307 15.9573L47.2584 15.4739C45.3813 14.9779 43.51 14.4719 41.6446 13.9559L41.5113 14.4378L41.378 14.9197C43.2472 15.4367 45.1222 15.9437 47.003 16.4407L47.1307 15.9573ZM35.9099 12.8534L36.0488 12.3731C34.1837 11.8338 32.3246 11.2846 30.4717 10.7254L30.3272 11.204L30.1828 11.6827C32.0394 12.243 33.9022 12.7934 35.771 13.3337L35.9099 12.8534ZM24.7642 9.48958L24.9143 9.01263C23.0623 8.42996 21.2166 7.83731 19.3774 7.23479L19.2218 7.70994L19.0661 8.18509C20.909 8.78884 22.7584 9.38268 24.6142 9.96653L24.7642 9.48958ZM13.7007 5.86501L13.862 5.39173C12.0242 4.7655 10.1931 4.12936 8.36884 3.48337L8.20193 3.95469L8.03503 4.42601C9.86313 5.07333 11.6979 5.71078 13.5394 6.33828L13.7007 5.86501Z" fill="#111827"/>
</svg>
