<svg width="378" height="34" viewBox="0 0 378 34" fill="none" xmlns="http://www.w3.org/2000/svg">
<path d="M376.739 31.5386C376.999 31.6307 377.136 31.9165 377.044 32.1768C376.952 32.4371 376.666 32.5735 376.405 32.4814L376.572 32.01L376.739 31.5386ZM-0.000610352 32.01L3.76282 27.6316L5.67288 33.08L-0.000610352 32.01ZM376.572 32.01L376.405 32.4814C375.466 32.149 374.525 31.8191 373.582 31.4915L373.746 31.0192L373.91 30.5469C374.855 30.8751 375.798 31.2056 376.739 31.5386L376.572 32.01ZM368.072 29.085L367.914 29.5592C366.024 28.927 364.127 28.3046 362.223 27.6918L362.377 27.2159L362.53 26.7399C364.437 27.3538 366.337 27.9775 368.231 28.6108L368.072 29.085ZM356.66 25.4117L356.512 25.8894C354.608 25.3004 352.698 24.7211 350.781 24.1515L350.923 23.6722L351.066 23.1929C352.986 23.7635 354.9 24.3439 356.808 24.934L356.66 25.4117ZM345.167 21.9973L345.03 22.4782C343.114 21.932 341.191 21.3956 339.262 20.869L339.393 20.3867L339.525 19.9043C341.458 20.4319 343.384 20.9693 345.304 21.5164L345.167 21.9973ZM333.601 18.8403L333.475 19.324C331.547 18.8206 329.612 18.3268 327.672 17.8429L327.793 17.3578L327.914 16.8726C329.858 17.3574 331.796 17.8521 333.728 18.3565L333.601 18.8403ZM321.969 15.9391L321.853 16.4255C319.914 15.9644 317.969 15.5131 316.019 15.0716L316.129 14.584L316.24 14.0963C318.194 14.5386 320.142 14.9907 322.084 15.4526L321.969 15.9391ZM310.276 13.2923L310.17 13.7811C308.222 13.3622 306.268 12.953 304.308 12.5538L304.408 12.0638L304.508 11.5739C306.471 11.9739 308.429 12.3838 310.381 12.8035L310.276 13.2923ZM298.528 10.8985L298.433 11.3894C296.476 11.0124 294.514 10.6452 292.546 10.2879L292.636 9.79595L292.725 9.304C294.696 9.66194 296.662 10.0298 298.623 10.4075L298.528 10.8985ZM286.732 8.75615L286.648 9.24902C284.683 8.9137 282.714 8.58821 280.739 8.27262L280.818 7.77889L280.897 7.28515C282.875 7.6013 284.848 7.92736 286.816 8.26328L286.732 8.75615ZM274.894 6.86398L274.82 7.35852C272.849 7.06466 270.873 6.78065 268.892 6.50655L268.96 6.01127L269.029 5.51599C271.013 5.79056 272.993 6.07507 274.968 6.36945L274.894 6.86398ZM263.018 5.22057L262.955 5.71654C260.978 5.46391 258.996 5.22115 257.01 4.98832L257.069 4.49172L257.127 3.99512C259.116 4.22836 261.101 4.47154 263.082 4.7246L263.018 5.22057ZM251.111 3.82454L251.058 4.32172C249.076 4.11011 247.09 3.90837 245.1 3.71657L245.148 3.21888L245.196 2.72118C247.19 2.91331 249.179 3.11539 251.165 3.32737L251.111 3.82454ZM239.178 2.67454L239.135 3.1727C237.15 3.00188 235.16 2.84094 233.166 2.68995L233.204 2.19138L233.241 1.69281C235.238 1.84405 237.232 2.00527 239.221 2.17638L239.178 2.67454ZM227.224 1.76921L227.191 2.26814C225.202 2.13788 223.21 2.01751 221.213 1.9071L221.241 1.40787L221.268 0.908628C223.268 1.01922 225.264 1.1398 227.257 1.27028L227.224 1.76921ZM215.254 1.10717L215.231 1.60667C213.24 1.51674 211.245 1.43672 209.247 1.36666L209.265 0.866964L209.282 0.367271C211.284 0.437448 213.282 0.517607 215.277 0.607683L215.254 1.10717ZM203.273 0.687061L203.26 1.18691C201.268 1.13709 199.272 1.09718 197.272 1.06724L197.28 0.567291L197.287 0.0673472C199.29 0.0973394 201.289 0.137317 203.285 0.187217L203.273 0.687061ZM191.286 0.507478L191.283 1.00747C190.285 1.00249 189.286 1 188.286 1V0.5V0C189.287 0 190.288 0.00249738 191.288 0.00748426L191.286 0.507478ZM188.286 0.5V1C187.286 1 186.287 1.00249 185.289 1.00747L185.286 0.507478L185.284 0.00748408C186.284 0.00249732 187.284 0 188.286 0V0.5ZM179.292 0.567291L179.299 1.06723C177.3 1.09718 175.304 1.13709 173.311 1.1869L173.299 0.687061L173.286 0.187217C175.282 0.137317 177.282 0.0973388 179.284 0.0673467L179.292 0.567291ZM167.307 0.866963L167.325 1.36666C165.326 1.43672 163.332 1.51674 161.34 1.60666L161.318 1.10717L161.295 0.607683C163.29 0.517607 165.288 0.437448 167.29 0.36727L167.307 0.866963ZM155.331 1.40787L155.359 1.9071C153.362 2.01751 151.369 2.13788 149.38 2.26814L149.348 1.76921L149.315 1.27028C151.307 1.1398 153.303 1.01922 155.303 0.908628L155.331 1.40787ZM143.368 2.19138L143.406 2.68995C141.412 2.84094 139.422 3.00188 137.436 3.17271L137.393 2.67455L137.35 2.17639C139.34 2.00527 141.333 1.84405 143.33 1.69281L143.368 2.19138ZM131.424 3.21888L131.472 3.71657C129.481 3.90837 127.495 4.11011 125.513 4.32172L125.46 3.82455L125.407 3.32737C127.392 3.1154 129.382 2.91331 131.376 2.72118L131.424 3.21888ZM119.503 4.49172L119.561 4.98832C117.575 5.22115 115.594 5.46392 113.617 5.71654L113.553 5.22057L113.49 4.72461C115.47 4.47154 117.455 4.22836 119.445 3.99512L119.503 4.49172ZM107.611 6.01127L107.68 6.50655C105.699 6.78065 103.723 7.06466 101.752 7.35852L101.678 6.86399L101.604 6.36945C103.579 6.07508 105.559 5.79057 107.543 5.51599L107.611 6.01127ZM95.7536 7.77889L95.8326 8.27262C93.8579 8.58821 91.8882 8.91371 89.9235 9.24903L89.8394 8.75616L89.7553 8.26328C91.7235 7.92737 93.6967 7.6013 95.6747 7.28516L95.7536 7.77889ZM83.9358 9.79595L84.0251 10.2879C82.0576 10.6452 80.0952 11.0124 78.1382 11.3894L78.0435 10.8985L77.949 10.4075C79.9096 10.0298 81.8755 9.66195 83.8465 9.304L83.9358 9.79595ZM72.1634 12.0638L72.2632 12.5538C70.3038 12.9531 68.3497 13.3622 66.4012 13.7811L66.2961 13.2923L66.191 12.8035C68.143 12.3838 70.1006 11.9739 72.0636 11.5739L72.1634 12.0638ZM60.4423 14.584L60.5527 15.0716C58.6023 15.5131 56.6575 15.9644 54.7186 16.4255L54.6029 15.9391L54.4872 15.4526C56.4297 14.9907 58.378 14.5386 60.3319 14.0963L60.4423 14.584ZM48.7786 17.3578L48.8996 17.8429C46.9592 18.3268 45.0248 18.8206 43.0965 19.324L42.9702 18.8403L42.8439 18.3565C44.7758 17.8521 46.7137 17.3574 48.6576 16.8726L48.7786 17.3578ZM37.1785 20.3867L37.3102 20.869C35.3809 21.3956 33.4579 21.932 31.5413 22.4781L31.4043 21.9973L31.2673 21.5164C33.1874 20.9693 35.114 20.4319 37.0468 19.9043L37.1785 20.3867ZM25.6484 23.6722L25.7908 24.1515C23.8738 24.7211 21.9633 25.3004 20.0595 25.8894L19.9117 25.4117L19.764 24.934C21.6713 24.3439 23.5854 23.7635 25.506 23.1929L25.6484 23.6722ZM14.1951 27.2159L14.3483 27.6918C12.4446 28.3046 10.5478 28.927 8.65805 29.5592L8.49945 29.085L8.34082 28.6108C10.2342 27.9775 12.1346 27.3538 14.0419 26.7399L14.1951 27.2159ZM376.739 31.5386C376.999 31.6307 377.136 31.9165 377.044 32.1768C376.952 32.4371 376.666 32.5735 376.405 32.4814L376.572 32.01L376.739 31.5386ZM-0.000610352 32.01L3.76282 27.6316L5.67288 33.08L-0.000610352 32.01ZM376.572 32.01L376.405 32.4814C375.466 32.149 374.525 31.8191 373.582 31.4915L373.746 31.0192L373.91 30.5469C374.855 30.8751 375.798 31.2056 376.739 31.5386L376.572 32.01ZM368.072 29.085L367.914 29.5592C366.024 28.927 364.127 28.3046 362.223 27.6918L362.377 27.2159L362.53 26.7399C364.437 27.3538 366.337 27.9775 368.231 28.6108L368.072 29.085ZM356.66 25.4117L356.512 25.8894C354.608 25.3004 352.698 24.7211 350.781 24.1515L350.923 23.6722L351.066 23.1929C352.986 23.7635 354.9 24.3439 356.808 24.934L356.66 25.4117ZM345.167 21.9973L345.03 22.4782C343.114 21.932 341.191 21.3956 339.262 20.869L339.393 20.3867L339.525 19.9043C341.458 20.4319 343.384 20.9693 345.304 21.5164L345.167 21.9973ZM333.601 18.8403L333.475 19.324C331.547 18.8206 329.612 18.3268 327.672 17.8429L327.793 17.3578L327.914 16.8726C329.858 17.3574 331.796 17.8521 333.728 18.3565L333.601 18.8403ZM321.969 15.9391L321.853 16.4255C319.914 15.9644 317.969 15.5131 316.019 15.0716L316.129 14.584L316.24 14.0963C318.194 14.5386 320.142 14.9907 322.084 15.4526L321.969 15.9391ZM310.276 13.2923L310.17 13.7811C308.222 13.3622 306.268 12.953 304.308 12.5538L304.408 12.0638L304.508 11.5739C306.471 11.9739 308.429 12.3838 310.381 12.8035L310.276 13.2923ZM298.528 10.8985L298.433 11.3894C296.476 11.0124 294.514 10.6452 292.546 10.2879L292.636 9.79595L292.725 9.304C294.696 9.66194 296.662 10.0298 298.623 10.4075L298.528 10.8985ZM286.732 8.75615L286.648 9.24902C284.683 8.9137 282.714 8.58821 280.739 8.27262L280.818 7.77889L280.897 7.28515C282.875 7.6013 284.848 7.92736 286.816 8.26328L286.732 8.75615ZM274.894 6.86398L274.82 7.35852C272.849 7.06466 270.873 6.78065 268.892 6.50655L268.96 6.01127L269.029 5.51599C271.013 5.79056 272.993 6.07507 274.968 6.36945L274.894 6.86398ZM263.018 5.22057L262.955 5.71654C260.978 5.46391 258.996 5.22115 257.01 4.98832L257.069 4.49172L257.127 3.99512C259.116 4.22836 261.101 4.47154 263.082 4.7246L263.018 5.22057ZM251.111 3.82454L251.058 4.32172C249.076 4.11011 247.09 3.90837 245.1 3.71657L245.148 3.21888L245.196 2.72118C247.19 2.91331 249.179 3.11539 251.165 3.32737L251.111 3.82454ZM239.178 2.67454L239.135 3.1727C237.15 3.00188 235.16 2.84094 233.166 2.68995L233.204 2.19138L233.241 1.69281C235.238 1.84405 237.232 2.00527 239.221 2.17638L239.178 2.67454ZM227.224 1.76921L227.191 2.26814C225.202 2.13788 223.21 2.01751 221.213 1.9071L221.241 1.40787L221.268 0.908628C223.268 1.01922 225.264 1.1398 227.257 1.27028L227.224 1.76921ZM215.254 1.10717L215.231 1.60667C213.24 1.51674 211.245 1.43672 209.247 1.36666L209.265 0.866964L209.282 0.367271C211.284 0.437448 213.282 0.517607 215.277 0.607683L215.254 1.10717ZM203.273 0.687061L203.26 1.18691C201.268 1.13709 199.272 1.09718 197.272 1.06724L197.28 0.567291L197.287 0.0673472C199.29 0.0973394 201.289 0.137317 203.285 0.187217L203.273 0.687061ZM191.286 0.507478L191.283 1.00747C190.285 1.00249 189.286 1 188.286 1V0.5V0C189.287 0 190.288 0.00249738 191.288 0.00748426L191.286 0.507478ZM188.286 0.5V1C187.286 1 186.287 1.00249 185.289 1.00747L185.286 0.507478L185.284 0.00748408C186.284 0.00249732 187.284 0 188.286 0V0.5ZM179.292 0.567291L179.299 1.06723C177.3 1.09718 175.304 1.13709 173.311 1.1869L173.299 0.687061L173.286 0.187217C175.282 0.137317 177.282 0.0973388 179.284 0.0673467L179.292 0.567291ZM167.307 0.866963L167.325 1.36666C165.326 1.43672 163.332 1.51674 161.34 1.60666L161.318 1.10717L161.295 0.607683C163.29 0.517607 165.288 0.437448 167.29 0.36727L167.307 0.866963ZM155.331 1.40787L155.359 1.9071C153.362 2.01751 151.369 2.13788 149.38 2.26814L149.348 1.76921L149.315 1.27028C151.307 1.1398 153.303 1.01922 155.303 0.908628L155.331 1.40787ZM143.368 2.19138L143.406 2.68995C141.412 2.84094 139.422 3.00188 137.436 3.17271L137.393 2.67455L137.35 2.17639C139.34 2.00527 141.333 1.84405 143.33 1.69281L143.368 2.19138ZM131.424 3.21888L131.472 3.71657C129.481 3.90837 127.495 4.11011 125.513 4.32172L125.46 3.82455L125.407 3.32737C127.392 3.1154 129.382 2.91331 131.376 2.72118L131.424 3.21888ZM119.503 4.49172L119.561 4.98832C117.575 5.22115 115.594 5.46392 113.617 5.71654L113.553 5.22057L113.49 4.72461C115.47 4.47154 117.455 4.22836 119.445 3.99512L119.503 4.49172ZM107.611 6.01127L107.68 6.50655C105.699 6.78065 103.723 7.06466 101.752 7.35852L101.678 6.86399L101.604 6.36945C103.579 6.07508 105.559 5.79057 107.543 5.51599L107.611 6.01127ZM95.7536 7.77889L95.8326 8.27262C93.8579 8.58821 91.8882 8.91371 89.9235 9.24903L89.8394 8.75616L89.7553 8.26328C91.7235 7.92737 93.6967 7.6013 95.6747 7.28516L95.7536 7.77889ZM83.9358 9.79595L84.0251 10.2879C82.0576 10.6452 80.0952 11.0124 78.1382 11.3894L78.0435 10.8985L77.949 10.4075C79.9096 10.0298 81.8755 9.66195 83.8465 9.304L83.9358 9.79595ZM72.1634 12.0638L72.2632 12.5538C70.3038 12.9531 68.3497 13.3622 66.4012 13.7811L66.2961 13.2923L66.191 12.8035C68.143 12.3838 70.1006 11.9739 72.0636 11.5739L72.1634 12.0638ZM60.4423 14.584L60.5527 15.0716C58.6023 15.5131 56.6575 15.9644 54.7186 16.4255L54.6029 15.9391L54.4872 15.4526C56.4297 14.9907 58.378 14.5386 60.3319 14.0963L60.4423 14.584ZM48.7786 17.3578L48.8996 17.8429C46.9592 18.3268 45.0248 18.8206 43.0965 19.324L42.9702 18.8403L42.8439 18.3565C44.7758 17.8521 46.7137 17.3574 48.6576 16.8726L48.7786 17.3578ZM37.1785 20.3867L37.3102 20.869C35.3809 21.3956 33.4579 21.932 31.5413 22.4781L31.4043 21.9973L31.2673 21.5164C33.1874 20.9693 35.114 20.4319 37.0468 19.9043L37.1785 20.3867ZM25.6484 23.6722L25.7908 24.1515C23.8738 24.7211 21.9633 25.3004 20.0595 25.8894L19.9117 25.4117L19.764 24.934C21.6713 24.3439 23.5854 23.7635 25.506 23.1929L25.6484 23.6722ZM14.1951 27.2159L14.3483 27.6918C12.4446 28.3046 10.5478 28.927 8.65805 29.5592L8.49945 29.085L8.34082 28.6108C10.2342 27.9775 12.1346 27.3538 14.0419 26.7399L14.1951 27.2159Z" fill="#111827"/>
</svg>
