<svg width="77" height="57" viewBox="0 0 77 57" fill="none" xmlns="http://www.w3.org/2000/svg">
<mask id="path-1-inside-1_3196_18896" fill="white">
<path d="M1.47436 41.2817C1.86538 41.2817 2.24039 41.1264 2.51689 40.8499C2.79338 40.5734 2.94872 40.1984 2.94872 39.8073V33.9099C2.94872 33.5189 2.79338 33.1439 2.51689 32.8674C2.24039 32.5909 1.86538 32.4355 1.47436 32.4355C1.08333 32.4355 0.708326 32.5909 0.43183 32.8674C0.155334 33.1439 0 33.5189 0 33.9099V39.8073C0 40.1984 0.155334 40.5734 0.43183 40.8499C0.708326 41.1264 1.08333 41.2817 1.47436 41.2817Z"/>
</mask>
<path d="M1.47436 41.2817C1.86538 41.2817 2.24039 41.1264 2.51689 40.8499C2.79338 40.5734 2.94872 40.1984 2.94872 39.8073V33.9099C2.94872 33.5189 2.79338 33.1439 2.51689 32.8674C2.24039 32.5909 1.86538 32.4355 1.47436 32.4355C1.08333 32.4355 0.708326 32.5909 0.43183 32.8674C0.155334 33.1439 0 33.5189 0 33.9099V39.8073C0 40.1984 0.155334 40.5734 0.43183 40.8499C0.708326 41.1264 1.08333 41.2817 1.47436 41.2817Z" fill="white"/>
<path d="M1.47436 41.2817V49.2817C3.9871 49.2817 6.39695 48.2835 8.17374 46.5067L2.51689 40.8499L-3.13997 35.193C-1.91616 33.9692 -0.256335 33.2817 1.47436 33.2817V41.2817ZM2.51689 40.8499L8.17374 46.5067C9.95053 44.7299 10.9487 42.3201 10.9487 39.8073H2.94872H-5.05128C-5.05128 38.0766 -4.36376 36.4168 -3.13997 35.193L2.51689 40.8499ZM2.94872 39.8073H10.9487V33.9099H2.94872H-5.05128V39.8073H2.94872ZM2.94872 33.9099H10.9487C10.9487 31.3972 9.95053 28.9873 8.17374 27.2105L2.51689 32.8674L-3.13997 38.5242C-4.36376 37.3004 -5.05128 35.6406 -5.05128 33.9099H2.94872ZM2.51689 32.8674L8.17374 27.2105C6.39695 25.4337 3.9871 24.4355 1.47436 24.4355V32.4355V40.4355C-0.256335 40.4355 -1.91616 39.748 -3.13997 38.5242L2.51689 32.8674ZM1.47436 32.4355V24.4355C-1.03838 24.4355 -3.44823 25.4337 -5.22502 27.2105L0.43183 32.8674L6.08868 38.5242C4.86488 39.748 3.20505 40.4355 1.47436 40.4355V32.4355ZM0.43183 32.8674L-5.22502 27.2105C-7.00181 28.9873 -8 31.3972 -8 33.9099H0H8C8 35.6406 7.31248 37.3004 6.08868 38.5242L0.43183 32.8674ZM0 33.9099H-8V39.8073H0H8V33.9099H0ZM0 39.8073H-8C-8 42.3201 -7.00181 44.7299 -5.22502 46.5067L0.43183 40.8499L6.08868 35.193C7.31248 36.4168 8 38.0766 8 39.8073H0ZM0.43183 40.8499L-5.22502 46.5067C-3.44823 48.2835 -1.03838 49.2817 1.47436 49.2817V41.2817V33.2817C3.20505 33.2817 4.86488 33.9692 6.08868 35.193L0.43183 40.8499Z" fill="white" mask="url(#path-1-inside-1_3196_18896)"/>
<mask id="path-3-inside-2_3196_18896" fill="white">
<path d="M69.2949 0H7.37179C5.41667 0 3.54163 0.776669 2.15915 2.15915C0.776669 3.54163 0 5.41667 0 7.37179V28.0128C0 28.4038 0.155334 28.7789 0.43183 29.0553C0.708326 29.3318 1.08333 29.4872 1.47436 29.4872C1.86538 29.4872 2.24039 29.3318 2.51689 29.0553C2.79338 28.7789 2.94872 28.4038 2.94872 28.0128V7.37179C2.95695 6.35354 3.31627 5.36931 3.96602 4.58526L33.1141 33.7333C33.7989 34.4198 34.6124 34.9645 35.508 35.3361C36.4036 35.7078 37.3637 35.8991 38.3333 35.8991C39.303 35.8991 40.2631 35.7078 41.1587 35.3361C42.0543 34.9645 42.8678 34.4198 43.5526 33.7333L72.7006 4.58526C73.3504 5.36931 73.7097 6.35354 73.7179 7.37179V48.6538C73.7179 49.8269 73.2519 50.9519 72.4225 51.7814C71.593 52.6109 70.4679 53.0769 69.2949 53.0769H7.37179C6.19872 53.0769 5.07369 52.6109 4.24421 51.7814C3.41472 50.9519 2.94872 49.8269 2.94872 48.6538V45.7051C2.94872 45.3141 2.79338 44.9391 2.51689 44.6626C2.24039 44.3861 1.86538 44.2308 1.47436 44.2308C1.08333 44.2308 0.708326 44.3861 0.43183 44.6626C0.155334 44.9391 0 45.3141 0 45.7051V48.6538C0 50.609 0.776669 52.484 2.15915 53.8665C3.54163 55.249 5.41667 56.0256 7.37179 56.0256H69.2949C71.25 56.0256 73.125 55.249 74.5075 53.8665C75.89 52.484 76.6667 50.609 76.6667 48.6538V7.37179C76.6667 5.41667 75.89 3.54163 74.5075 2.15915C73.125 0.776669 71.25 0 69.2949 0ZM41.459 31.6397C40.6296 32.468 39.5055 32.9333 38.3333 32.9333C37.1612 32.9333 36.037 32.468 35.2077 31.6397L6.59038 3.02244C6.84823 2.97528 7.10968 2.95062 7.37179 2.94872H69.2949C69.557 2.95062 69.8184 2.97528 70.0763 3.02244L41.459 31.6397Z"/>
</mask>
<path d="M69.2949 0H7.37179C5.41667 0 3.54163 0.776669 2.15915 2.15915C0.776669 3.54163 0 5.41667 0 7.37179V28.0128C0 28.4038 0.155334 28.7789 0.43183 29.0553C0.708326 29.3318 1.08333 29.4872 1.47436 29.4872C1.86538 29.4872 2.24039 29.3318 2.51689 29.0553C2.79338 28.7789 2.94872 28.4038 2.94872 28.0128V7.37179C2.95695 6.35354 3.31627 5.36931 3.96602 4.58526L33.1141 33.7333C33.7989 34.4198 34.6124 34.9645 35.508 35.3361C36.4036 35.7078 37.3637 35.8991 38.3333 35.8991C39.303 35.8991 40.2631 35.7078 41.1587 35.3361C42.0543 34.9645 42.8678 34.4198 43.5526 33.7333L72.7006 4.58526C73.3504 5.36931 73.7097 6.35354 73.7179 7.37179V48.6538C73.7179 49.8269 73.2519 50.9519 72.4225 51.7814C71.593 52.6109 70.4679 53.0769 69.2949 53.0769H7.37179C6.19872 53.0769 5.07369 52.6109 4.24421 51.7814C3.41472 50.9519 2.94872 49.8269 2.94872 48.6538V45.7051C2.94872 45.3141 2.79338 44.9391 2.51689 44.6626C2.24039 44.3861 1.86538 44.2308 1.47436 44.2308C1.08333 44.2308 0.708326 44.3861 0.43183 44.6626C0.155334 44.9391 0 45.3141 0 45.7051V48.6538C0 50.609 0.776669 52.484 2.15915 53.8665C3.54163 55.249 5.41667 56.0256 7.37179 56.0256H69.2949C71.25 56.0256 73.125 55.249 74.5075 53.8665C75.89 52.484 76.6667 50.609 76.6667 48.6538V7.37179C76.6667 5.41667 75.89 3.54163 74.5075 2.15915C73.125 0.776669 71.25 0 69.2949 0ZM41.459 31.6397C40.6296 32.468 39.5055 32.9333 38.3333 32.9333C37.1612 32.9333 36.037 32.468 35.2077 31.6397L6.59038 3.02244C6.84823 2.97528 7.10968 2.95062 7.37179 2.94872H69.2949C69.557 2.95062 69.8184 2.97528 70.0763 3.02244L41.459 31.6397Z" fill="white"/>
<path d="M69.2949 0V-8V0ZM7.37179 0L7.37179 -8L7.37179 0ZM0 7.37179H-8H0ZM2.94872 7.37179L-5.05102 7.30713L-5.05128 7.33946V7.37179H2.94872ZM3.96602 4.58526L9.62288 -1.0716L3.41142 -7.28306L-2.19371 -0.519409L3.96602 4.58526ZM33.1141 33.7333L38.7781 28.0836L38.771 28.0765L33.1141 33.7333ZM43.5526 33.7333L37.8957 28.0765L37.8886 28.0836L43.5526 33.7333ZM72.7006 4.58526L78.8604 -0.519409L73.2552 -7.28306L67.0438 -1.0716L72.7006 4.58526ZM73.7179 7.37179H81.7179V7.33946L81.7177 7.30713L73.7179 7.37179ZM73.7179 48.6538H81.7179H73.7179ZM69.2949 56.0256V48.0256V56.0256ZM76.6667 7.37179H68.6667H76.6667ZM41.459 31.6397L47.1123 37.3001L47.1158 37.2966L41.459 31.6397ZM38.3333 32.9333L38.3333 24.9333L38.3333 32.9333ZM35.2077 31.6397L29.5508 37.2966L29.5544 37.3001L35.2077 31.6397ZM6.59038 3.02244L5.15128 -4.84706L-9.84959 -2.10383L0.93353 8.67929L6.59038 3.02244ZM7.37179 2.94872V-5.05128H7.3428L7.3138 -5.05107L7.37179 2.94872ZM69.2949 2.94872L69.3529 -5.05107L69.3239 -5.05128H69.2949V2.94872ZM70.0763 3.02244L75.7331 8.67929L86.5163 -2.10383L71.5154 -4.84706L70.0763 3.02244ZM69.2949 0V-8H7.37179V0V8H69.2949V0ZM7.37179 0L7.37179 -8C3.29494 -8 -0.614935 -6.38048 -3.49771 -3.49771L2.15915 2.15915L7.816 7.816C7.69819 7.93381 7.5384 8 7.37179 8L7.37179 0ZM2.15915 2.15915L-3.49771 -3.49771C-6.38048 -0.614935 -8 3.29494 -8 7.37179L0 7.37179L8 7.37179C8 7.5384 7.93381 7.69819 7.816 7.816L2.15915 2.15915ZM0 7.37179H-8V28.0128H0H8V7.37179H0ZM0 28.0128H-8C-8 30.5256 -7.00181 32.9354 -5.22502 34.7122L0.43183 29.0553L6.08868 23.3985C7.31248 24.6223 8 26.2821 8 28.0128H0ZM0.43183 29.0553L-5.22502 34.7122C-3.44823 36.489 -1.03838 37.4872 1.47436 37.4872V29.4872V21.4872C3.20505 21.4872 4.86488 22.1747 6.08868 23.3985L0.43183 29.0553ZM1.47436 29.4872V37.4872C3.9871 37.4872 6.39695 36.489 8.17374 34.7122L2.51689 29.0553L-3.13997 23.3985C-1.91616 22.1747 -0.256335 21.4872 1.47436 21.4872V29.4872ZM2.51689 29.0553L8.17374 34.7122C9.95053 32.9354 10.9487 30.5256 10.9487 28.0128H2.94872H-5.05128C-5.05128 26.2821 -4.36376 24.6223 -3.13997 23.3985L2.51689 29.0553ZM2.94872 28.0128H10.9487V7.37179H2.94872H-5.05128V28.0128H2.94872ZM2.94872 7.37179L10.9485 7.43646C10.9418 8.25992 10.6512 9.05586 10.1258 9.68992L3.96602 4.58526L-2.19371 -0.519409C-4.01868 1.68275 -5.0279 4.44716 -5.05102 7.30713L2.94872 7.37179ZM3.96602 4.58526L-1.69083 10.2421L27.4572 39.3902L33.1141 33.7333L38.771 28.0765L9.62288 -1.0716L3.96602 4.58526ZM33.1141 33.7333L27.4501 39.383C28.878 40.8146 30.5743 41.9503 32.4418 42.7252L35.508 35.3361L38.5741 27.947C38.6504 27.9787 38.7197 28.0251 38.7781 28.0836L33.1141 33.7333ZM35.508 35.3361L32.4418 42.7252C34.3093 43.5002 36.3114 43.8991 38.3333 43.8991V35.8991V27.8991C38.416 27.8991 38.4978 27.9154 38.5741 27.947L35.508 35.3361ZM38.3333 35.8991V43.8991C40.3553 43.8991 42.3573 43.5002 44.2248 42.7252L41.1587 35.3361L38.0926 27.947C38.1689 27.9154 38.2507 27.8991 38.3333 27.8991V35.8991ZM41.1587 35.3361L44.2248 42.7252C46.0923 41.9503 47.7886 40.8146 49.2166 39.383L43.5526 33.7333L37.8886 28.0836C37.9469 28.0251 38.0163 27.9787 38.0926 27.947L41.1587 35.3361ZM43.5526 33.7333L49.2094 39.3902L78.3575 10.2421L72.7006 4.58526L67.0438 -1.0716L37.8957 28.0765L43.5526 33.7333ZM72.7006 4.58526L66.5409 9.68992C66.0154 9.05586 65.7249 8.25991 65.7182 7.43646L73.7179 7.37179L81.7177 7.30713C81.6946 4.44716 80.6853 1.68276 78.8604 -0.519409L72.7006 4.58526ZM73.7179 7.37179H65.7179V48.6538H73.7179H81.7179V7.37179H73.7179ZM73.7179 48.6538L65.7179 48.6538C65.7179 47.7052 66.0948 46.7954 66.7656 46.1246L72.4225 51.7814L78.0793 57.4383C80.4091 55.1085 81.7179 51.9487 81.7179 48.6538L73.7179 48.6538ZM72.4225 51.7814L66.7656 46.1246C67.4364 45.4538 68.3462 45.0769 69.2949 45.0769V53.0769V61.0769C72.5897 61.0769 75.7495 59.7681 78.0793 57.4383L72.4225 51.7814ZM69.2949 53.0769V45.0769H7.37179V53.0769V61.0769H69.2949V53.0769ZM7.37179 53.0769V45.0769C8.32046 45.0769 9.23026 45.4538 9.90106 46.1246L4.24421 51.7814L-1.41265 57.4383C0.917124 59.7681 4.07698 61.0769 7.37179 61.0769V53.0769ZM4.24421 51.7814L9.90106 46.1246C10.5719 46.7954 10.9487 47.7052 10.9487 48.6538H2.94872H-5.05128C-5.05128 51.9487 -3.74243 55.1085 -1.41265 57.4383L4.24421 51.7814ZM2.94872 48.6538H10.9487V45.7051H2.94872H-5.05128V48.6538H2.94872ZM2.94872 45.7051H10.9487C10.9487 43.1924 9.95053 40.7825 8.17374 39.0057L2.51689 44.6626L-3.13997 50.3195C-4.36376 49.0957 -5.05128 47.4358 -5.05128 45.7051H2.94872ZM2.51689 44.6626L8.17374 39.0057C6.39695 37.2289 3.9871 36.2308 1.47436 36.2308V44.2308V52.2308C-0.256335 52.2308 -1.91616 51.5433 -3.13997 50.3195L2.51689 44.6626ZM1.47436 44.2308V36.2308C-1.03838 36.2308 -3.44823 37.2289 -5.22502 39.0057L0.43183 44.6626L6.08868 50.3195C4.86488 51.5433 3.20505 52.2308 1.47436 52.2308V44.2308ZM0.43183 44.6626L-5.22502 39.0057C-7.00181 40.7825 -8 43.1924 -8 45.7051H0H8C8 47.4358 7.31248 49.0957 6.08868 50.3195L0.43183 44.6626ZM0 45.7051H-8V48.6538H0H8V45.7051H0ZM0 48.6538H-8C-8 52.7307 -6.38048 56.6406 -3.49771 59.5233L2.15915 53.8665L7.816 48.2096C7.93381 48.3274 8 48.4872 8 48.6538H0ZM2.15915 53.8665L-3.49771 59.5233C-0.614935 62.4061 3.29494 64.0256 7.37179 64.0256V56.0256V48.0256C7.5384 48.0256 7.69819 48.0918 7.816 48.2096L2.15915 53.8665ZM7.37179 56.0256V64.0256H69.2949V56.0256V48.0256H7.37179V56.0256ZM69.2949 56.0256L69.2949 64.0256C73.3717 64.0256 77.2816 62.4061 80.1644 59.5233L74.5075 53.8665L68.8507 48.2096C68.9685 48.0918 69.1283 48.0256 69.2949 48.0256L69.2949 56.0256ZM74.5075 53.8665L80.1644 59.5233C83.0471 56.6406 84.6667 52.7307 84.6667 48.6538H76.6667H68.6667C68.6667 48.4872 68.7328 48.3274 68.8507 48.2096L74.5075 53.8665ZM76.6667 48.6538H84.6667V7.37179H76.6667H68.6667V48.6538H76.6667ZM76.6667 7.37179L84.6667 7.37179C84.6667 3.29494 83.0471 -0.614935 80.1644 -3.49771L74.5075 2.15915L68.8507 7.816C68.7328 7.69819 68.6667 7.5384 68.6667 7.37179L76.6667 7.37179ZM74.5075 2.15915L80.1644 -3.49771C77.2816 -6.38048 73.3717 -8 69.2949 -8L69.2949 0L69.2949 8C69.1283 8 68.9685 7.93381 68.8507 7.816L74.5075 2.15915ZM41.459 31.6397L35.8056 25.9794C36.4763 25.3095 37.3854 24.9333 38.3333 24.9333L38.3333 32.9333L38.3333 40.9333C41.6255 40.9333 44.783 39.6265 47.1123 37.3001L41.459 31.6397ZM38.3333 32.9333L38.3333 24.9333C39.2812 24.9333 40.1904 25.3095 40.861 25.9794L35.2077 31.6397L29.5544 37.3001C31.8837 39.6265 35.0412 40.9333 38.3333 40.9333L38.3333 32.9333ZM35.2077 31.6397L40.8645 25.9829L12.2472 -2.63442L6.59038 3.02244L0.93353 8.67929L29.5508 37.2966L35.2077 31.6397ZM6.59038 3.02244L8.02949 10.8919C7.83161 10.9281 7.63096 10.947 7.42979 10.9485L7.37179 2.94872L7.3138 -5.05107C6.5884 -5.04581 5.86485 -4.97755 5.15128 -4.84706L6.59038 3.02244ZM7.37179 2.94872V10.9487H69.2949V2.94872V-5.05128H7.37179V2.94872ZM69.2949 2.94872L69.2369 10.9485C69.0357 10.947 68.835 10.9281 68.6372 10.8919L70.0763 3.02244L71.5154 -4.84706C70.8018 -4.97755 70.0783 -5.04581 69.3529 -5.05107L69.2949 2.94872ZM70.0763 3.02244L64.4194 -2.63442L35.8021 25.9829L41.459 31.6397L47.1158 37.2966L75.7331 8.67929L70.0763 3.02244Z" fill="white" mask="url(#path-3-inside-2_3196_18896)"/>
</svg>
