<svg width="26" height="24" viewBox="0 0 26 24" fill="none" xmlns="http://www.w3.org/2000/svg">
<path fill-rule="evenodd" clip-rule="evenodd" d="M16.5234 22.6608C16.8228 22.7468 17.1339 22.7908 17.4468 22.7912V22.799C18.9127 22.7948 20.183 21.8374 20.5154 20.4863L21.0536 18.2946C21.2959 17.3045 21.8447 16.4053 22.6297 15.7119L24.3586 14.1783C24.997 13.6136 25.359 12.8237 25.359 11.9967C25.359 11.1698 24.997 10.3799 24.3586 9.81517L22.6297 8.28321C21.8483 7.59347 21.2994 6.70018 21.0536 5.71592L20.5154 3.53049C20.3174 2.72552 19.7757 2.03423 19.0191 1.62102C18.2627 1.2078 17.3592 1.10958 16.5234 1.34971L14.255 2.00162C13.2279 2.29656 12.1314 2.29656 11.1043 2.00162L8.83593 1.34971C8.00111 1.10986 7.09868 1.20722 6.34231 1.61874C5.58599 2.03026 5.04304 2.71932 4.8421 3.52273L4.30408 5.70818C4.06154 6.69784 3.51345 7.59688 2.72954 8.29095L0.999159 9.82295C0.361715 10.3881 0 11.1778 0 12.0045C0 12.8311 0.361715 13.6209 0.999159 14.1861L2.72954 15.7196C3.51345 16.4137 4.06154 17.3128 4.30408 18.3024L4.8421 20.4863C5.04263 21.2899 5.58548 21.9793 6.34195 22.3909C7.09842 22.8025 8.00111 22.8996 8.83593 22.6593L11.1043 22.0089C12.1312 21.7125 13.2281 21.7125 14.255 22.0089L16.5234 22.6608ZM5.52785 3.66716C5.78744 2.61795 6.77398 1.87443 7.91268 1.86976C8.15552 1.86972 8.39704 1.90372 8.62939 1.97065L10.8978 2.62256C12.058 2.95626 13.2968 2.95626 14.4569 2.62256L16.7253 1.97065C17.3758 1.78535 18.0783 1.86283 18.6663 2.18472C19.2544 2.50661 19.6754 3.04426 19.8302 3.67026L20.3683 5.85415C20.6427 6.9722 21.2623 7.98787 22.1476 8.7722L23.878 10.3057C24.3739 10.7445 24.6554 11.3582 24.6554 12.0007C24.6554 12.6432 24.3739 13.2569 23.878 13.6956L22.1476 15.2292C21.2623 16.0132 20.6432 17.0282 20.3683 18.1457L19.8302 20.3312C19.6739 20.9557 19.2518 21.4915 18.6639 21.8118C18.0761 22.132 17.3746 22.2085 16.7253 22.023L14.4586 21.3758C13.2986 21.0405 12.0593 21.0405 10.8994 21.3758L8.63107 22.0261C7.98146 22.211 7.28002 22.1339 6.69252 21.813C6.10502 21.4921 5.68359 20.9559 5.52785 20.3312L4.98984 18.1426C4.71553 17.0249 4.09606 16.0096 3.21028 15.2261L1.4799 13.6925C0.983987 13.2538 0.702507 12.6401 0.702507 11.9976C0.702507 11.3551 0.983987 10.7414 1.4799 10.3026L3.21028 8.7691C4.09642 7.98517 4.71594 6.96935 4.98984 5.85104L5.52785 3.66716Z" fill="#063235" fill-opacity="0.4"/>
<g style="mix-blend-mode:multiply" opacity="0.66">
<mask id="mask0_4240_19078" style="mask-type:luminance" maskUnits="userSpaceOnUse" x="4" y="1" width="7" height="4">
<g style="mix-blend-mode:multiply" opacity="0.66">
<path d="M10.1541 1.20508H4.5332V4.7766H10.1541V1.20508Z" fill="white"/>
</g>
</mask>
<g mask="url(#mask0_4240_19078)">
<mask id="mask1_4240_19078" style="mask-type:luminance" maskUnits="userSpaceOnUse" x="4" y="1" width="7" height="4">
<g style="mix-blend-mode:multiply" opacity="0.66">
<path fill-rule="evenodd" clip-rule="evenodd" d="M7.89419 1.20077C6.43634 1.21617 5.17754 2.17048 4.84347 3.51348L4.53516 4.77073C4.78446 4.70555 5.04028 4.65277 5.29784 4.60465L5.52907 3.66405C5.78871 2.61483 6.77519 1.87131 7.91389 1.86665C8.15729 1.86646 8.39942 1.90046 8.63228 1.96754L9.59178 2.24382C9.76269 2.05028 9.95151 1.87159 10.156 1.70988L8.84386 1.33115C8.55052 1.24558 8.24547 1.20113 7.93848 1.19922L7.89419 1.20077Z" fill="white"/>
</g>
</mask>
<g mask="url(#mask1_4240_19078)">
<path d="M3.70508 1.38832L9.8692 0.0351562L10.987 4.59538L4.8229 5.94856L3.70508 1.38832Z" fill="#063235" fill-opacity="0.4"/>
</g>
</g>
</g>
<g style="mix-blend-mode:multiply" opacity="0.66">
<mask id="mask2_4240_19078" style="mask-type:luminance" maskUnits="userSpaceOnUse" x="15" y="1" width="6" height="4">
<g style="mix-blend-mode:multiply" opacity="0.66">
<path d="M20.7817 1.20508H15.4199V4.58878H20.7817V1.20508Z" fill="white"/>
</g>
</mask>
<g mask="url(#mask2_4240_19078)">
<mask id="mask3_4240_19078" style="mask-type:luminance" maskUnits="userSpaceOnUse" x="15" y="1" width="6" height="4">
<g style="mix-blend-mode:multiply" opacity="0.66">
<path fill-rule="evenodd" clip-rule="evenodd" d="M17.4259 1.20888C17.1206 1.21211 16.8174 1.25654 16.5254 1.34082L15.4199 1.65125C15.5165 1.85314 15.5997 2.06049 15.6692 2.27211L16.7288 1.96168C17.3786 1.77681 18.0803 1.85412 18.6678 2.17532C19.2554 2.49654 19.6765 3.03312 19.8322 3.65819L20.0354 4.47928C20.2858 4.49824 20.5353 4.53141 20.7817 4.57862L20.5175 3.50608C20.185 2.16466 18.9292 1.21049 17.4734 1.19336L17.4259 1.20888Z" fill="white"/>
</g>
</mask>
<g mask="url(#mask3_4240_19078)">
<path d="M14.6719 4.43363L15.6701 0.140625L21.5343 1.36182L20.5365 5.65484L14.6719 4.43363Z" fill="#063235" fill-opacity="0.4"/>
</g>
</g>
</g>
<g style="mix-blend-mode:multiply" opacity="0.66">
<mask id="mask4_4240_19078" style="mask-type:luminance" maskUnits="userSpaceOnUse" x="0" y="8" width="3" height="8">
<g style="mix-blend-mode:multiply" opacity="0.66">
<path d="M2.25524 8.89648H0V15.0601H2.25524V8.89648Z" fill="white"/>
</g>
</mask>
<g mask="url(#mask4_4240_19078)">
<mask id="mask5_4240_19078" style="mask-type:luminance" maskUnits="userSpaceOnUse" x="0" y="8" width="3" height="8">
<g style="mix-blend-mode:multiply" opacity="0.66">
<path fill-rule="evenodd" clip-rule="evenodd" d="M1.00106 9.8158C0.363618 10.381 0.00195312 11.1707 0.00195312 11.9973C0.00195312 12.824 0.363618 13.6137 1.00106 14.1789L1.9852 15.0559C2.04181 14.816 2.12199 14.5816 2.22468 14.3558L1.47671 13.6931C0.982528 13.2531 0.702322 12.6395 0.702322 11.9973C0.702322 11.3552 0.982528 10.7416 1.47671 10.3016L2.25747 9.62178C2.17708 9.38275 2.10326 9.14215 2.04426 8.89844L1.00106 9.8158Z" fill="white"/>
</g>
</mask>
<g mask="url(#mask5_4240_19078)">
<path d="M-1.80859 14.5391L0.192371 8.30273L4.06728 9.41615L2.06631 15.6525L-1.80859 14.5391Z" fill="#063235" fill-opacity="0.4"/>
</g>
</g>
</g>
<g style="mix-blend-mode:multiply" opacity="0.66">
<mask id="mask6_4240_19078" style="mask-type:luminance" maskUnits="userSpaceOnUse" x="23" y="8" width="3" height="7">
<g style="mix-blend-mode:multiply" opacity="0.66">
<path d="M25.3598 8.96094H23.1816V14.6155H25.3598V8.96094Z" fill="white"/>
</g>
</mask>
<g mask="url(#mask6_4240_19078)">
<mask id="mask7_4240_19078" style="mask-type:luminance" maskUnits="userSpaceOnUse" x="23" y="8" width="3" height="7">
<g style="mix-blend-mode:multiply" opacity="0.66">
<path fill-rule="evenodd" clip-rule="evenodd" d="M23.1816 9.68623L23.8786 10.3071C24.3729 10.7471 24.6534 11.3607 24.6534 12.0028C24.6534 12.6449 24.3729 13.2585 23.8786 13.6986L23.4377 14.0897C23.6307 14.2246 23.7814 14.4072 23.8725 14.6174L24.3643 14.1844C25.0017 13.6192 25.3636 12.8295 25.3636 12.0028C25.3636 11.1762 25.0017 10.3865 24.3643 9.82125L23.3934 8.96289C23.3374 9.20838 23.2682 9.45087 23.1852 9.68934" fill="white"/>
</g>
</mask>
<g mask="url(#mask7_4240_19078)">
<path d="M20.918 9.94574L24.9831 8.17969L27.6279 13.6317L23.5632 15.3977L20.918 9.94574Z" fill="#063235" fill-opacity="0.4"/>
</g>
</g>
</g>
<g style="mix-blend-mode:multiply" opacity="0.66">
<mask id="mask8_4240_19078" style="mask-type:luminance" maskUnits="userSpaceOnUse" x="4" y="19" width="7" height="4">
<g style="mix-blend-mode:multiply" opacity="0.66">
<path d="M10.0552 19.3262H4.56055V22.7952H10.0552V19.3262Z" fill="white"/>
</g>
</mask>
<g mask="url(#mask8_4240_19078)">
<mask id="mask9_4240_19078" style="mask-type:luminance" maskUnits="userSpaceOnUse" x="4" y="19" width="7" height="4">
<g style="mix-blend-mode:multiply" opacity="0.66">
<path fill-rule="evenodd" clip-rule="evenodd" d="M5.28057 19.3281L5.07881 19.339C4.90628 19.3506 4.73308 19.3506 4.56055 19.339L4.84427 20.4907C5.04444 21.2947 5.58715 21.9844 6.34367 22.3963C7.10019 22.8082 8.00308 22.9056 8.8381 22.6653L10.0552 22.3145C9.98785 22.2264 9.92594 22.1346 9.86979 22.0397C9.77978 21.9491 9.70759 21.844 9.65658 21.7293L8.63309 22.0227C7.9849 22.2078 7.28469 22.132 6.69749 21.813C6.11025 21.494 5.6879 20.9601 5.52987 20.337L5.28219 19.3312L5.28057 19.3281Z" fill="white"/>
</g>
</mask>
<g mask="url(#mask9_4240_19078)">
<path d="M2.81445 21.8556L5.90861 16.918L11.634 20.1311L8.53989 25.0688L2.81445 21.8556Z" fill="#063235" fill-opacity="0.4"/>
</g>
</g>
</g>
<g style="mix-blend-mode:multiply" opacity="0.66">
<mask id="mask10_4240_19078" style="mask-type:luminance" maskUnits="userSpaceOnUse" x="15" y="19" width="6" height="4">
<g style="mix-blend-mode:multiply" opacity="0.66">
<path d="M20.7535 19.5215H15.2441V22.7965H20.7535V19.5215Z" fill="white"/>
</g>
</mask>
<g mask="url(#mask10_4240_19078)">
<mask id="mask11_4240_19078" style="mask-type:luminance" maskUnits="userSpaceOnUse" x="15" y="19" width="6" height="4">
<g style="mix-blend-mode:multiply" opacity="0.66">
<path fill-rule="evenodd" clip-rule="evenodd" d="M20.0071 19.5968L19.8319 20.3388C19.6751 20.9633 19.2531 21.4991 18.6655 21.8194C18.0777 22.1397 17.3762 22.2161 16.7269 22.0306L15.6542 21.7202C15.5048 21.9043 15.3679 22.0972 15.2441 22.2976L16.5235 22.6654C16.8135 22.7484 17.1144 22.7923 17.4174 22.7958H17.4764C18.9283 22.7802 20.1822 21.8309 20.5172 20.494L20.7534 19.5332C20.506 19.5627 20.2616 19.5844 20.0137 19.6046" fill="white"/>
</g>
</mask>
<g mask="url(#mask11_4240_19078)">
<path d="M13.5859 20.6991L18.7789 17.0254L22.4134 21.6264L17.2205 25.3001L13.5859 20.6991Z" fill="#063235" fill-opacity="0.4"/>
</g>
</g>
</g>
<path fill-rule="evenodd" clip-rule="evenodd" d="M10.375 23.0541C10.9696 23.6606 11.8053 24.004 12.6795 24.0009H12.6828C13.5575 24.004 14.3937 23.6607 14.9889 23.0541L16.6094 21.4166C17.3424 20.675 18.2918 20.1564 19.337 19.9265L21.6463 19.4174C22.4955 19.2272 23.2235 18.7134 23.6583 17.9977C24.093 17.2819 24.1959 16.4279 23.9429 15.6379L23.2535 13.4913C22.942 12.5193 22.942 11.4816 23.2535 10.5096L23.9429 8.36295C24.1964 7.57311 24.0941 6.71908 23.6588 6.00348C23.224 5.28783 22.4955 4.77439 21.6463 4.58499L19.334 4.08054C18.2885 3.85069 17.3391 3.33204 16.6061 2.59047L14.9856 0.951385C14.3884 0.348146 13.5539 0.00585938 12.6804 0.00585938C11.8068 0.00585938 10.9723 0.348146 10.375 0.951385L8.75459 2.59047C8.02113 3.3323 7.0711 3.85097 6.02531 4.08054L3.71761 4.58965C2.86665 4.77692 2.13579 5.28946 1.69878 6.00536C1.26182 6.72127 1.15781 7.57647 1.41149 8.36763L2.1004 10.5142C2.41365 11.486 2.41365 12.5241 2.1004 13.4959L1.41149 15.6426C1.15776 16.4339 1.26177 17.2893 1.69873 18.0055C2.13563 18.7216 2.86655 19.2345 3.71761 19.4221L6.02531 19.9312C7.0711 20.1608 8.02113 20.6794 8.75459 21.4213L10.375 23.0541ZM10.8886 1.39818C11.3522 0.927437 12.0031 0.662237 12.683 0.667119L12.6797 0.662461C13.3598 0.659411 14.01 0.926276 14.4724 1.39818L16.0913 3.04037C16.9192 3.87871 17.992 4.46495 19.1732 4.72446L21.4824 5.23356C22.1437 5.38059 22.7108 5.77947 23.0504 6.33588C23.3895 6.89223 23.4709 7.55667 23.2754 8.17183L22.5866 10.3184C22.2338 11.4164 22.2338 12.5887 22.5866 13.6866L23.2754 15.8333C23.4699 16.448 23.3879 17.1116 23.0489 17.6672C22.7093 18.2229 22.1427 18.6213 21.4824 18.7684L19.1748 19.2713C17.9932 19.5295 16.9199 20.1159 16.0929 20.9554L14.4724 22.5929C14.0075 23.0606 13.3591 23.3258 12.6806 23.3258C12.002 23.3258 11.3536 23.0606 10.8886 22.5929L9.26816 20.9554C8.4395 20.1194 7.36663 19.5359 6.18628 19.2791L3.8769 18.7699C3.21665 18.6226 2.65008 18.2237 2.31097 17.6678C1.97191 17.1118 1.8904 16.448 2.08579 15.8333L2.77308 13.6804C3.12736 12.5827 3.12736 11.4099 2.77308 10.3122L2.08579 8.16562C1.8904 7.55087 1.97191 6.88709 2.31097 6.33109C2.65008 5.77515 3.21665 5.37631 3.8769 5.22892L6.18628 4.71981C7.36709 4.45959 8.43971 3.87346 9.26816 3.03571L10.8886 1.39818Z" fill="#063235" fill-opacity="0.4"/>
<path d="M1.91211 14.078L2.48454 14.5902L2.7732 13.6899C3.12748 12.5922 3.12748 11.4194 2.7732 10.3217L2.48454 9.41992L1.91211 9.9275L2.10073 10.5142C2.41398 11.486 2.41398 12.5241 2.10073 13.4959L1.91211 14.078Z" fill="#063235" fill-opacity="0.4"/>
<path d="M6.18612 4.72612C7.36698 4.4659 8.4396 3.87977 9.268 3.04203L9.94867 2.35442L9.1975 2.13867L8.75463 2.58725C8.02117 3.32908 7.07114 3.84776 6.0254 4.07732L5.39391 4.21701L5.2168 4.93877L6.18612 4.72612Z" fill="#063235" fill-opacity="0.4"/>
<path d="M16.0931 3.04203C16.921 3.88036 17.9938 4.46661 19.175 4.72612L20.1442 4.93877L19.9655 4.21701L19.3342 4.07732C18.2889 3.84747 17.3395 3.32882 16.6065 2.58725L16.162 2.13867L15.4141 2.35442L16.0931 3.04203Z" fill="#063235" fill-opacity="0.4"/>
<path d="M19.175 19.2767C17.9944 19.5339 16.9215 20.118 16.0931 20.9546L15.4141 21.6484L16.1636 21.8642L16.6081 21.4156C17.3411 20.674 18.2905 20.1554 19.3357 19.9255L19.967 19.7858L20.1462 19.0625L19.175 19.2767Z" fill="#063235" fill-opacity="0.4"/>
<path d="M23.2597 13.4881C22.9482 12.516 22.9482 11.4784 23.2597 10.5064L23.4517 9.91964L22.8794 9.41211L22.5908 10.3139C22.238 11.4118 22.238 12.5842 22.5908 13.6821L22.8759 14.5886L23.4517 14.0764L23.2597 13.4881Z" fill="#063235" fill-opacity="0.4"/>
<g style="mix-blend-mode:multiply" opacity="0.66">
<mask id="mask12_4240_19078" style="mask-type:luminance" maskUnits="userSpaceOnUse" x="20" y="14" width="5" height="6">
<g style="mix-blend-mode:multiply" opacity="0.66">
<path d="M24.0863 14.7891H20.7305V19.6178H24.0863V14.7891Z" fill="white"/>
</g>
</mask>
<g mask="url(#mask12_4240_19078)">
<mask id="mask13_4240_19078" style="mask-type:luminance" maskUnits="userSpaceOnUse" x="20" y="14" width="5" height="6">
<g style="mix-blend-mode:multiply" opacity="0.66">
<path fill-rule="evenodd" clip-rule="evenodd" d="M23.1035 15.2966L23.276 15.8321C23.471 16.4471 23.3896 17.1111 23.05 17.6671C22.7109 18.2231 22.1438 18.6218 21.483 18.7688L20.9057 18.8961L20.7285 19.6179L21.6423 19.4176C22.491 19.2274 23.2195 18.7136 23.6543 17.9979C24.0891 17.2821 24.1919 16.4281 23.9384 15.6381L23.666 14.7891L23.1035 15.2966Z" fill="white"/>
</g>
</mask>
<g mask="url(#mask13_4240_19078)">
<path d="M18.623 18.5157L21.7651 13.502L26.5664 16.1966L23.4248 21.2103L18.623 18.5157Z" fill="#063235" fill-opacity="0.4"/>
</g>
</g>
</g>
<path d="M9.268 20.953C8.44001 20.1147 7.36723 19.5285 6.18612 19.2689L5.2168 19.0547L5.39391 19.778L6.0254 19.9177C7.07252 20.1503 8.0227 20.6728 8.75463 21.4186L9.1975 21.8672L9.94867 21.6514L9.268 20.953Z" fill="#063235" fill-opacity="0.4"/>
<g style="mix-blend-mode:multiply" opacity="0.66">
<mask id="mask14_4240_19078" style="mask-type:luminance" maskUnits="userSpaceOnUse" x="1" y="14" width="4" height="6">
<g style="mix-blend-mode:multiply" opacity="0.66">
<path d="M4.63119 14.7891H1.27539V19.6178H4.63119V14.7891Z" fill="white"/>
</g>
</mask>
<g mask="url(#mask14_4240_19078)">
<mask id="mask15_4240_19078" style="mask-type:luminance" maskUnits="userSpaceOnUse" x="1" y="14" width="4" height="6">
<g style="mix-blend-mode:multiply" opacity="0.66">
<path fill-rule="evenodd" clip-rule="evenodd" d="M1.41342 15.6404C1.15974 16.4317 1.2637 17.2872 1.70066 18.0033C2.13762 18.7195 2.86848 19.2323 3.71954 19.42L4.63312 19.6202L4.45432 18.8984L3.87863 18.7711C3.21879 18.6237 2.65252 18.2251 2.31346 17.6695C1.9744 17.1139 1.89269 16.4505 2.08757 15.836L2.25155 15.3006L1.67917 14.793L1.41342 15.6404Z" fill="white"/>
</g>
</mask>
<g mask="url(#mask15_4240_19078)">
<path d="M0.681641 19.5726L1.18463 14.4805L5.10236 14.827L4.59937 19.9192L0.681641 19.5726Z" fill="#063235" fill-opacity="0.4"/>
</g>
</g>
</g>
<g style="mix-blend-mode:multiply" opacity="0.66">
<mask id="mask16_4240_19078" style="mask-type:luminance" maskUnits="userSpaceOnUse" x="9" y="22" width="7" height="3">
<g style="mix-blend-mode:multiply" opacity="0.66">
<path d="M15.6259 22.1914H9.73438V24.0012H15.6259V22.1914Z" fill="white"/>
</g>
</mask>
<g mask="url(#mask16_4240_19078)">
<mask id="mask17_4240_19078" style="mask-type:luminance" maskUnits="userSpaceOnUse" x="9" y="22" width="7" height="3">
<g style="mix-blend-mode:multiply" opacity="0.66">
<path fill-rule="evenodd" clip-rule="evenodd" d="M9.73438 22.4088L10.3757 23.056C10.973 23.6592 11.8075 24.0016 12.681 24.0016C13.5545 24.0016 14.389 23.6592 14.9862 23.056L15.6259 22.4088L14.8763 22.1992L14.4729 22.6074C14.0079 23.0751 13.3595 23.3403 12.681 23.3403C12.0025 23.3403 11.354 23.0751 10.8891 22.6074L10.484 22.1992L9.73438 22.4088Z" fill="white"/>
</g>
</mask>
<g mask="url(#mask17_4240_19078)">
<path d="M9.17773 22.3664L15.0735 20.5664L16.1874 23.834L10.2916 25.6339L9.17773 22.3664Z" fill="#063235" fill-opacity="0.4"/>
</g>
</g>
</g>
<g style="mix-blend-mode:multiply" opacity="0.66">
<mask id="mask18_4240_19078" style="mask-type:luminance" maskUnits="userSpaceOnUse" x="9" y="0" width="7" height="2">
<g style="mix-blend-mode:multiply" opacity="0.66">
<path d="M15.6259 0H9.73438V1.80982H15.6259V0Z" fill="white"/>
</g>
</mask>
<g mask="url(#mask18_4240_19078)">
<mask id="mask19_4240_19078" style="mask-type:luminance" maskUnits="userSpaceOnUse" x="9" y="-1" width="7" height="3">
<g style="mix-blend-mode:multiply" opacity="0.66">
<path fill-rule="evenodd" clip-rule="evenodd" d="M10.3757 0.944324L9.73438 1.59313L10.484 1.80888L10.8891 1.396C11.354 0.928323 12.0025 0.663123 12.681 0.663123C13.3595 0.663123 14.0079 0.928323 14.4729 1.396L14.8763 1.80422L15.6259 1.58847L14.9862 0.939666C14.389 0.336427 13.5545 -0.00585938 12.681 -0.00585938C11.8075 -0.00585938 10.973 0.336427 10.3757 0.939666" fill="white"/>
</g>
</mask>
<g mask="url(#mask19_4240_19078)">
<path d="M9.59961 1.80221L9.76273 -0.388672L15.7608 0.0112298L15.5977 2.20211L9.59961 1.80221Z" fill="#063235" fill-opacity="0.4"/>
</g>
</g>
</g>
<g style="mix-blend-mode:multiply" opacity="0.66">
<mask id="mask20_4240_19078" style="mask-type:luminance" maskUnits="userSpaceOnUse" x="1" y="4" width="4" height="6">
<g style="mix-blend-mode:multiply" opacity="0.66">
<path d="M4.63119 4.375H1.27539V9.20377H4.63119V4.375Z" fill="white"/>
</g>
</mask>
<g mask="url(#mask20_4240_19078)">
<mask id="mask21_4240_19078" style="mask-type:luminance" maskUnits="userSpaceOnUse" x="1" y="4" width="4" height="6">
<g style="mix-blend-mode:multiply" opacity="0.66">
<path fill-rule="evenodd" clip-rule="evenodd" d="M3.71948 4.57483C2.86857 4.7621 2.1377 5.27466 1.70069 5.99052C1.26373 6.70643 1.15972 7.56168 1.41341 8.35279L1.68567 9.20183L2.2581 8.69582L2.09407 8.16034C1.89868 7.54559 1.98013 6.88182 2.31925 6.32582C2.65836 5.76982 3.22493 5.37104 3.88513 5.22365L4.46088 5.09637L4.63962 4.37305L3.71948 4.57483Z" fill="white"/>
</g>
</mask>
<g mask="url(#mask21_4240_19078)">
<path d="M-1.39453 6.88436L2.82219 2.73047L7.1785 6.6908L2.96183 10.8447L-1.39453 6.88436Z" fill="#063235" fill-opacity="0.4"/>
</g>
</g>
</g>
<g style="mix-blend-mode:multiply" opacity="0.66">
<mask id="mask22_4240_19078" style="mask-type:luminance" maskUnits="userSpaceOnUse" x="20" y="4" width="5" height="6">
<g style="mix-blend-mode:multiply" opacity="0.66">
<path d="M24.0863 4.375H20.7305V9.20377H24.0863V4.375Z" fill="white"/>
</g>
</mask>
<g mask="url(#mask22_4240_19078)">
<mask id="mask23_4240_19078" style="mask-type:luminance" maskUnits="userSpaceOnUse" x="20" y="4" width="5" height="6">
<g style="mix-blend-mode:multiply" opacity="0.66">
<path fill-rule="evenodd" clip-rule="evenodd" d="M20.7305 4.37305L20.9076 5.09635L21.485 5.22363C22.1453 5.37102 22.7119 5.76985 23.0509 6.3258C23.39 6.8818 23.4715 7.54557 23.276 8.16032L23.1039 8.6958L23.6761 9.20181L23.9439 8.35277C24.1969 7.56298 24.0941 6.70916 23.6593 5.99366C23.2245 5.27816 22.4965 4.76464 21.6474 4.57483L20.7305 4.37305Z" fill="white"/>
</g>
</mask>
<g mask="url(#mask23_4240_19078)">
<path d="M19.2559 4.8197L23.8841 3.42773L25.6761 8.76343L21.0474 10.1554L19.2559 4.8197Z" fill="#063235" fill-opacity="0.4"/>
</g>
</g>
</g>
<path d="M10.9588 18.8588L17.4949 12.6735C17.6846 12.4946 17.7912 12.2517 17.7912 11.9983C17.7912 11.7449 17.6846 11.5019 17.4949 11.3231L15.3971 9.33789L10.4946 13.9788C10.1292 14.3246 9.92388 14.7936 9.92383 15.2827V18.4522C9.92429 18.6848 10.0725 18.8943 10.2996 18.9832C10.5268 19.0722 10.7881 19.0231 10.9621 18.8588" fill="#063235" fill-opacity="0.4"/>
<g style="mix-blend-mode:multiply" opacity="0.66">
<mask id="mask24_4240_19078" style="mask-type:luminance" maskUnits="userSpaceOnUse" x="9" y="9" width="9" height="11">
<g style="mix-blend-mode:multiply" opacity="0.66">
<path d="M17.7895 9.3418H9.91992V19.0335H17.7895V9.3418Z" fill="white"/>
</g>
</mask>
<g mask="url(#mask24_4240_19078)">
<mask id="mask25_4240_19078" style="mask-type:luminance" maskUnits="userSpaceOnUse" x="9" y="9" width="9" height="11">
<g style="mix-blend-mode:multiply" opacity="0.66">
<path fill-rule="evenodd" clip-rule="evenodd" d="M10.4946 13.9847C10.1292 14.3305 9.92388 14.7995 9.92383 15.2885V18.458C9.92429 18.6906 10.0725 18.9001 10.2996 18.9891C10.5267 19.078 10.7881 19.0289 10.9621 18.8647L17.4982 12.6793C17.6851 12.5033 17.7912 12.2646 17.7934 12.015V11.9917C17.7911 11.7426 17.685 11.5045 17.4982 11.329L15.3971 9.34375L10.4946 13.9847Z" fill="white"/>
</g>
</mask>
<g mask="url(#mask25_4240_19078)">
<path d="M4.81055 13.2773L14.6626 5.70312L22.9028 15.3023L13.051 22.8765L4.81055 13.2773Z" fill="#063235" fill-opacity="0.4"/>
</g>
</g>
</g>
<path d="M9.91992 5.53966V8.70917C9.92074 9.19822 10.1273 9.66685 10.494 10.0114L15.3998 14.6539L17.4975 12.6688C17.6873 12.4899 17.7939 12.247 17.7939 11.9935C17.7939 11.7401 17.6873 11.4972 17.4975 11.3183L10.9581 5.13298C10.7841 4.96875 10.5228 4.91969 10.2957 5.00864C10.0686 5.0976 9.92038 5.3071 9.91992 5.53966Z" fill="#063235"/>
</svg>
