<svg width="20" height="18" viewBox="0 0 20 18" fill="none" xmlns="http://www.w3.org/2000/svg">
<path fill-rule="evenodd" clip-rule="evenodd" d="M12.3948 16.9926C12.6194 17.0571 12.8527 17.09 13.0874 17.0903V17.0962C14.1869 17.093 15.1396 16.3752 15.3889 15.3622L15.7925 13.7189C15.9743 12.9766 16.3859 12.3023 16.9747 11.7824L18.2714 10.6326C18.7502 10.2092 19.0217 9.61698 19.0217 8.99697C19.0217 8.37695 18.7502 7.78472 18.2714 7.36128L16.9747 6.21267C16.3885 5.69552 15.9769 5.02576 15.7925 4.2878L15.3889 2.64923C15.2404 2.04569 14.8341 1.52738 14.2667 1.21756C13.6993 0.907746 13.0217 0.834102 12.3948 1.01414L10.6935 1.50293C9.92315 1.72406 9.10075 1.72406 8.33036 1.50293L6.62907 1.01414C6.00293 0.834312 5.32609 0.907311 4.7588 1.21585C4.19155 1.5244 3.78432 2.04104 3.63361 2.64341L3.23009 4.28199C3.04819 5.02401 2.63711 5.69808 2.04916 6.21847L0.751341 7.36712C0.273246 7.79086 0.00195312 8.38298 0.00195312 9.00277C0.00195312 9.62256 0.273246 10.2147 0.751341 10.6385L2.04916 11.7882C2.63711 12.3087 3.04819 12.9827 3.23009 13.7248L3.63361 15.3622C3.78402 15.9647 4.19117 16.4816 4.75854 16.7902C5.3259 17.0988 6.00293 17.1716 6.62907 16.9914L8.33036 16.5038C9.10056 16.2816 9.9233 16.2816 10.6935 16.5038L12.3948 16.9926ZM4.14795 2.7517C4.34264 1.96503 5.08256 1.40756 5.93661 1.40406C6.11874 1.40404 6.29989 1.42953 6.47415 1.47971L8.17549 1.96849C9.04565 2.21869 9.97477 2.21869 10.8449 1.96849L12.5463 1.47971C13.0341 1.34078 13.561 1.39887 14.002 1.64021C14.4431 1.88156 14.7589 2.28467 14.875 2.75402L15.2786 4.39143C15.4844 5.22971 15.9491 5.99123 16.6131 6.5793L17.9109 7.7291C18.2828 8.0581 18.494 8.51822 18.494 8.99994C18.494 9.48163 18.2828 9.94178 17.9109 10.2707L16.6131 11.4205C15.9491 12.0083 15.4847 12.7694 15.2786 13.6073L14.875 15.2459C14.7577 15.7141 14.4412 16.1158 14.0003 16.356C13.5594 16.5961 13.0333 16.6534 12.5463 16.5143L10.8462 16.0291C9.97618 15.7777 9.04669 15.7777 8.17671 16.0291L6.47541 16.5167C5.98819 16.6553 5.4621 16.5975 5.02147 16.3569C4.58083 16.1163 4.26475 15.7143 4.14795 15.2459L3.74442 13.6049C3.53869 12.7669 3.07408 12.0057 2.40972 11.4182L1.11191 10.2684C0.739961 9.93946 0.528847 9.4793 0.528847 8.99761C0.528847 8.51589 0.739961 8.05577 1.11191 7.72677L2.40972 6.57697C3.07434 5.98921 3.539 5.22758 3.74442 4.3891L4.14795 2.7517Z" fill="#46B978"/>
<g style="mix-blend-mode:multiply" opacity="0.66">
<mask id="mask0_2912_31784" style="mask-type:luminance" maskUnits="userSpaceOnUse" x="3" y="0" width="5" height="4">
<g style="mix-blend-mode:multiply" opacity="0.66">
<path d="M7.61614 0.898926H3.40039V3.57674H7.61614V0.898926Z" fill="white"/>
</g>
</mask>
<g mask="url(#mask0_2912_31784)">
<mask id="mask1_2912_31784" style="mask-type:luminance" maskUnits="userSpaceOnUse" x="3" y="0" width="5" height="4">
<g style="mix-blend-mode:multiply" opacity="0.66">
<path fill-rule="evenodd" clip-rule="evenodd" d="M5.92168 0.90125C4.82826 0.912797 3.88414 1.6283 3.63358 2.63525L3.40234 3.5779C3.58933 3.52902 3.7812 3.48945 3.97437 3.45337L4.1478 2.74814C4.34253 1.96147 5.08241 1.404 5.93646 1.4005C6.11901 1.40036 6.30062 1.42585 6.47527 1.47615L7.19491 1.68329C7.32309 1.53819 7.46471 1.40421 7.61809 1.28296L6.63396 0.999003C6.41394 0.934848 6.18515 0.901521 5.9549 0.900085L5.92168 0.90125Z" fill="white"/>
</g>
</mask>
<g mask="url(#mask1_2912_31784)">
<path d="M2.7793 1.04691L7.4025 0.0323486L8.2409 3.45147L3.61769 4.46604L2.7793 1.04691Z" fill="url(#paint0_linear_2912_31784)"/>
</g>
</g>
</g>
<g style="mix-blend-mode:multiply" opacity="0.66">
<mask id="mask2_2912_31784" style="mask-type:luminance" maskUnits="userSpaceOnUse" x="11" y="0" width="5" height="4">
<g style="mix-blend-mode:multiply" opacity="0.66">
<path d="M15.5859 0.898926H11.5645V3.43592H15.5859V0.898926Z" fill="white"/>
</g>
</mask>
<g mask="url(#mask2_2912_31784)">
<mask id="mask3_2912_31784" style="mask-type:luminance" maskUnits="userSpaceOnUse" x="11" y="0" width="5" height="4">
<g style="mix-blend-mode:multiply" opacity="0.66">
<path fill-rule="evenodd" clip-rule="evenodd" d="M13.069 0.910137C12.84 0.912561 12.6126 0.945869 12.3936 1.00906L11.5645 1.24181C11.6369 1.39318 11.6993 1.54865 11.7514 1.70731L12.5461 1.47456C13.0335 1.33595 13.5598 1.39391 14.0004 1.63474C14.4412 1.87558 14.7569 2.27789 14.8738 2.74655L15.0261 3.36218C15.214 3.3764 15.4011 3.40127 15.5859 3.43666L15.3877 2.6325C15.1384 1.62675 14.1965 0.911339 13.1046 0.898499L13.069 0.910137Z" fill="white"/>
</g>
</mask>
<g mask="url(#mask3_2912_31784)">
<path d="M11.0039 3.3268L11.7526 0.108032L16.1509 1.02365L15.4025 4.24242L11.0039 3.3268Z" fill="url(#paint1_linear_2912_31784)"/>
</g>
</g>
</g>
<g style="mix-blend-mode:multiply" opacity="0.66">
<mask id="mask4_2912_31784" style="mask-type:luminance" maskUnits="userSpaceOnUse" x="0" y="6" width="2" height="6">
<g style="mix-blend-mode:multiply" opacity="0.66">
<path d="M1.69148 6.66345H0V11.2847H1.69148V6.66345Z" fill="white"/>
</g>
</mask>
<g mask="url(#mask4_2912_31784)">
<mask id="mask5_2912_31784" style="mask-type:luminance" maskUnits="userSpaceOnUse" x="0" y="6" width="2" height="6">
<g style="mix-blend-mode:multiply" opacity="0.66">
<path fill-rule="evenodd" clip-rule="evenodd" d="M0.751303 7.36085C0.273209 7.78459 0.00195312 8.3767 0.00195312 8.99649C0.00195312 9.61628 0.273209 10.2084 0.751303 10.6322L1.48943 11.2897C1.53189 11.1099 1.59202 10.9341 1.66904 10.7648L1.10805 10.2679C0.737402 9.93803 0.527243 9.47795 0.527243 8.99649C0.527243 8.51503 0.737402 8.05499 1.10805 7.72508L1.69363 7.21537C1.63334 7.03616 1.57797 6.85576 1.53372 6.67303L0.751303 7.36085Z" fill="white"/>
</g>
</mask>
<g mask="url(#mask5_2912_31784)">
<path d="M-1.35547 10.9009L0.145292 6.22504L3.05154 7.05984L1.55078 11.7357L-1.35547 10.9009Z" fill="url(#paint2_linear_2912_31784)"/>
</g>
</g>
</g>
<g style="mix-blend-mode:multiply" opacity="0.66">
<mask id="mask6_2912_31784" style="mask-type:luminance" maskUnits="userSpaceOnUse" x="17" y="6" width="3" height="5">
<g style="mix-blend-mode:multiply" opacity="0.66">
<path d="M19.0204 6.71442H17.3867V10.954H19.0204V6.71442Z" fill="white"/>
</g>
</mask>
<g mask="url(#mask6_2912_31784)">
<mask id="mask7_2912_31784" style="mask-type:luminance" maskUnits="userSpaceOnUse" x="17" y="6" width="3" height="5">
<g style="mix-blend-mode:multiply" opacity="0.66">
<path fill-rule="evenodd" clip-rule="evenodd" d="M17.3867 7.25828L17.9094 7.72378C18.2802 8.05366 18.4906 8.51374 18.4906 8.9952C18.4906 9.47661 18.2802 9.93669 17.9094 10.2666L17.5788 10.5598C17.7235 10.661 17.8365 10.7979 17.9049 10.9555L18.2737 10.6308C18.7518 10.2071 19.0233 9.61498 19.0233 8.9952C19.0233 8.37541 18.7518 7.78329 18.2737 7.35951L17.5456 6.71594C17.5036 6.9 17.4516 7.08181 17.3894 7.26061" fill="white"/>
</g>
</mask>
<g mask="url(#mask7_2912_31784)">
<path d="M15.6875 7.45688L18.7364 6.13275L20.7201 10.2205L17.6715 11.5446L15.6875 7.45688Z" fill="url(#paint3_linear_2912_31784)"/>
</g>
</g>
</g>
<g style="mix-blend-mode:multiply" opacity="0.66">
<mask id="mask8_2912_31784" style="mask-type:luminance" maskUnits="userSpaceOnUse" x="3" y="14" width="5" height="4">
<g style="mix-blend-mode:multiply" opacity="0.66">
<path d="M7.54098 14.4954H3.41992V17.0964H7.54098V14.4954Z" fill="white"/>
</g>
</mask>
<g mask="url(#mask8_2912_31784)">
<mask id="mask9_2912_31784" style="mask-type:luminance" maskUnits="userSpaceOnUse" x="3" y="14" width="5" height="4">
<g style="mix-blend-mode:multiply" opacity="0.66">
<path fill-rule="evenodd" clip-rule="evenodd" d="M3.95995 14.494L3.80863 14.5021C3.67922 14.5108 3.54933 14.5108 3.41992 14.5021L3.63272 15.3656C3.78285 15.9684 4.18989 16.4856 4.7573 16.7944C5.3247 17.1032 6.00188 17.1762 6.62817 16.9961L7.54098 16.7331C7.4905 16.667 7.44407 16.5982 7.40195 16.527C7.33444 16.4591 7.2803 16.3803 7.24204 16.2943L6.4744 16.5143C5.98825 16.6531 5.46308 16.5962 5.02267 16.357C4.58223 16.1179 4.26545 15.7176 4.14693 15.2504L3.96117 14.4963L3.95995 14.494Z" fill="white"/>
</g>
</mask>
<g mask="url(#mask9_2912_31784)">
<path d="M2.10938 16.3799L4.43005 12.6778L8.72423 15.0869L6.40356 18.789L2.10938 16.3799Z" fill="url(#paint4_linear_2912_31784)"/>
</g>
</g>
</g>
<g style="mix-blend-mode:multiply" opacity="0.66">
<mask id="mask10_2912_31784" style="mask-type:luminance" maskUnits="userSpaceOnUse" x="11" y="14" width="5" height="4">
<g style="mix-blend-mode:multiply" opacity="0.66">
<path d="M15.5657 14.6388H11.4336V17.0943H15.5657V14.6388Z" fill="white"/>
</g>
</mask>
<g mask="url(#mask10_2912_31784)">
<mask id="mask11_2912_31784" style="mask-type:luminance" maskUnits="userSpaceOnUse" x="11" y="14" width="5" height="4">
<g style="mix-blend-mode:multiply" opacity="0.66">
<path fill-rule="evenodd" clip-rule="evenodd" d="M15.0059 14.6866L14.8745 15.2428C14.7569 15.7111 14.4404 16.1128 13.9997 16.3529C13.5588 16.5931 13.0327 16.6504 12.5457 16.5114L11.7411 16.2786C11.6291 16.4167 11.5264 16.5612 11.4336 16.7115L12.3931 16.9873C12.6107 17.0495 12.8363 17.0824 13.0636 17.0851H13.1079C14.1968 17.0734 15.1372 16.3616 15.3885 15.3592L15.5656 14.6389C15.3801 14.661 15.1968 14.6773 15.0108 14.6924" fill="white"/>
</g>
</mask>
<g mask="url(#mask11_2912_31784)">
<path d="M10.1895 15.5121L14.0843 12.7577L16.8102 16.2074L12.9154 18.9618L10.1895 15.5121Z" fill="url(#paint5_linear_2912_31784)"/>
</g>
</g>
</g>
<path fill-rule="evenodd" clip-rule="evenodd" d="M7.78195 17.2846C8.22789 17.7394 8.85467 17.9968 9.51036 17.9945H9.5128C10.1689 17.9968 10.796 17.7394 11.2424 17.2846L12.4578 16.0568C13.0076 15.5008 13.7197 15.112 14.5036 14.9396L16.2356 14.5579C16.8725 14.4153 17.4185 14.0301 17.7446 13.4934C18.0707 12.9568 18.1478 12.3165 17.9581 11.7241L17.441 10.1147C17.2074 9.38588 17.2074 8.60787 17.441 7.87911L17.9581 6.26961C18.1482 5.67742 18.0715 5.03709 17.745 4.50055C17.4189 3.96398 16.8725 3.57902 16.2356 3.43702L14.5013 3.05879C13.7172 2.88646 13.0051 2.49759 12.4554 1.94158L11.24 0.712649C10.792 0.260359 10.1661 0.00372314 9.51097 0.00372314C8.85582 0.00372314 8.22991 0.260359 7.78195 0.712649L6.56657 1.94158C6.01646 2.49779 5.30392 2.88667 4.51956 3.05879L2.78874 3.44051C2.15051 3.58091 1.60234 3.9652 1.27458 4.50197C0.94685 5.03873 0.868841 5.67994 1.05911 6.27312L1.57581 7.88258C1.81075 8.6112 1.81075 9.38955 1.57581 10.1182L1.05911 11.7277C0.868803 12.321 0.946812 12.9623 1.27454 13.4993C1.60223 14.0362 2.15043 14.4207 2.78874 14.5614L4.51956 14.9431C5.30392 15.1153 6.01646 15.5041 6.56657 16.0603L7.78195 17.2846ZM8.16714 1.04765C8.5148 0.694693 9.00301 0.495855 9.51295 0.499515L9.51051 0.496023C10.0206 0.493736 10.5082 0.693823 10.8551 1.04765L12.0692 2.27891C12.6902 2.90747 13.4948 3.34701 14.3807 3.54159L16.1127 3.92329C16.6087 4.03353 17.034 4.3326 17.2887 4.74978C17.543 5.16691 17.6041 5.66509 17.4575 6.12631L16.9408 7.73577C16.6762 8.55898 16.6762 9.43795 16.9408 10.2612L17.4575 11.8706C17.6033 12.3315 17.5419 12.8291 17.2876 13.2457C17.0329 13.6623 16.6079 13.961 16.1127 14.0713L14.3819 14.4484C13.4957 14.6419 12.6907 15.0816 12.0705 15.711L10.8551 16.9388C10.5063 17.2895 10.02 17.4883 9.51112 17.4883C9.00221 17.4883 8.51587 17.2895 8.16714 16.9388L6.95176 15.711C6.33025 15.0843 5.52557 14.6467 4.64029 14.4542L2.90822 14.0725C2.41302 13.9619 1.98807 13.6629 1.73373 13.2461C1.47943 12.8292 1.4183 12.3315 1.56485 11.8706L2.08032 10.2565C2.34604 9.43348 2.34604 8.55413 2.08032 7.73111L1.56485 6.12166C1.4183 5.66074 1.47943 5.16306 1.73373 4.74619C1.98807 4.32936 2.41302 4.03032 2.90822 3.91981L4.64029 3.5381C5.52592 3.34299 6.3304 2.90353 6.95176 2.27541L8.16714 1.04765Z" fill="#46B978"/>
<path d="M1.43555 10.5544L1.86488 10.9384L2.08138 10.2635C2.3471 9.44045 2.3471 8.56113 2.08138 7.73808L1.86488 7.06195L1.43555 7.44252L1.57702 7.88241C1.81196 8.61102 1.81196 9.38938 1.57702 10.118L1.43555 10.5544Z" fill="#46B978"/>
<path d="M4.64107 3.53993C5.52674 3.34483 6.33122 2.90537 6.95254 2.27725L7.46306 1.76171L6.89966 1.59995L6.5675 1.93627C6.01739 2.49248 5.30486 2.88136 4.52053 3.05348L4.0469 3.15822L3.91406 3.69937L4.64107 3.53993Z" fill="#46B978"/>
<path d="M12.0698 2.27725C12.6908 2.90581 13.4954 3.34536 14.3813 3.53993L15.1082 3.69937L14.9742 3.15822L14.5007 3.05348C13.7167 2.88115 13.0046 2.49228 12.4549 1.93627L12.1215 1.59995L11.5605 1.76171L12.0698 2.27725Z" fill="#46B978"/>
<path d="M14.3813 14.4509C13.4958 14.6437 12.6911 15.0817 12.0698 15.7089L11.5605 16.2291L12.1227 16.3909L12.4561 16.0545C13.0059 15.4985 13.7179 15.1096 14.5019 14.9373L14.9753 14.8326L15.1097 14.2903L14.3813 14.4509Z" fill="#46B978"/>
<path d="M17.4443 10.1143C17.2106 9.38546 17.2106 8.60745 17.4443 7.87868L17.5883 7.43876L17.1591 7.05823L16.9426 7.73436C16.678 8.55756 16.678 9.43654 16.9426 10.2597L17.1564 10.9394L17.5883 10.5553L17.4443 10.1143Z" fill="#46B978"/>
<g style="mix-blend-mode:multiply" opacity="0.66">
<mask id="mask12_2912_31784" style="mask-type:luminance" maskUnits="userSpaceOnUse" x="15" y="11" width="4" height="4">
<g style="mix-blend-mode:multiply" opacity="0.66">
<path d="M18.0657 11.0922H15.5488V14.7126H18.0657V11.0922Z" fill="white"/>
</g>
</mask>
<g mask="url(#mask12_2912_31784)">
<mask id="mask13_2912_31784" style="mask-type:luminance" maskUnits="userSpaceOnUse" x="15" y="11" width="4" height="4">
<g style="mix-blend-mode:multiply" opacity="0.66">
<path fill-rule="evenodd" clip-rule="evenodd" d="M17.3281 11.4738L17.4576 11.8753C17.6038 12.3364 17.5427 12.8342 17.288 13.2511C17.0337 13.668 16.6084 13.9669 16.1128 14.0772L15.6798 14.1726L15.5469 14.7137L16.2323 14.5636C16.8688 14.421 17.4152 14.0358 17.7413 13.4991C18.0674 12.9625 18.1445 12.3222 17.9543 11.7298L17.7501 11.0933L17.3281 11.4738Z" fill="white"/>
</g>
</mask>
<g mask="url(#mask13_2912_31784)">
<path d="M13.9668 13.8808L16.3234 10.1216L19.9245 12.142L17.5682 15.9011L13.9668 13.8808Z" fill="url(#paint6_linear_2912_31784)"/>
</g>
</g>
</g>
<path d="M6.95254 15.7136C6.33153 15.085 5.52693 14.6455 4.64107 14.4508L3.91406 14.2903L4.0469 14.8326L4.52053 14.9373C5.30589 15.1117 6.01854 15.5035 6.5675 16.0627L6.89966 16.399L7.46306 16.2372L6.95254 15.7136Z" fill="#46B978"/>
<g style="mix-blend-mode:multiply" opacity="0.66">
<mask id="mask14_2912_31784" style="mask-type:luminance" maskUnits="userSpaceOnUse" x="0" y="11" width="4" height="4">
<g style="mix-blend-mode:multiply" opacity="0.66">
<path d="M3.47199 11.0922H0.955078V14.7126H3.47199V11.0922Z" fill="white"/>
</g>
</mask>
<g mask="url(#mask14_2912_31784)">
<mask id="mask15_2912_31784" style="mask-type:luminance" maskUnits="userSpaceOnUse" x="0" y="11" width="4" height="4">
<g style="mix-blend-mode:multiply" opacity="0.66">
<path fill-rule="evenodd" clip-rule="evenodd" d="M1.05714 11.7287C0.866871 12.322 0.944842 12.9634 1.27257 13.5003C1.6003 14.0372 2.14846 14.4217 2.78677 14.5624L3.47197 14.7126L3.33787 14.1714L2.90609 14.076C2.4112 13.9654 1.98648 13.6666 1.73218 13.25C1.47788 12.8335 1.4166 12.336 1.56277 11.8753L1.68575 11.4738L1.25646 11.0933L1.05714 11.7287Z" fill="white"/>
</g>
</mask>
<g mask="url(#mask15_2912_31784)">
<path d="M0.509766 14.6755L0.887017 10.8576L3.82538 11.1174L3.44813 14.9354L0.509766 14.6755Z" fill="url(#paint7_linear_2912_31784)"/>
</g>
</g>
</g>
<g style="mix-blend-mode:multiply" opacity="0.66">
<mask id="mask16_2912_31784" style="mask-type:luminance" maskUnits="userSpaceOnUse" x="7" y="16" width="5" height="3">
<g style="mix-blend-mode:multiply" opacity="0.66">
<path d="M11.7195 16.6445H7.30078V18.0015H11.7195V16.6445Z" fill="white"/>
</g>
</mask>
<g mask="url(#mask16_2912_31784)">
<mask id="mask17_2912_31784" style="mask-type:luminance" maskUnits="userSpaceOnUse" x="7" y="16" width="5" height="2">
<g style="mix-blend-mode:multiply" opacity="0.66">
<path fill-rule="evenodd" clip-rule="evenodd" d="M7.30078 16.8051L7.78178 17.2903C8.22974 17.7426 8.85565 17.9993 9.5108 17.9993C10.1659 17.9993 10.7918 17.7426 11.2398 17.2903L11.7196 16.8051L11.1573 16.6479L10.8547 16.954C10.506 17.3047 10.0197 17.5035 9.5108 17.5035C9.00189 17.5035 8.51555 17.3047 8.16682 16.954L7.86299 16.6479L7.30078 16.8051Z" fill="white"/>
</g>
</mask>
<g mask="url(#mask17_2912_31784)">
<path d="M6.88281 16.7665L11.3047 15.4169L12.1402 17.8668L7.71826 19.2164L6.88281 16.7665Z" fill="url(#paint8_linear_2912_31784)"/>
</g>
</g>
</g>
<g style="mix-blend-mode:multiply" opacity="0.66">
<mask id="mask18_2912_31784" style="mask-type:luminance" maskUnits="userSpaceOnUse" x="7" y="0" width="5" height="2">
<g style="mix-blend-mode:multiply" opacity="0.66">
<path d="M11.7195 0H7.30078V1.35695H11.7195V0Z" fill="white"/>
</g>
</mask>
<g mask="url(#mask18_2912_31784)">
<mask id="mask19_2912_31784" style="mask-type:luminance" maskUnits="userSpaceOnUse" x="7" y="-1" width="5" height="3">
<g style="mix-blend-mode:multiply" opacity="0.66">
<path fill-rule="evenodd" clip-rule="evenodd" d="M7.78178 0.709153L7.30078 1.19561L7.86299 1.35737L8.16682 1.04781C8.51555 0.697156 9.00189 0.498317 9.5108 0.498317C10.0197 0.498317 10.506 0.697156 10.8547 1.04781L11.1573 1.35388L11.7196 1.19211L11.2398 0.70566C10.7918 0.25337 10.1659 -0.00326538 9.5108 -0.00326538C8.85565 -0.00326538 8.22974 0.25337 7.78178 0.70566" fill="white"/>
</g>
</mask>
<g mask="url(#mask19_2912_31784)">
<path d="M7.19922 1.34239L7.32156 -0.300262L11.8202 -0.000428468L11.6979 1.64222L7.19922 1.34239Z" fill="url(#paint9_linear_2912_31784)"/>
</g>
</g>
</g>
<g style="mix-blend-mode:multiply" opacity="0.66">
<mask id="mask20_2912_31784" style="mask-type:luminance" maskUnits="userSpaceOnUse" x="0" y="3" width="4" height="4">
<g style="mix-blend-mode:multiply" opacity="0.66">
<path d="M3.47199 3.28564H0.955078V6.90611H3.47199V3.28564Z" fill="white"/>
</g>
</mask>
<g mask="url(#mask20_2912_31784)">
<mask id="mask21_2912_31784" style="mask-type:luminance" maskUnits="userSpaceOnUse" x="0" y="3" width="4" height="4">
<g style="mix-blend-mode:multiply" opacity="0.66">
<path fill-rule="evenodd" clip-rule="evenodd" d="M2.78672 3.4362C2.14852 3.57661 1.60036 3.96092 1.2726 4.49764C0.944869 5.03441 0.86686 5.67565 1.05713 6.2688L1.26133 6.90538L1.69067 6.526L1.56764 6.12451C1.42109 5.66359 1.48218 5.16591 1.73652 4.74904C1.99086 4.33217 2.41581 4.03317 2.91097 3.92267L3.34279 3.82724L3.47685 3.28491L2.78672 3.4362Z" fill="white"/>
</g>
</mask>
<g mask="url(#mask21_2912_31784)">
<path d="M-1.04688 5.17L2.11574 2.05554L5.38306 5.02487L2.22048 8.13932L-1.04688 5.17Z" fill="url(#paint10_linear_2912_31784)"/>
</g>
</g>
</g>
<g style="mix-blend-mode:multiply" opacity="0.66">
<mask id="mask22_2912_31784" style="mask-type:luminance" maskUnits="userSpaceOnUse" x="15" y="3" width="4" height="4">
<g style="mix-blend-mode:multiply" opacity="0.66">
<path d="M18.0657 3.28564H15.5488V6.90611H18.0657V3.28564Z" fill="white"/>
</g>
</mask>
<g mask="url(#mask22_2912_31784)">
<mask id="mask23_2912_31784" style="mask-type:luminance" maskUnits="userSpaceOnUse" x="15" y="3" width="4" height="4">
<g style="mix-blend-mode:multiply" opacity="0.66">
<path fill-rule="evenodd" clip-rule="evenodd" d="M15.5488 3.28491L15.6817 3.82722L16.1147 3.92265C16.6099 4.03316 17.0349 4.33219 17.2892 4.74903C17.5435 5.1659 17.6046 5.66358 17.458 6.1245L17.3289 6.52598L17.7581 6.90537L17.959 6.26878C18.1487 5.67663 18.0716 5.03646 17.7455 4.5C17.4194 3.96353 16.8734 3.57852 16.2365 3.4362L15.5488 3.28491Z" fill="white"/>
</g>
</mask>
<g mask="url(#mask23_2912_31784)">
<path d="M14.4434 3.61211L17.9146 2.56845L19.2587 6.56899L15.787 7.61264L14.4434 3.61211Z" fill="url(#paint11_linear_2912_31784)"/>
</g>
</g>
</g>
<path d="M8.21963 14.1486L13.1218 9.51102C13.2641 9.37692 13.3441 9.19477 13.3441 9.00479C13.3441 8.81481 13.2641 8.63262 13.1218 8.49856L11.5484 7.0101L7.87147 10.4897C7.59739 10.749 7.4434 11.1006 7.44336 11.4673V13.8437C7.4437 14.0181 7.55489 14.1752 7.72523 14.2419C7.89556 14.3086 8.09156 14.2718 8.22207 14.1486" fill="#46B978"/>
<g style="mix-blend-mode:multiply" opacity="0.66">
<mask id="mask24_2912_31784" style="mask-type:luminance" maskUnits="userSpaceOnUse" x="7" y="7" width="7" height="8">
<g style="mix-blend-mode:multiply" opacity="0.66">
<path d="M13.3418 7.00342H7.43945V14.27H13.3418V7.00342Z" fill="white"/>
</g>
</mask>
<g mask="url(#mask24_2912_31784)">
<mask id="mask25_2912_31784" style="mask-type:luminance" maskUnits="userSpaceOnUse" x="7" y="7" width="7" height="8">
<g style="mix-blend-mode:multiply" opacity="0.66">
<path fill-rule="evenodd" clip-rule="evenodd" d="M7.87147 10.4937C7.59739 10.7529 7.4434 11.1046 7.44336 11.4712V13.8476C7.4437 14.022 7.55489 14.1791 7.72523 14.2458C7.89553 14.3125 8.09156 14.2757 8.22207 14.1526L13.1242 9.51495C13.2645 9.38296 13.344 9.20401 13.3457 9.01685V8.99941C13.344 8.81264 13.2644 8.63407 13.1242 8.50249L11.5484 7.01404L7.87147 10.4937Z" fill="white"/>
</g>
</mask>
<g mask="url(#mask25_2912_31784)">
<path d="M3.60742 9.95091L10.9966 4.27203L17.177 11.4692L9.78794 17.1481L3.60742 9.95091Z" fill="url(#paint12_linear_2912_31784)"/>
</g>
</g>
</g>
<path d="M7.43945 4.15806V6.53446C7.44006 6.90113 7.59497 7.2525 7.87001 7.51085L11.5494 10.9917L13.1228 9.50324C13.2651 9.36914 13.3451 9.18699 13.3451 8.99697C13.3451 8.80699 13.2651 8.62484 13.1228 8.49074L8.21813 3.85315C8.08762 3.73001 7.89162 3.69322 7.72128 3.75992C7.55099 3.82662 7.4398 3.98369 7.43945 4.15806Z" fill="#06675E"/>
<defs>
<linearGradient id="paint0_linear_2912_31784" x1="5.4285" y1="4.2411" x2="8.80436" y2="3.41332" gradientUnits="userSpaceOnUse">
<stop stop-color="white"/>
<stop offset="1" stop-color="#1F754A"/>
</linearGradient>
<linearGradient id="paint1_linear_2912_31784" x1="14.3876" y1="3.11341" x2="14.8489" y2="0.897717" gradientUnits="userSpaceOnUse">
<stop stop-color="white"/>
<stop offset="1" stop-color="#1F754A"/>
</linearGradient>
<linearGradient id="paint2_linear_2912_31784" x1="1.98111" y1="10.9901" x2="2.94831" y2="7.62283" gradientUnits="userSpaceOnUse">
<stop stop-color="white"/>
<stop offset="1" stop-color="#1F754A"/>
</linearGradient>
<linearGradient id="paint3_linear_2912_31784" x1="19.7792" y1="7.89116" x2="18.6504" y2="5.29264" gradientUnits="userSpaceOnUse">
<stop stop-color="white"/>
<stop offset="1" stop-color="#1F754A"/>
</linearGradient>
<linearGradient id="paint4_linear_2912_31784" x1="5.51591" y1="17.6137" x2="6.57228" y2="15.7307" gradientUnits="userSpaceOnUse">
<stop stop-color="white"/>
<stop offset="1" stop-color="#1F754A"/>
</linearGradient>
<linearGradient id="paint5_linear_2912_31784" x1="14.3256" y1="17.7471" x2="16.4008" y2="16.1071" gradientUnits="userSpaceOnUse">
<stop stop-color="white"/>
<stop offset="1" stop-color="#1F754A"/>
</linearGradient>
<linearGradient id="paint6_linear_2912_31784" x1="17.3601" y1="14.8827" x2="18.9287" y2="12.087" gradientUnits="userSpaceOnUse">
<stop stop-color="white"/>
<stop offset="1" stop-color="#1F754A"/>
</linearGradient>
<linearGradient id="paint7_linear_2912_31784" x1="3.80881" y1="14.037" x2="4.09055" y2="10.8511" gradientUnits="userSpaceOnUse">
<stop stop-color="white"/>
<stop offset="1" stop-color="#1F754A"/>
</linearGradient>
<linearGradient id="paint8_linear_2912_31784" x1="8.34501" y1="18.8552" x2="12.0562" y2="17.5897" gradientUnits="userSpaceOnUse">
<stop stop-color="white"/>
<stop offset="1" stop-color="#1F754A"/>
</linearGradient>
<linearGradient id="paint9_linear_2912_31784" x1="12.2108" y1="0.852571" x2="12.3152" y2="-0.713114" gradientUnits="userSpaceOnUse">
<stop stop-color="white"/>
<stop offset="1" stop-color="#1F754A"/>
</linearGradient>
<linearGradient id="paint10_linear_2912_31784" x1="2.89094" y1="6.93997" x2="5.23788" y2="4.35747" gradientUnits="userSpaceOnUse">
<stop stop-color="white"/>
<stop offset="1" stop-color="#1F754A"/>
</linearGradient>
<linearGradient id="paint11_linear_2912_31784" x1="19.6959" y1="4.95828" x2="18.361" y2="0.519037" gradientUnits="userSpaceOnUse">
<stop stop-color="white"/>
<stop offset="1" stop-color="#1F754A"/>
</linearGradient>
<linearGradient id="paint12_linear_2912_31784" x1="10.7874" y1="11.7302" x2="12.2032" y2="10.5144" gradientUnits="userSpaceOnUse">
<stop stop-color="white"/>
<stop offset="0.66" stop-color="#1F754A"/>
<stop offset="1" stop-color="#1F754A"/>
</linearGradient>
</defs>
</svg>
