<svg width="301" height="275" viewBox="0 0 301 275" fill="none" xmlns="http://www.w3.org/2000/svg">
<path d="M156.8 19.115C117.83 0.777502 92.5681 27.8271 85.1875 45.8196L83.948 49.9151C86.6051 85.407 50.5186 98.3557 31.3289 99.7113C1.80617 105.922 1.56014 136.189 6.23457 149.252C13.7754 170.325 21.2419 185.114 22.8411 191.768C21.0697 225.19 24.5632 238.968 26.5314 241.679C47.7878 280.129 85.5769 271.256 101.814 262.013C130.156 240.422 152.987 242.172 160.86 245.746C189.202 265.858 214.739 267.189 223.965 265.34C271.791 249.369 263.328 210.87 253.118 193.617C240.423 159.9 258.408 126.577 268.987 114.13C298.509 68.8776 283.01 41.5439 271.57 33.5336C259.761 19.3368 225.072 32.9174 205.882 42.0369C192.228 46.1037 164.427 26.7556 156.8 19.115Z" fill="#77B0A9"/>
<path d="M162.761 10.3529C122.271 -8.69808 96.0229 19.4041 88.3543 38.0966L87.0666 42.3515C89.8272 79.2244 52.3332 92.6769 32.3949 94.0853C1.72059 100.538 1.46497 131.982 6.32173 145.554C14.1567 167.447 21.9145 182.811 23.576 189.724C21.7356 224.446 25.3654 238.76 27.4103 241.577C49.4958 281.523 88.7589 272.305 105.63 262.702C135.077 240.271 158.799 242.089 166.978 245.802C196.426 266.697 222.959 268.079 232.545 266.159C282.237 249.566 273.444 209.569 262.836 191.645C249.646 156.616 268.331 121.996 279.323 109.065C309.997 62.0518 293.893 33.6546 282.007 25.3325C269.737 10.5834 233.695 24.6924 213.757 34.1667C199.57 38.3918 170.685 18.2909 162.761 10.3529Z" stroke="#77B0A9" stroke-width="8"/>
<mask id="path-3-outside-1_2771_93519" maskUnits="userSpaceOnUse" x="113" y="85" width="72" height="115" fill="black">
<rect fill="white" x="113" y="85" width="72" height="115"/>
<path d="M160.662 164.933V163.548C160.626 157.121 160.023 152.007 158.851 148.207C157.643 144.408 155.939 141.354 153.737 139.045C151.536 136.702 148.854 134.553 145.694 132.6C143.528 131.251 141.592 129.777 139.888 128.179C138.148 126.545 136.781 124.734 135.786 122.746C134.792 120.722 134.295 118.467 134.295 115.981C134.295 113.175 134.952 110.743 136.266 108.683C137.58 106.624 139.355 105.026 141.592 103.889C143.794 102.753 146.262 102.185 148.996 102.185C151.518 102.185 153.915 102.735 156.188 103.836C158.425 104.901 160.289 106.535 161.781 108.737C163.237 110.903 164.053 113.655 164.231 116.993H183.194C183.016 110.246 181.383 104.599 178.293 100.054C175.168 95.5085 171.049 92.0994 165.935 89.8267C160.786 87.554 155.104 86.4176 148.89 86.4176C142.107 86.4176 136.141 87.6072 130.992 89.9865C125.808 92.3658 121.777 95.7571 118.901 100.161C115.989 104.528 114.533 109.713 114.533 115.714C114.533 119.763 115.19 123.385 116.504 126.581C117.782 129.777 119.611 132.618 121.99 135.104C124.369 137.589 127.192 139.809 130.46 141.762C133.336 143.538 135.697 145.384 137.544 147.302C139.355 149.219 140.705 151.474 141.592 154.067C142.445 156.624 142.888 159.784 142.924 163.548V164.933H160.662ZM151.393 198.172C154.589 198.172 157.342 197.036 159.65 194.763C161.958 192.49 163.112 189.72 163.112 186.453C163.112 183.257 161.958 180.523 159.65 178.25C157.342 175.977 154.589 174.841 151.393 174.841C148.233 174.841 145.499 175.977 143.19 178.25C140.847 180.523 139.675 183.257 139.675 186.453C139.675 188.619 140.225 190.59 141.326 192.366C142.391 194.141 143.812 195.562 145.587 196.627C147.327 197.657 149.263 198.172 151.393 198.172Z"/>
</mask>
<path d="M160.662 164.933V163.548C160.626 157.121 160.023 152.007 158.851 148.207C157.643 144.408 155.939 141.354 153.737 139.045C151.536 136.702 148.854 134.553 145.694 132.6C143.528 131.251 141.592 129.777 139.888 128.179C138.148 126.545 136.781 124.734 135.786 122.746C134.792 120.722 134.295 118.467 134.295 115.981C134.295 113.175 134.952 110.743 136.266 108.683C137.58 106.624 139.355 105.026 141.592 103.889C143.794 102.753 146.262 102.185 148.996 102.185C151.518 102.185 153.915 102.735 156.188 103.836C158.425 104.901 160.289 106.535 161.781 108.737C163.237 110.903 164.053 113.655 164.231 116.993H183.194C183.016 110.246 181.383 104.599 178.293 100.054C175.168 95.5085 171.049 92.0994 165.935 89.8267C160.786 87.554 155.104 86.4176 148.89 86.4176C142.107 86.4176 136.141 87.6072 130.992 89.9865C125.808 92.3658 121.777 95.7571 118.901 100.161C115.989 104.528 114.533 109.713 114.533 115.714C114.533 119.763 115.19 123.385 116.504 126.581C117.782 129.777 119.611 132.618 121.99 135.104C124.369 137.589 127.192 139.809 130.46 141.762C133.336 143.538 135.697 145.384 137.544 147.302C139.355 149.219 140.705 151.474 141.592 154.067C142.445 156.624 142.888 159.784 142.924 163.548V164.933H160.662ZM151.393 198.172C154.589 198.172 157.342 197.036 159.65 194.763C161.958 192.49 163.112 189.72 163.112 186.453C163.112 183.257 161.958 180.523 159.65 178.25C157.342 175.977 154.589 174.841 151.393 174.841C148.233 174.841 145.499 175.977 143.19 178.25C140.847 180.523 139.675 183.257 139.675 186.453C139.675 188.619 140.225 190.59 141.326 192.366C142.391 194.141 143.812 195.562 145.587 196.627C147.327 197.657 149.263 198.172 151.393 198.172Z" fill="white"/>
<path d="M160.662 164.933H161.662V165.933H160.662V164.933ZM160.662 163.548L161.662 163.543V163.548H160.662ZM158.851 148.207L159.804 147.905L159.806 147.913L158.851 148.207ZM153.737 139.045L153.014 139.736L153.008 139.73L153.737 139.045ZM145.694 132.6L145.168 133.451L145.165 133.449L145.694 132.6ZM139.888 128.179L139.204 128.909L139.203 128.908L139.888 128.179ZM135.786 122.746L134.892 123.193L134.889 123.187L135.786 122.746ZM136.266 108.683L135.423 108.145L136.266 108.683ZM141.592 103.889L142.051 104.778L142.045 104.781L141.592 103.889ZM156.188 103.836L155.758 104.739L155.752 104.736L156.188 103.836ZM161.781 108.737L162.608 108.176L162.61 108.179L161.781 108.737ZM164.231 116.993V117.993H163.283L163.232 117.046L164.231 116.993ZM183.194 116.993L184.194 116.967L184.221 117.993H183.194V116.993ZM178.293 100.054L179.117 99.4874L179.12 99.4918L178.293 100.054ZM165.935 89.8267L166.339 88.9118L166.342 88.9129L165.935 89.8267ZM130.992 89.9865L131.412 90.8943L131.409 90.8954L130.992 89.9865ZM118.901 100.161L119.738 100.707L119.733 100.715L118.901 100.161ZM116.504 126.581L117.428 126.201L117.432 126.21L116.504 126.581ZM121.99 135.104L122.712 134.412L121.99 135.104ZM130.46 141.762L130.973 140.904L130.979 140.907L130.985 140.911L130.46 141.762ZM137.544 147.302L138.264 146.608L138.271 146.615L137.544 147.302ZM141.592 154.067L142.538 153.743L142.541 153.751L141.592 154.067ZM142.924 163.548L143.924 163.539V163.548H142.924ZM142.924 164.933V165.933H141.924V164.933H142.924ZM159.65 194.763L158.948 194.05L159.65 194.763ZM159.65 178.25L158.948 178.963L159.65 178.25ZM143.19 178.25L143.892 178.963L143.886 178.968L143.19 178.25ZM141.326 192.366L142.176 191.839L142.18 191.845L142.183 191.851L141.326 192.366ZM145.587 196.627L145.078 197.488L145.073 197.485L145.587 196.627ZM160.662 164.933H159.662V163.548H160.662H161.662V164.933H160.662ZM160.662 163.548L159.662 163.554C159.627 157.172 159.026 152.169 157.895 148.502L158.851 148.207L159.806 147.913C161.019 151.846 161.626 157.07 161.662 163.543L160.662 163.548ZM158.851 148.207L157.898 148.51C156.725 144.82 155.088 141.91 153.014 139.736L153.737 139.045L154.461 138.355C156.79 140.797 158.562 143.995 159.804 147.905L158.851 148.207ZM153.737 139.045L153.008 139.73C150.875 137.459 148.265 135.365 145.168 133.451L145.694 132.6L146.22 131.749C149.444 133.742 152.196 135.944 154.466 138.361L153.737 139.045ZM145.694 132.6L145.165 133.449C142.948 132.068 140.96 130.555 139.204 128.909L139.888 128.179L140.572 127.449C142.224 128.999 144.107 130.433 146.223 131.751L145.694 132.6ZM139.888 128.179L139.203 128.908C137.384 127.2 135.943 125.295 134.892 123.193L135.786 122.746L136.681 122.299C137.618 124.174 138.912 125.891 140.572 127.45L139.888 128.179ZM135.786 122.746L134.889 123.187C133.82 121.012 133.295 118.604 133.295 115.981H134.295H135.295C135.295 118.33 135.764 120.431 136.684 122.305L135.786 122.746ZM134.295 115.981H133.295C133.295 113.014 133.992 110.389 135.423 108.145L136.266 108.683L137.109 109.221C135.912 111.097 135.295 113.337 135.295 115.981H134.295ZM136.266 108.683L135.423 108.145C136.835 105.931 138.747 104.213 141.139 102.998L141.592 103.889L142.045 104.781C139.963 105.839 138.324 107.316 137.109 109.221L136.266 108.683ZM141.592 103.889L141.134 103.001C143.491 101.784 146.119 101.185 148.996 101.185V102.185V103.185C146.405 103.185 144.097 103.722 142.051 104.778L141.592 103.889ZM148.996 102.185V101.185C151.669 101.185 154.215 101.769 156.623 102.936L156.188 103.836L155.752 104.736C153.615 103.701 151.367 103.185 148.996 103.185V102.185ZM156.188 103.836L156.617 102.933C159.027 104.081 161.025 105.838 162.608 108.176L161.781 108.737L160.953 109.297C159.553 107.232 157.822 105.722 155.758 104.739L156.188 103.836ZM161.781 108.737L162.61 108.179C164.192 110.531 165.045 113.471 165.229 116.94L164.231 116.993L163.232 117.046C163.062 113.839 162.281 111.274 160.951 109.294L161.781 108.737ZM164.231 116.993V115.993H183.194V116.993V117.993H164.231V116.993ZM183.194 116.993L182.194 117.019C182.021 110.42 180.426 104.97 177.466 100.616L178.293 100.054L179.12 99.4918C182.34 104.228 184.012 110.072 184.194 116.967L183.194 116.993ZM178.293 100.054L177.469 100.621C174.45 96.2295 170.477 92.9394 165.529 90.7405L165.935 89.8267L166.342 88.9129C171.621 91.2594 175.886 94.7876 179.117 99.4874L178.293 100.054ZM165.935 89.8267L165.532 90.7415C160.522 88.5306 154.98 87.4176 148.89 87.4176V86.4176V85.4176C155.229 85.4176 161.05 86.5774 166.339 88.9118L165.935 89.8267ZM148.89 86.4176V87.4176C142.224 87.4176 136.406 88.5865 131.412 90.8943L130.992 89.9865L130.573 89.0787C135.877 86.628 141.99 85.4176 148.89 85.4176V86.4176ZM130.992 89.9865L131.409 90.8954C126.381 93.2029 122.502 96.4752 119.738 100.707L118.901 100.161L118.063 99.6136C121.052 95.039 125.234 91.5286 130.575 89.0776L130.992 89.9865ZM118.901 100.161L119.733 100.715C116.945 104.896 115.533 109.881 115.533 115.714H114.533H113.533C113.533 109.545 115.032 104.161 118.069 99.6058L118.901 100.161ZM114.533 115.714H115.533C115.533 119.654 116.172 123.144 117.428 126.201L116.504 126.581L115.579 126.961C114.207 123.626 113.533 119.871 113.533 115.714H114.533ZM116.504 126.581L117.432 126.21C118.663 129.287 120.422 132.019 122.712 134.412L121.99 135.104L121.268 135.795C118.8 133.217 116.901 130.267 115.575 126.952L116.504 126.581ZM121.99 135.104L122.712 134.412C125.024 136.827 127.774 138.992 130.973 140.904L130.46 141.762L129.946 142.62C126.61 140.626 123.715 138.352 121.268 135.795L121.99 135.104ZM130.46 141.762L130.985 140.911C133.914 142.72 136.346 144.617 138.264 146.608L137.544 147.302L136.824 147.995C135.048 146.152 132.757 144.356 129.934 142.613L130.46 141.762ZM137.544 147.302L138.271 146.615C140.184 148.641 141.606 151.021 142.538 153.743L141.592 154.067L140.646 154.391C139.803 151.928 138.526 149.798 136.817 147.988L137.544 147.302ZM141.592 154.067L142.541 153.751C143.436 156.437 143.888 159.708 143.924 163.539L142.924 163.548L141.924 163.558C141.889 159.86 141.453 156.81 140.644 154.383L141.592 154.067ZM142.924 163.548H143.924V164.933H142.924H141.924V163.548H142.924ZM142.924 164.933V163.933H160.662V164.933V165.933H142.924V164.933ZM151.393 198.172V197.172C154.323 197.172 156.824 196.142 158.948 194.05L159.65 194.763L160.351 195.475C157.859 197.929 154.856 199.172 151.393 199.172V198.172ZM159.65 194.763L158.948 194.05C161.064 191.967 162.112 189.455 162.112 186.453H163.112H164.112C164.112 189.985 162.852 193.013 160.351 195.475L159.65 194.763ZM163.112 186.453H162.112C162.112 183.529 161.069 181.05 158.948 178.963L159.65 178.25L160.351 177.537C162.848 179.995 164.112 182.985 164.112 186.453H163.112ZM159.65 178.25L158.948 178.963C156.824 176.871 154.323 175.841 151.393 175.841V174.841V173.841C154.856 173.841 157.859 175.083 160.351 177.537L159.65 178.25ZM151.393 174.841V175.841C148.503 175.841 146.018 176.869 143.892 178.963L143.19 178.25L142.489 177.537C144.979 175.086 147.963 173.841 151.393 173.841V174.841ZM143.19 178.25L143.886 178.968C141.732 181.057 140.675 183.534 140.675 186.453H139.675H138.675C138.675 182.98 139.961 179.989 142.494 177.532L143.19 178.25ZM139.675 186.453H140.675C140.675 188.44 141.177 190.228 142.176 191.839L141.326 192.366L140.476 192.893C139.273 190.953 138.675 188.798 138.675 186.453H139.675ZM141.326 192.366L142.183 191.851C143.164 193.486 144.467 194.789 146.102 195.77L145.587 196.627L145.073 197.485C143.157 196.335 141.618 194.797 140.468 192.88L141.326 192.366ZM145.587 196.627L146.097 195.767C147.674 196.7 149.432 197.172 151.393 197.172V198.172V199.172C149.094 199.172 146.981 198.614 145.078 197.488L145.587 196.627Z" fill="#77B0A9" mask="url(#path-3-outside-1_2771_93519)"/>
</svg>
