<svg width="358" height="160" viewBox="0 0 358 160" fill="none" xmlns="http://www.w3.org/2000/svg">
<g clip-path="url(#clip0_4050_26588)">
<path d="M30.6152 50.6165L30.5875 50.6226C30.1559 50.7507 29.7249 50.8818 29.2946 51.0161C29.1919 51.0481 29.1061 51.12 29.0562 51.2161C29.0064 51.3122 28.9964 51.4246 29.0286 51.5285C29.0608 51.6324 29.1324 51.7193 29.2278 51.7702C29.3232 51.821 29.4345 51.8316 29.5372 51.7996C29.9677 51.6662 30.3957 51.5362 30.8212 51.4095C30.8727 51.3962 30.921 51.3728 30.9633 51.3406C31.0057 51.3084 31.0413 51.268 31.0682 51.2218C31.0951 51.1756 31.1127 51.1245 31.1199 51.0714C31.1272 51.0182 31.124 50.9641 31.1106 50.9121C31.0972 50.8601 31.0738 50.8112 31.0417 50.7683C31.0096 50.7253 30.9695 50.6892 30.9236 50.6618C30.8778 50.6344 30.8271 50.6164 30.7744 50.6089C30.7218 50.6013 30.6682 50.6042 30.6168 50.6175L30.6152 50.6165Z" fill="white" fill-opacity="0.3"/>
<path d="M121.783 20.5739C121.54 20.6282 121.296 20.6938 121.058 20.768C120.955 20.8002 120.869 20.8723 120.82 20.9685C120.77 21.0647 120.76 21.1771 120.792 21.281C120.825 21.3849 120.897 21.4717 120.992 21.5224C121.087 21.573 121.199 21.5834 121.301 21.5512C122.112 21.2947 122.96 21.1734 123.81 21.1921C123.918 21.1951 124.021 21.1551 124.099 21.0807C124.177 21.0062 124.222 20.9036 124.224 20.7953C124.227 20.6869 124.187 20.5818 124.113 20.5031C124.039 20.4243 123.937 20.3783 123.829 20.3752C123.142 20.3569 122.454 20.4236 121.783 20.5739ZM118.689 21.9293C118.64 21.9406 118.593 21.961 118.551 21.9896C117.775 22.5182 117.087 23.1665 116.511 23.911C116.476 23.9529 116.449 24.0017 116.434 24.0543C116.418 24.1069 116.412 24.1623 116.418 24.2171C116.424 24.2719 116.441 24.325 116.467 24.3732C116.494 24.4215 116.53 24.4638 116.573 24.4977C116.616 24.5316 116.666 24.5563 116.718 24.5704C116.771 24.5846 116.826 24.5878 116.88 24.5799C116.934 24.572 116.986 24.5532 117.032 24.5245C117.079 24.4958 117.119 24.458 117.151 24.4131C117.675 23.7368 118.302 23.1476 119.007 22.6667C119.085 22.6134 119.142 22.5343 119.168 22.443C119.194 22.3516 119.188 22.2538 119.15 22.1664C119.112 22.079 119.046 22.0075 118.961 21.9642C118.877 21.9209 118.781 21.9086 118.689 21.9293ZM126.341 20.9508C126.257 20.9695 126.181 21.0148 126.125 21.0801C126.068 21.1454 126.034 21.2273 126.027 21.314C126.02 21.4006 126.04 21.4874 126.085 21.5618C126.13 21.6361 126.197 21.6941 126.277 21.7274C127.066 22.0588 127.8 22.5119 128.452 23.0706C128.535 23.1405 128.641 23.1747 128.748 23.1656C128.855 23.1566 128.953 23.105 129.022 23.0222C129.091 22.9394 129.124 22.8323 129.115 22.7243C129.105 22.6163 129.054 22.5164 128.972 22.4464C128.255 21.8337 127.45 21.3363 126.584 20.9721C126.505 20.9393 126.418 20.9327 126.336 20.9533L126.341 20.9508ZM115.523 26.1448C115.452 26.1605 115.387 26.1951 115.334 26.2449C115.281 26.2948 115.243 26.3581 115.223 26.4282C114.989 27.2319 114.909 28.0736 114.985 28.909C114.996 29.0322 115.01 29.1562 115.028 29.2779C115.043 29.3856 115.1 29.4829 115.186 29.5485C115.272 29.6141 115.38 29.6426 115.487 29.6277C115.594 29.6128 115.69 29.5557 115.754 29.469C115.819 29.3824 115.846 29.2732 115.831 29.1655C115.816 29.0557 115.803 28.947 115.794 28.8374C115.726 28.1048 115.795 27.3665 115.998 26.6613C116.013 26.6098 116.018 26.5557 116.012 26.5023C116.006 26.4489 115.99 26.3971 115.964 26.3499C115.939 26.3027 115.904 26.2611 115.862 26.2274C115.821 26.1936 115.773 26.1685 115.722 26.1534C115.655 26.1352 115.585 26.1345 115.519 26.1513L115.523 26.1448ZM130.416 24.3689C130.365 24.3804 130.318 24.401 130.275 24.4297C130.231 24.46 130.194 24.4988 130.165 24.5439C130.136 24.5889 130.116 24.6393 130.107 24.6921C130.097 24.7449 130.098 24.7992 130.109 24.8517C130.121 24.9043 130.142 24.9541 130.172 24.9984C130.663 25.7175 131.067 26.4922 131.378 27.3064C131.396 27.3586 131.424 27.4067 131.46 27.4479C131.496 27.489 131.541 27.5224 131.59 27.5459C131.639 27.5694 131.693 27.5826 131.748 27.5847C131.802 27.5868 131.856 27.5778 131.907 27.5581C131.958 27.5385 132.004 27.5087 132.043 27.4704C132.082 27.4322 132.113 27.3863 132.134 27.3356C132.155 27.2849 132.166 27.2304 132.166 27.1753C132.165 27.1202 132.154 27.0658 132.132 27.0152C131.799 26.1411 131.366 25.3091 130.841 24.5364C130.794 24.4681 130.728 24.4157 130.651 24.3863C130.574 24.3568 130.49 24.3516 130.411 24.3714L130.416 24.3689ZM69.7344 41.1998C69.6295 41.222 69.5378 41.2853 69.4795 41.376C69.4211 41.4666 69.4009 41.5772 69.4233 41.6832C69.4457 41.7893 69.5089 41.8823 69.5989 41.9416C69.689 42.001 69.7985 42.0219 69.9034 41.9997C70.7299 41.8361 71.6088 41.6971 72.5191 41.5874C72.6261 41.5744 72.7234 41.5191 72.7896 41.4334C72.8558 41.3478 72.8855 41.239 72.8721 41.1309C72.8588 41.0228 72.8035 40.9243 72.7184 40.857C72.6334 40.7897 72.5255 40.7592 72.4185 40.7722C71.4892 40.8834 70.589 41.0258 69.7428 41.1938L69.7344 41.1998ZM67.1361 41.8443L67.1071 41.8507C66.2388 42.1121 65.3864 42.4241 64.5542 42.7852C64.504 42.8053 64.4583 42.8355 64.4199 42.8738C64.3815 42.9122 64.3512 42.9579 64.3307 43.0084C64.3102 43.0589 64.3 43.1131 64.3006 43.1678C64.3012 43.2224 64.3127 43.2764 64.3343 43.3266C64.356 43.3768 64.3874 43.4222 64.4266 43.46C64.4659 43.4978 64.5122 43.5273 64.5629 43.5468C64.6136 43.5662 64.6675 43.5752 64.7216 43.5732C64.7757 43.5713 64.8287 43.5583 64.8777 43.5352C65.6828 43.186 66.5077 42.8848 67.3481 42.6332C67.4519 42.6059 67.5405 42.5381 67.5945 42.4446C67.6484 42.3511 67.6633 42.2397 67.6359 42.1347C67.6084 42.0298 67.5408 41.9399 67.448 41.885C67.3552 41.8301 67.2448 41.8145 67.141 41.8417L67.1361 41.8443ZM38.3989 48.6103C38.2942 48.6336 38.2033 48.6981 38.146 48.7894C38.0887 48.8808 38.0698 48.9915 38.0934 49.0973C38.117 49.2031 38.1813 49.2953 38.272 49.3536C38.3627 49.4119 38.4724 49.4315 38.5771 49.4081C39.4425 49.2149 40.3242 49.039 41.1916 48.8732C41.2969 48.853 41.3899 48.7913 41.4499 48.7017C41.5099 48.6121 41.5321 48.502 41.5116 48.3955C41.4911 48.289 41.4296 48.1948 41.3406 48.1338C41.2516 48.0728 41.1425 48.0498 41.0371 48.07C40.1631 48.2373 39.2773 48.4197 38.3963 48.6109L38.3989 48.6103ZM35.7897 49.2124L35.7818 49.2142C34.9136 49.4262 34.0374 49.6512 33.1779 49.8836C33.1266 49.8974 33.0786 49.9214 33.0365 49.954C32.9944 49.9867 32.9592 50.0274 32.9328 50.0739C32.9063 50.1203 32.8893 50.1717 32.8825 50.2249C32.8758 50.2781 32.8795 50.3322 32.8934 50.3841C32.9074 50.436 32.9313 50.4847 32.9638 50.5273C32.9963 50.5699 33.0368 50.6057 33.0829 50.6326C33.1291 50.6595 33.18 50.677 33.2327 50.6841C33.2854 50.6912 33.339 50.6877 33.3903 50.6738C34.2432 50.4429 35.1129 50.2194 35.9747 50.0102C36.0792 49.9859 36.1696 49.9207 36.2261 49.8289C36.2827 49.7371 36.3007 49.6262 36.2762 49.5205C36.2517 49.4149 36.1867 49.3233 36.0955 49.2658C36.0043 49.2082 35.8944 49.1895 35.79 49.2138L35.7897 49.2124ZM75.0467 40.5455C74.9939 40.553 74.9432 40.5709 74.8974 40.5982C74.8516 40.6255 74.8117 40.6616 74.7798 40.7046C74.7479 40.7475 74.7247 40.7965 74.7116 40.8486C74.6985 40.9007 74.6957 40.9549 74.7033 41.0082C74.711 41.0615 74.7289 41.1128 74.7561 41.1592C74.7834 41.2056 74.8194 41.2461 74.8621 41.2785C74.9047 41.3109 74.9533 41.3346 75.0049 41.3481C75.0566 41.3616 75.1103 41.3647 75.163 41.3572C75.6233 41.3284 76.1004 41.307 76.5827 41.2901C76.9936 41.2751 77.4057 41.2655 77.8184 41.2585C77.872 41.2584 77.9251 41.2475 77.9745 41.2265C78.0239 41.2055 78.0686 41.1747 78.106 41.136C78.1434 41.0973 78.1727 41.0515 78.1924 41.0011C78.212 40.9508 78.2215 40.8969 78.2203 40.8427C78.2191 40.7885 78.2072 40.735 78.1854 40.6854C78.1635 40.6358 78.1321 40.591 78.0931 40.5537C78.054 40.5164 78.0079 40.4872 77.9577 40.468C77.9074 40.4487 77.8539 40.4398 77.8003 40.4416C77.3807 40.4487 76.9594 40.4604 76.5456 40.4747C76.0565 40.4917 75.5728 40.5146 75.1066 40.5419C75.0851 40.5439 75.0637 40.5473 75.0426 40.552L75.0467 40.5455ZM116.199 31.3744C116.138 31.3881 116.081 31.416 116.032 31.4558C115.984 31.4957 115.945 31.5464 115.919 31.6039C115.894 31.6615 115.882 31.7244 115.884 31.7876C115.887 31.8509 115.904 31.9127 115.934 31.9683C116.389 32.7949 116.962 33.5495 117.635 34.2075C117.672 34.2508 117.717 34.286 117.768 34.3108C117.818 34.3355 117.874 34.3494 117.93 34.3514C117.986 34.3534 118.042 34.3435 118.094 34.3223C118.146 34.3012 118.193 34.2693 118.233 34.2287C118.272 34.1881 118.302 34.1396 118.322 34.0864C118.341 34.0331 118.349 33.9763 118.346 33.9196C118.342 33.8629 118.327 33.8074 118.301 33.7568C118.275 33.7063 118.239 33.6616 118.196 33.6258C117.578 33.0246 117.052 32.3348 116.634 31.5788C116.591 31.5029 116.525 31.4428 116.446 31.4071C116.367 31.3715 116.279 31.3623 116.195 31.3809L116.199 31.3744ZM43.6583 47.602C43.553 47.6225 43.4603 47.6845 43.4006 47.7743C43.3409 47.8641 43.3191 47.9743 43.3399 48.0807C43.3608 48.1872 43.4226 48.2811 43.5117 48.3418C43.6009 48.4025 43.7102 48.4251 43.8154 48.4046C44.6929 48.2589 45.5808 48.1234 46.4535 47.9998C46.56 47.9847 46.656 47.9275 46.7204 47.8407C46.7848 47.7539 46.8123 47.6447 46.7969 47.5371C46.7815 47.4294 46.7244 47.3322 46.6381 47.2668C46.5519 47.2013 46.4437 47.173 46.3372 47.1881C45.4576 47.3119 44.5635 47.4445 43.6804 47.5957L43.6583 47.602ZM48.9628 46.8573C48.8569 46.8752 48.7626 46.9348 48.7006 47.0232C48.6387 47.1115 48.6141 47.2212 48.6323 47.3283C48.6505 47.4353 48.7101 47.5308 48.7978 47.5938C48.8856 47.6568 48.9943 47.6822 49.1002 47.6643C49.7073 47.5943 50.3228 47.5308 50.9291 47.4695C51.1994 47.4435 51.4741 47.4185 51.7532 47.3943C51.8066 47.3897 51.8585 47.3746 51.906 47.3497C51.9534 47.3248 51.9956 47.2907 52.0299 47.2494C52.0643 47.208 52.0902 47.1601 52.1062 47.1085C52.1222 47.057 52.128 47.0027 52.1232 46.9487C52.1184 46.8948 52.1031 46.8423 52.0783 46.7942C52.0534 46.7462 52.0195 46.7034 51.9783 46.6686C51.9372 46.6337 51.8897 46.6073 51.8386 46.5909C51.7874 46.5745 51.7336 46.5684 51.6803 46.573C51.4013 46.5976 51.1223 46.6221 50.8469 46.6501C50.2348 46.71 49.6156 46.7757 49.0043 46.8452L48.9628 46.8573ZM62.2458 43.9987C62.201 44.0082 62.1581 44.0253 62.119 44.0493C61.7282 44.2902 61.3448 44.5461 60.9776 44.8124C60.6104 45.0787 60.2499 45.3686 59.9027 45.6751C59.8221 45.7462 59.7729 45.8469 59.766 45.955C59.759 46.0631 59.7949 46.1698 59.8657 46.2515C59.9365 46.3333 60.0365 46.3834 60.1435 46.391C60.2506 46.3985 60.356 46.3627 60.4367 46.2916C60.7642 46.0021 61.1051 45.7235 61.4519 45.4771C61.7988 45.2307 62.1689 44.9778 62.5428 44.7477C62.6249 44.6973 62.6863 44.6189 62.7161 44.5266C62.7459 44.4343 62.742 44.3342 62.7053 44.2442C62.6686 44.1542 62.6013 44.0802 62.5157 44.0355C62.43 43.9908 62.3315 43.9784 62.2379 44.0005L62.2458 43.9987ZM80.4041 40.4521C80.3069 40.4731 80.2209 40.5295 80.1626 40.6105C80.1043 40.6916 80.0777 40.7917 80.0879 40.8917C80.0981 40.9916 80.1443 41.0845 80.2179 41.1525C80.2914 41.2205 80.387 41.2588 80.4865 41.2602C81.3703 41.2793 82.2662 41.3152 83.1484 41.3639C83.254 41.3679 83.3569 41.33 83.4348 41.2582C83.5128 41.1864 83.5597 41.0865 83.5655 40.9799C83.5713 40.8733 83.5356 40.7685 83.4659 40.6878C83.3962 40.6072 83.2981 40.5571 83.1927 40.5484C82.2982 40.4941 81.3926 40.4576 80.4989 40.4379C80.4652 40.4405 80.4319 40.4475 80.4 40.4586L80.4041 40.4521ZM54.3015 46.4204C54.1947 46.4341 54.0978 46.4901 54.0322 46.5761C53.9666 46.6621 53.9376 46.771 53.9517 46.879C53.9657 46.9869 54.0216 47.085 54.107 47.1517C54.1925 47.2184 54.3005 47.2481 54.4073 47.2345C55.3518 47.2036 56.2173 47.2086 57.0556 47.2462C57.1097 47.2506 57.1641 47.244 57.2155 47.2266C57.267 47.2093 57.3144 47.1817 57.3549 47.1455C57.3955 47.1092 57.4284 47.0651 57.4516 47.0156C57.4748 46.9662 57.488 46.9125 57.4902 46.8577C57.4924 46.8029 57.4837 46.7482 57.4646 46.6968C57.4455 46.6454 57.4163 46.5984 57.3789 46.5585C57.3414 46.5186 57.2964 46.4867 57.2466 46.4647C57.1968 46.4427 57.1431 46.4311 57.0888 46.4305C56.2294 46.3906 55.3419 46.3864 54.3771 46.4189C54.3527 46.4194 54.3284 46.4225 54.3046 46.4281L54.3015 46.4204ZM132.34 29.3769C132.241 29.3988 132.153 29.4578 132.096 29.5422C132.038 29.6266 132.013 29.7301 132.028 29.8321C132.152 30.6946 132.176 31.5686 132.097 32.4357C132.091 32.5412 132.126 32.6451 132.194 32.7255C132.263 32.806 132.359 32.8567 132.463 32.8671C132.567 32.8774 132.671 32.8466 132.753 32.7811C132.835 32.7155 132.888 32.6204 132.902 32.5156C132.987 31.5842 132.963 30.6454 132.83 29.7186C132.814 29.6116 132.757 29.515 132.672 29.4499C132.586 29.3847 132.478 29.3565 132.372 29.3712L132.34 29.3769ZM85.7541 40.7709C85.6594 40.7912 85.5753 40.8451 85.517 40.923C85.4586 41.0008 85.43 41.0973 85.4363 41.195C85.4425 41.2926 85.4833 41.385 85.5511 41.4551C85.6189 41.5253 85.7093 41.5687 85.8058 41.5774C86.6885 41.6595 87.5801 41.769 88.4534 41.8895C88.5585 41.9015 88.6639 41.8715 88.747 41.8059C88.8301 41.7403 88.8843 41.6443 88.898 41.5385C88.9118 41.4327 88.8839 41.3255 88.8204 41.2398C88.757 41.1541 88.663 41.0968 88.5585 41.08C87.6754 40.9589 86.7746 40.8515 85.8809 40.7635C85.8368 40.7618 85.7928 40.7674 85.7506 40.78L85.7541 40.7709ZM59.6493 46.6922C59.5579 46.7133 59.4767 46.766 59.4198 46.8411C59.3628 46.9162 59.3336 47.0091 59.3371 47.1039C59.3406 47.1987 59.3767 47.2894 59.4391 47.3606C59.5015 47.4317 59.5864 47.4788 59.6792 47.4939C60.5443 47.6258 61.3994 47.8188 62.2384 48.0714C62.2894 48.0876 62.3431 48.0934 62.3963 48.0885C62.4496 48.0836 62.5012 48.0681 62.5484 48.0429C62.5955 48.0177 62.6372 47.9833 62.6711 47.9417C62.7049 47.9 62.7302 47.852 62.7455 47.8003C62.7608 47.7487 62.7657 47.6944 62.7601 47.6407C62.7545 47.587 62.7384 47.5348 62.7128 47.4873C62.6872 47.4398 62.6525 47.3979 62.6108 47.364C62.569 47.33 62.5211 47.3047 62.4697 47.2896C61.5941 47.0259 60.7015 46.8245 59.7986 46.6868C59.7472 46.6817 59.6953 46.6867 59.6458 46.7013L59.6493 46.6922ZM58.2408 47.533C58.1509 47.553 58.0706 47.6035 58.0132 47.676C57.4425 48.4003 56.9381 49.1755 56.5061 49.9922C56.4811 50.0395 56.4656 50.0913 56.4605 50.1448C56.4554 50.1982 56.4608 50.2522 56.4763 50.3036C56.4918 50.355 56.5172 50.4029 56.551 50.4445C56.5848 50.4862 56.6264 50.5207 56.6733 50.5461C56.7202 50.5716 56.7716 50.5875 56.8245 50.5929C56.8775 50.5983 56.9309 50.5931 56.9817 50.5777C57.0326 50.5623 57.0799 50.5368 57.1209 50.5029C57.162 50.4689 57.196 50.4271 57.2209 50.3798C57.6294 49.6065 58.1065 48.8724 58.6464 48.1866C58.698 48.1206 58.7281 48.04 58.7326 47.9558C58.737 47.8717 58.7155 47.788 58.6711 47.7164C58.6267 47.6449 58.5615 47.5888 58.4845 47.556C58.4074 47.5231 58.3223 47.5151 58.2408 47.533ZM91.0663 41.5015C90.9745 41.5216 90.8927 41.5733 90.8349 41.6479C90.777 41.7224 90.7468 41.8151 90.7494 41.91C90.752 42.0049 90.7871 42.0961 90.8489 42.168C90.9107 42.2398 90.9952 42.2877 91.088 42.3036C91.4128 42.3609 91.7367 42.4198 92.0614 42.4827C92.5894 42.584 93.1287 42.6926 93.7066 42.8134C93.7597 42.8275 93.815 42.8305 93.8691 42.8223C93.9233 42.8141 93.9752 42.7949 94.0217 42.7659C94.0681 42.7368 94.1083 42.6984 94.1396 42.6531C94.1708 42.6078 94.1927 42.5566 94.2037 42.5024C94.2147 42.4483 94.2148 42.3923 94.2037 42.3381C94.1927 42.2838 94.1709 42.2323 94.1397 42.1867C94.1084 42.1411 94.0683 42.1023 94.0218 42.0728C93.9754 42.0432 93.9235 42.0235 93.8693 42.0148C93.2889 41.8889 92.7424 41.7792 92.2073 41.6767C91.8794 41.614 91.5511 41.5538 91.2225 41.4959C91.1688 41.4902 91.1145 41.4952 91.0628 41.5106L91.0663 41.5015ZM119.962 35.1509C119.908 35.1637 119.856 35.1878 119.811 35.2219C119.766 35.256 119.729 35.2992 119.702 35.3488C119.648 35.4422 119.634 35.5534 119.662 35.6579C119.689 35.7624 119.757 35.8517 119.849 35.9063C120.324 36.1856 120.818 36.4294 121.328 36.6357C121.672 36.7755 122.028 36.8984 122.392 37.0166C122.495 37.0492 122.606 37.0394 122.701 36.9892C122.796 36.939 122.868 36.8527 122.899 36.7491C122.931 36.6455 122.921 36.5333 122.871 36.437C122.821 36.3407 122.735 36.2683 122.632 36.2357C122.291 36.129 121.953 36.0076 121.63 35.8773C121.157 35.6847 120.699 35.4581 120.258 35.1994C120.167 35.148 120.06 35.1339 119.959 35.1601L119.962 35.1509ZM168.316 24.912C168.271 24.922 168.228 24.9396 168.189 24.964C167.436 25.4283 166.664 25.8868 165.896 26.3263C165.803 26.3797 165.735 26.4684 165.707 26.5729C165.679 26.6773 165.693 26.7891 165.746 26.8834C165.799 26.9778 165.887 27.0471 165.991 27.076C166.095 27.105 166.205 27.0913 166.298 27.0379C167.073 26.594 167.853 26.1324 168.614 25.6607C168.696 25.6103 168.758 25.532 168.788 25.4397C168.817 25.3474 168.814 25.2473 168.777 25.1573C168.74 25.0673 168.673 24.9933 168.587 24.9486C168.502 24.9039 168.403 24.8915 168.309 24.9135L168.316 24.912ZM64.7536 48.279C64.6721 48.2969 64.5982 48.34 64.5421 48.4022C64.486 48.4643 64.4504 48.5426 64.4402 48.6263C64.43 48.7099 64.4456 48.7948 64.4851 48.8694C64.5245 48.9439 64.5857 49.0044 64.6604 49.0425C65.1485 49.2925 65.621 49.5726 66.0752 49.8812C66.3371 50.0613 66.59 50.2546 66.8328 50.4603C66.8735 50.495 66.9206 50.5212 66.9712 50.5375C67.0219 50.5538 67.0752 50.5599 67.1281 50.5554C67.1811 50.5509 67.2325 50.5359 67.2796 50.5113C67.3267 50.4867 67.3685 50.4529 67.4026 50.412C67.4367 50.371 67.4624 50.3236 67.4784 50.2725C67.4943 50.2213 67.5 50.1675 67.4953 50.1141C67.4906 50.0606 67.4756 50.0085 67.451 49.9608C67.4264 49.9132 67.3928 49.8708 67.352 49.8362C67.086 49.6119 66.8086 49.4017 66.521 49.2064C66.0388 48.8781 65.537 48.5803 65.0184 48.3148C64.9343 48.2767 64.84 48.2687 64.751 48.2921L64.7536 48.279ZM96.3167 42.6047C96.2269 42.6244 96.1465 42.6744 96.0888 42.7465C96.0312 42.8186 95.9997 42.9085 95.9995 43.0014C95.9994 43.0943 96.0305 43.1846 96.0879 43.2575C96.1453 43.3304 96.2255 43.3814 96.3152 43.4022C97.1142 43.5915 97.9137 43.7852 98.7137 43.9835L98.9239 44.0343C99.0284 44.0595 99.1383 44.0417 99.2295 43.985C99.2747 43.9569 99.3138 43.9201 99.3448 43.8766C99.3758 43.8332 99.3979 43.7839 99.41 43.7317C99.4221 43.6795 99.4239 43.6254 99.4153 43.5724C99.4067 43.5194 99.3878 43.4686 99.3598 43.4228C99.3317 43.3771 99.2951 43.3374 99.2519 43.3059C99.2087 43.2744 99.1599 43.2517 99.1081 43.2393L98.898 43.1885C98.098 42.9948 97.2972 42.8013 96.4955 42.6081C96.4351 42.5967 96.3729 42.6001 96.3141 42.6179L96.3167 42.6047ZM163.658 27.5758C163.624 27.5834 163.59 27.5956 163.559 27.612C162.777 28.0266 161.977 28.4328 161.182 28.8213C161.134 28.8446 161.091 28.8772 161.056 28.9172C161.021 28.9573 160.994 29.0039 160.976 29.0546C160.959 29.1053 160.952 29.1589 160.955 29.2125C160.959 29.2661 160.972 29.3185 160.995 29.3668C161.019 29.4152 161.051 29.4584 161.091 29.4942C161.131 29.5299 161.177 29.5574 161.227 29.5751C161.278 29.5928 161.331 29.6003 161.384 29.5973C161.437 29.5942 161.489 29.5807 161.537 29.5574C162.339 29.1645 163.152 28.7527 163.937 28.3372C164.025 28.2916 164.092 28.2153 164.128 28.1226C164.163 28.0299 164.164 27.9272 164.129 27.8338C164.095 27.7404 164.028 27.6626 163.942 27.6151C163.855 27.5676 163.754 27.5536 163.658 27.5758ZM131.835 34.707C131.767 34.722 131.705 34.7543 131.653 34.8008C131.602 34.8472 131.563 34.9063 131.541 34.9724C131.315 35.635 131.036 36.2774 130.705 36.893L130.451 36.9077C130.349 36.9122 130.252 36.9557 130.181 37.0296C130.109 37.1034 130.068 37.202 130.066 37.3054C130.064 37.4089 130.101 37.5095 130.169 37.5869C130.238 37.6644 130.332 37.7129 130.434 37.7226C130.469 37.7977 130.525 37.8607 130.595 37.9032C130.687 37.9586 130.798 37.9748 130.901 37.9482C131.005 37.9217 131.094 37.8544 131.149 37.7614C131.165 37.7354 131.181 37.7081 131.196 37.6811L131.313 37.6731C131.934 37.6307 132.565 37.5792 133.186 37.5215C133.293 37.5114 133.392 37.4585 133.461 37.3744C133.529 37.2904 133.562 37.1821 133.552 37.0733C133.541 36.9646 133.488 36.8644 133.405 36.7947C133.321 36.7249 133.214 36.6915 133.106 36.7016C132.623 36.7466 132.134 36.7875 131.649 36.8232C131.903 36.3156 132.124 35.792 132.311 35.2555C132.334 35.1869 132.339 35.1133 132.324 35.0421C132.31 34.9709 132.277 34.9047 132.229 34.8505C132.181 34.7962 132.12 34.7558 132.051 34.7333C131.983 34.7109 131.91 34.7072 131.84 34.7227L131.835 34.707ZM125.034 36.784C124.942 36.8054 124.86 36.859 124.803 36.9353C124.746 37.0116 124.718 37.1059 124.723 37.2016C124.727 37.2973 124.766 37.3883 124.83 37.4589C124.895 37.5294 124.982 37.5749 125.076 37.5874C125.978 37.7058 126.886 37.7701 127.795 37.7802C127.849 37.7837 127.904 37.7759 127.956 37.7575C128.007 37.739 128.054 37.7102 128.094 37.6727C128.134 37.6352 128.166 37.5899 128.188 37.5394C128.211 37.489 128.222 37.4345 128.223 37.3792C128.224 37.324 128.213 37.2691 128.192 37.218C128.171 37.1668 128.14 37.1204 128.101 37.0816C128.062 37.0428 128.016 37.0124 127.965 36.9921C127.914 36.9719 127.859 36.9624 127.804 36.9641C126.927 36.9538 126.05 36.8913 125.179 36.7769C125.13 36.7771 125.082 36.786 125.036 36.8032L125.034 36.784ZM55.7484 52.2695C55.6784 52.2849 55.6137 52.3188 55.5611 52.3679C55.5085 52.4169 55.4698 52.4793 55.449 52.5486C55.1827 53.4411 55.0177 54.3618 54.9571 55.2929C54.9541 55.3986 54.9918 55.5016 55.0622 55.5802C55.1327 55.6587 55.2305 55.7068 55.335 55.7142C55.4395 55.7216 55.5426 55.6878 55.6226 55.6199C55.7026 55.552 55.7532 55.4552 55.7639 55.35C55.8222 54.4799 55.9785 53.6197 56.2297 52.7861C56.2499 52.7179 56.252 52.6455 56.2359 52.576C56.2198 52.5066 56.186 52.4425 56.1379 52.3902C56.0898 52.3378 56.029 52.2991 55.9616 52.2777C55.8942 52.2563 55.8225 52.2531 55.7537 52.2683L55.7484 52.2695ZM158.843 29.9186C158.817 29.9245 158.792 29.933 158.767 29.944C157.96 30.3044 157.132 30.6595 156.316 30.9939C156.265 31.0123 156.218 31.0411 156.178 31.0785C156.137 31.1159 156.105 31.1611 156.083 31.2114C156.061 31.2617 156.049 31.3161 156.048 31.3713C156.048 31.4265 156.058 31.4813 156.079 31.5325C156.099 31.5836 156.13 31.63 156.169 31.6689C156.208 31.7078 156.254 31.7384 156.305 31.7587C156.356 31.7791 156.411 31.7889 156.465 31.7875C156.52 31.786 156.574 31.7734 156.623 31.7505C157.451 31.4121 158.282 31.056 159.097 30.6912C159.189 30.6502 159.261 30.5763 159.302 30.4838C159.342 30.3913 159.347 30.2869 159.315 30.1907C159.284 30.0945 159.218 30.0134 159.131 29.9632C159.043 29.9129 158.941 29.8971 158.843 29.9186ZM153.886 31.947C153.868 31.9496 153.85 31.9537 153.832 31.959C153.005 32.2667 152.158 32.5645 151.319 32.847C151.268 32.8639 151.221 32.8907 151.181 32.9259C151.141 32.9612 151.108 33.0041 151.084 33.0522C151.06 33.1004 151.046 33.1528 151.042 33.2066C151.038 33.2604 151.045 33.3144 151.062 33.3657C151.079 33.4169 151.106 33.4643 151.141 33.5051C151.176 33.546 151.219 33.5795 151.266 33.6037C151.314 33.628 151.366 33.6425 151.42 33.6465C151.473 33.6505 151.526 33.6439 151.577 33.627C152.426 33.3424 153.28 33.0402 154.115 32.7294C154.218 32.6992 154.305 32.6288 154.356 32.5336C154.407 32.4385 154.419 32.3265 154.389 32.2222C154.358 32.1179 154.288 32.0299 154.194 31.9775C154.099 31.9252 153.988 31.9128 153.885 31.943L153.886 31.947ZM101.533 43.8511C101.443 43.8707 101.363 43.9207 101.305 43.9928C101.247 44.0649 101.216 44.1548 101.216 44.2477C101.215 44.3406 101.247 44.431 101.304 44.5038C101.361 44.5767 101.442 44.6277 101.531 44.6486C102.506 44.875 103.366 45.0668 104.161 45.2327C104.266 45.2545 104.376 45.2333 104.465 45.1737C104.554 45.1141 104.616 45.0209 104.638 44.9148C104.659 44.8086 104.637 44.6981 104.578 44.6075C104.518 44.517 104.426 44.4538 104.321 44.432C103.533 44.2673 102.678 44.0783 101.706 43.8529C101.648 43.8458 101.589 43.8517 101.534 43.8703L101.533 43.8511ZM135.719 36.417C135.613 36.4355 135.519 36.4956 135.457 36.5842C135.396 36.6728 135.372 36.7827 135.391 36.8896C135.409 36.9965 135.469 37.0917 135.557 37.1542C135.645 37.2168 135.754 37.2416 135.86 37.2231C136.745 37.1107 137.641 36.9818 138.525 36.8402C138.631 36.8232 138.726 36.7643 138.789 36.6765C138.851 36.5886 138.877 36.479 138.859 36.3718C138.842 36.2646 138.783 36.1686 138.696 36.1048C138.609 36.041 138.5 36.0148 138.394 36.0318C137.518 36.1729 136.631 36.2998 135.756 36.4101L135.719 36.417ZM148.802 33.6672L148.775 33.6734C147.925 33.9272 147.063 34.1701 146.208 34.3944C146.105 34.4218 146.016 34.4898 145.962 34.5833C145.909 34.6769 145.894 34.7884 145.921 34.8933C145.949 34.9982 146.017 35.088 146.11 35.1427C146.203 35.1975 146.313 35.2129 146.417 35.1855C147.279 34.9581 148.151 34.7132 149.007 34.4562C149.111 34.4292 149.2 34.3615 149.254 34.2681C149.308 34.1747 149.323 34.0633 149.296 33.9583C149.269 33.8533 149.201 33.7634 149.109 33.7083C149.016 33.6532 148.905 33.6375 148.802 33.6645L148.802 33.6672ZM141.003 35.5875C140.898 35.6095 140.806 35.6727 140.747 35.7632C140.689 35.8538 140.669 35.9643 140.691 36.0704C140.713 36.1765 140.776 36.2696 140.866 36.3291C140.956 36.3886 141.065 36.4097 141.17 36.3877C142.048 36.217 142.931 36.0295 143.807 35.8296C143.912 35.8062 144.003 35.7418 144.06 35.6505C144.118 35.5591 144.136 35.4484 144.113 35.3426C144.089 35.2368 144.025 35.1446 143.934 35.0863C143.844 35.028 143.734 35.0084 143.629 35.0317C142.765 35.2247 141.892 35.4197 141.021 35.5834L141.003 35.5875ZM68.807 51.7576C68.7547 51.7692 68.7051 51.7911 68.6613 51.8223C68.6179 51.8532 68.5811 51.8924 68.5528 51.9378C68.5246 51.9832 68.5055 52.0338 68.4967 52.0867C68.4878 52.1397 68.4894 52.1939 68.5014 52.2463C68.5133 52.2987 68.5354 52.3483 68.5663 52.3922C69.0659 53.1046 69.481 53.8737 69.8028 54.6835C69.8436 54.784 69.9221 54.8642 70.0211 54.9065C70.1202 54.9488 70.2316 54.9497 70.3309 54.909C70.4302 54.8683 70.5093 54.7893 70.5507 54.6895C70.5921 54.5897 70.5925 54.4771 70.5518 54.3766C70.2066 53.5067 69.7607 52.6807 69.2235 51.9159C69.1768 51.8519 69.1126 51.803 69.039 51.775C68.9653 51.7471 68.8853 51.7414 68.8087 51.7586L68.807 51.7576ZM129.138 39.3453C129.055 39.3641 128.979 39.4093 128.923 39.4744C128.349 40.1347 127.722 40.7458 127.048 41.3016C126.966 41.3701 126.913 41.4692 126.903 41.577C126.892 41.6848 126.925 41.7926 126.993 41.8766C127.061 41.9606 127.16 42.014 127.266 42.0249C127.373 42.0359 127.48 42.0036 127.563 41.9351C128.27 41.3502 128.929 40.7077 129.532 40.0141C129.588 39.9494 129.622 39.8684 129.63 39.7827C129.638 39.697 129.618 39.6109 129.574 39.5367C129.531 39.4626 129.465 39.4041 129.387 39.3698C129.309 39.3354 129.222 39.3268 129.138 39.3453ZM106.787 44.9507C106.694 44.9705 106.612 45.0222 106.553 45.0971C106.495 45.1719 106.465 45.2651 106.468 45.3605C106.47 45.4559 106.506 45.5475 106.569 45.6193C106.631 45.6912 106.716 45.7388 106.81 45.7539L107.059 45.7945C107.886 45.9309 108.703 46.0432 109.482 46.133C109.589 46.1451 109.696 46.1139 109.779 46.0463C109.863 45.9787 109.916 45.8802 109.928 45.7725C109.939 45.6648 109.908 45.5566 109.84 45.4719C109.773 45.3872 109.675 45.3328 109.569 45.3207C108.797 45.2348 107.993 45.1225 107.18 44.9898L106.934 44.9486C106.886 44.9405 106.837 44.9414 106.789 44.9515L106.787 44.9507ZM55.4306 57.6359C55.3278 57.6588 55.238 57.7214 55.1805 57.8104C55.123 57.8994 55.1023 58.0077 55.1227 58.1123C55.1426 58.2014 55.1628 58.2918 55.1821 58.3783C55.2729 58.7841 55.3881 59.184 55.5269 59.5759C55.6752 59.9881 55.8567 60.3874 56.0697 60.7698C56.124 60.8605 56.211 60.9265 56.3123 60.9539C56.4136 60.9814 56.5212 60.9681 56.6127 60.917C56.7041 60.8658 56.7722 60.7807 56.8025 60.6796C56.8329 60.5785 56.8232 60.4693 56.7754 60.3749C56.5859 60.0313 56.4241 59.6729 56.2917 59.3032C56.1642 58.9426 56.0585 58.5745 55.9752 58.2012C55.9565 58.1174 55.9381 58.0349 55.9197 57.9525C55.8989 57.8463 55.8374 57.7525 55.7485 57.6917C55.6596 57.631 55.5506 57.6082 55.4455 57.6284L55.4306 57.6359ZM112.113 45.5371C112.018 45.5584 111.933 45.6143 111.875 45.6943C111.817 45.7743 111.79 45.873 111.799 45.9718C111.809 46.0707 111.853 46.163 111.924 46.2316C111.996 46.3001 112.089 46.3402 112.187 46.3443C113.115 46.3844 114.028 46.387 114.9 46.3529C115.004 46.3442 115.1 46.2953 115.169 46.2164C115.237 46.1376 115.273 46.0348 115.269 45.9295C115.264 45.8243 115.219 45.7248 115.144 45.6517C115.069 45.5785 114.968 45.5375 114.864 45.5372C114.014 45.5706 113.124 45.5669 112.218 45.5278C112.184 45.5268 112.149 45.5297 112.116 45.5365L112.113 45.5371ZM125.026 42.764C124.985 42.7734 124.945 42.7893 124.908 42.8113C124.157 43.2585 123.374 43.649 122.565 43.9795C122.47 44.0233 122.397 44.1024 122.359 44.2001C122.321 44.2979 122.321 44.4069 122.361 44.5044C122.401 44.6019 122.476 44.6804 122.571 44.7235C122.666 44.7667 122.774 44.7712 122.872 44.7361C123.717 44.3921 124.535 43.985 125.319 43.5181C125.402 43.4693 125.466 43.3917 125.497 43.2994C125.529 43.2072 125.526 43.1065 125.491 43.0155C125.455 42.9245 125.388 42.8493 125.303 42.8035C125.217 42.7577 125.118 42.7444 125.024 42.7659L125.026 42.764ZM117.461 45.3119C117.355 45.3311 117.262 45.3918 117.201 45.4808C117.14 45.5699 117.116 45.6798 117.136 45.7865C117.155 45.8933 117.216 45.9881 117.304 46.05C117.393 46.112 117.502 46.136 117.607 46.1169C118.264 46.0262 118.913 45.9091 119.536 45.7699C119.782 45.715 120.032 45.6592 120.274 45.5926C120.325 45.5792 120.374 45.5557 120.416 45.5234C120.458 45.4911 120.494 45.4507 120.521 45.4045C120.547 45.3583 120.565 45.3071 120.572 45.2539C120.579 45.2008 120.576 45.1467 120.563 45.0947C120.549 45.0427 120.526 44.9939 120.493 44.951C120.461 44.9081 120.421 44.8719 120.375 44.8447C120.329 44.8174 120.279 44.7995 120.226 44.792C120.173 44.7845 120.12 44.7875 120.068 44.8009C119.833 44.8617 119.593 44.9181 119.353 44.9732C118.75 45.1077 118.123 45.2214 117.488 45.3087L117.461 45.3119ZM70.7707 56.7486C70.6721 56.7701 70.5851 56.8283 70.5271 56.9115C70.469 56.9948 70.444 57.0971 70.4569 57.1984C70.5717 58.0528 70.5547 58.9194 70.4064 59.7673C70.3968 59.8201 70.3976 59.8743 70.4087 59.9268C70.4198 59.9794 70.4411 60.0292 70.4712 60.0736C70.5014 60.1179 70.5399 60.1559 70.5845 60.1852C70.6291 60.2146 70.679 60.2349 70.7312 60.2449C70.7835 60.2548 70.8372 60.2543 70.8891 60.2433C70.9411 60.2323 70.9904 60.2111 71.0341 60.1808C71.0779 60.1506 71.1153 60.1119 71.1442 60.067C71.1731 60.0221 71.1929 59.9718 71.2025 59.919C71.3678 58.9878 71.3881 58.0356 71.2627 57.0966C71.2491 56.9892 71.1938 56.8913 71.109 56.8247C71.0242 56.758 70.9168 56.7279 70.8105 56.7411L70.7707 56.7486ZM57.9861 62.2965C57.9141 62.3127 57.848 62.3484 57.7949 62.3999C57.7418 62.4514 57.7037 62.5167 57.6848 62.5887C57.6659 62.6606 57.6668 62.7365 57.6876 62.8081C57.7083 62.8798 57.748 62.9444 57.8024 62.995C58.4887 63.6351 59.2601 64.1753 60.0939 64.5998C60.1415 64.6259 60.1938 64.6421 60.2477 64.6475C60.3016 64.6528 60.3559 64.6472 60.4075 64.631C60.4591 64.6147 60.5069 64.5881 60.548 64.5528C60.5892 64.5176 60.6228 64.4743 60.6471 64.4255C60.6713 64.3767 60.6856 64.3235 60.689 64.269C60.6925 64.2145 60.6851 64.1598 60.6673 64.1081C60.6494 64.0564 60.6215 64.0088 60.5852 63.9681C60.5489 63.9274 60.5049 63.8945 60.4559 63.8712C59.689 63.4808 58.9792 62.9848 58.3469 62.3974C58.2991 62.3525 58.2413 62.3199 58.1785 62.3023C58.1157 62.2848 58.0497 62.2827 57.9861 62.2965ZM69.7492 61.944C69.6458 61.9676 69.5559 62.0313 69.4988 62.1214C69.2587 62.4917 68.9797 62.8348 68.6669 63.1448C68.3859 63.4251 68.0765 63.6748 67.7438 63.8898C67.6536 63.9483 67.5902 64.0407 67.5676 64.1467C67.5451 64.2526 67.5652 64.3635 67.6235 64.4549C67.6818 64.5463 67.7736 64.6107 67.8786 64.634C67.9836 64.6573 68.0933 64.6375 68.1835 64.579C68.5631 64.3332 68.9158 64.0476 69.236 63.727C69.5912 63.374 69.9066 62.9824 70.1765 62.5592C70.22 62.4912 70.2424 62.4117 70.2409 62.3306C70.2394 62.2495 70.214 62.1706 70.168 62.1039C70.122 62.0372 70.0575 61.9858 69.9827 61.9561C69.9078 61.9265 69.826 61.9199 69.7477 61.9374L69.7492 61.944ZM62.7193 64.7074C62.6285 64.7279 62.5476 64.7795 62.4902 64.8534C62.4329 64.9273 62.4027 65.019 62.4048 65.1131C62.4068 65.2072 62.4409 65.2979 62.5013 65.3698C62.5618 65.4417 62.6448 65.4904 62.7365 65.5078C63.6607 65.691 64.6083 65.7154 65.5391 65.58C65.6453 65.5635 65.7404 65.5051 65.8036 65.4175C65.8668 65.33 65.8928 65.2205 65.876 65.1132C65.8592 65.0058 65.8009 64.9095 65.7139 64.8452C65.6269 64.781 65.5184 64.7542 65.4122 64.7707C64.5724 64.8942 63.7173 64.8737 62.8828 64.71C62.8308 64.6979 62.777 64.6966 62.7246 64.7063L62.7193 64.7074Z" fill="white" fill-opacity="0.3"/>
<path d="M171.717 22.7042C171.667 22.7153 171.62 22.7364 171.578 22.7661C171.212 23.0182 170.837 23.2707 170.465 23.5187C170.375 23.5783 170.313 23.6714 170.292 23.7776C170.27 23.8838 170.292 23.9943 170.351 24.0849C170.411 24.1755 170.503 24.2387 170.609 24.2607C170.714 24.2826 170.823 24.2614 170.913 24.2018C171.288 23.952 171.665 23.6959 172.035 23.4416C172.113 23.3883 172.17 23.3092 172.196 23.2179C172.222 23.1265 172.216 23.0287 172.178 22.9413C172.14 22.8539 172.074 22.7824 171.99 22.7391C171.905 22.6958 171.809 22.6835 171.717 22.7042Z" fill="white" fill-opacity="0.3"/>
</g>
<g opacity="0.54">
<path d="M172.495 13.5282C172.84 13.5157 173.129 13.7856 173.141 14.1301C173.154 14.475 172.884 14.7654 172.539 14.7769C171.099 14.8271 168.986 16.2494 168.294 16.7937C168.102 16.9442 167.84 16.9694 167.624 16.8589L167.596 16.8428L167.595 16.8436C167.395 16.7278 167.274 16.5098 167.283 16.2767C167.313 15.5599 166.94 14.807 166.936 14.7989C166.783 14.4907 166.906 14.1153 167.214 13.9603C167.522 13.8054 167.897 13.9282 168.053 14.2346C168.066 14.2604 168.26 14.6487 168.398 15.1872C169.397 14.5274 171.073 13.5776 172.495 13.5282ZM180.962 21.1929C181.261 21.3654 181.363 21.7479 181.191 22.0467C181.019 22.3455 180.636 22.4479 180.337 22.2754L173.121 18.1089C172.822 17.9364 172.719 17.554 172.892 17.2552C173.065 16.9566 173.447 16.854 173.746 17.0264L180.962 21.1929ZM183.462 16.8628C183.761 17.0352 183.863 17.4178 183.691 17.7165C183.519 18.0153 183.136 18.1178 182.837 17.9453L175.621 13.7788C175.322 13.6063 175.219 13.2238 175.392 12.925C175.565 12.6265 175.947 12.5238 176.246 12.6963L183.462 16.8628ZM177.079 5.58936C177.423 5.57693 177.713 5.84698 177.725 6.19122C177.737 6.53609 177.467 6.82648 177.122 6.83803C175.683 6.88826 173.57 8.31059 172.877 8.85482C172.685 9.00554 172.424 9.03061 172.207 8.92003L172.179 8.90392L172.178 8.90561C171.978 8.78978 171.857 8.57174 171.866 8.33867C171.896 7.62177 171.524 6.86816 171.52 6.86008C171.366 6.55195 171.49 6.17737 171.797 6.02226C172.105 5.86714 172.48 5.99005 172.636 6.29659C172.65 6.32413 172.843 6.71183 172.981 7.24923C173.98 6.58936 175.656 5.63874 177.079 5.58936ZM185.962 12.5327C186.261 12.7051 186.363 13.0877 186.191 13.3864C186.019 13.6852 185.636 13.7877 185.337 13.6152L178.121 9.44868C177.822 9.27618 177.719 8.8937 177.892 8.59492C178.065 8.29637 178.447 8.19371 178.746 8.36615L185.962 12.5327Z" fill="#D1D5DB"/>
</g>
<g opacity="0.54">
<path d="M23.3273 59.0966C23.6722 59.0841 23.9613 59.354 23.9732 59.6984C23.9858 60.0434 23.7161 60.3338 23.3709 60.3452C21.9312 60.3955 19.8182 61.8178 19.1258 62.362C18.934 62.5126 18.6723 62.5378 18.4555 62.4272L18.4276 62.4111L18.4272 62.412C18.2266 62.2961 18.1056 62.0781 18.1151 61.845C18.1449 61.1283 17.7725 60.3754 17.7685 60.3673C17.6147 60.0591 17.7384 59.6837 18.0463 59.5286C18.3542 59.3737 18.7288 59.4966 18.8848 59.803C18.8978 59.8287 19.0918 60.2171 19.2301 60.7556C20.2289 60.0957 21.9046 59.146 23.3273 59.0966ZM31.7943 66.7613C32.093 66.9337 32.1954 67.3163 32.0231 67.615C31.8506 67.9138 31.4681 68.0163 31.1693 67.8438L23.9527 63.6773C23.654 63.5048 23.5515 63.1223 23.724 62.8235C23.8966 62.525 24.2791 62.4223 24.5777 62.5948L31.7943 66.7613ZM34.2943 62.4311C34.593 62.6036 34.6954 62.9862 34.5231 63.2849C34.3506 63.5837 33.9681 63.6862 33.6693 63.5137L26.4527 59.3472C26.154 59.1747 26.0515 58.7922 26.224 58.4934C26.3966 58.1949 26.7791 58.0922 27.0777 58.2646L34.2943 62.4311ZM27.9108 51.1577C28.2555 51.1453 28.5446 51.4153 28.5567 51.7596C28.5693 52.1045 28.2995 52.3948 27.9544 52.4064C26.5147 52.4566 24.4017 53.879 23.7093 54.4232C23.5174 54.5739 23.2559 54.599 23.039 54.4884L23.0111 54.4723L23.0102 54.474C22.8096 54.3581 22.6886 54.1401 22.6981 53.907C22.7281 53.1901 22.356 52.4365 22.352 52.4284C22.1984 52.1203 22.3217 51.7457 22.6293 51.5906C22.9373 51.4355 23.3118 51.5584 23.4678 51.865C23.4817 51.8925 23.6752 52.2802 23.8131 52.8176C24.8118 52.1577 26.488 51.2071 27.9108 51.1577ZM36.7943 58.101C37.093 58.2735 37.1954 58.656 37.0231 58.9548C36.8506 59.2536 36.4681 59.356 36.1693 59.1835L28.9527 55.017C28.654 54.8445 28.5515 54.4621 28.724 54.1633C28.8966 53.8647 29.2791 53.7621 29.5777 53.9345L36.7943 58.101Z" fill="#D1D5DB"/>
</g>
<defs>
<clipPath id="clip0_4050_26588">
<rect width="145.946" height="31.6574" fill="white" transform="matrix(0.975964 -0.217932 -0.217932 -0.975964 33.75 72.6738)"/>
</clipPath>
</defs>
</svg>
