<svg width="56" height="77" viewBox="0 0 56 77" fill="none" xmlns="http://www.w3.org/2000/svg">
<mask id="path-1-inside-1_3196_15115" fill="white">
<path d="M46.9125 52.9614C46.7191 52.9613 46.5289 52.9109 46.3608 52.8152C46.1927 52.7194 46.0523 52.5817 45.9535 52.4154C45.8546 52.2491 45.8007 52.0599 45.797 51.8665C45.7932 51.6731 45.8398 51.482 45.9322 51.312C50.52 42.8577 52.8462 34.8595 52.8462 27.5397C52.8462 13.5856 41.4937 2.23322 27.5398 2.23322C25.8482 2.23322 24.1575 2.40093 22.5144 2.732C22.226 2.78576 21.928 2.72386 21.6848 2.55967C21.4417 2.39549 21.2729 2.14221 21.215 1.85459C21.1571 1.56697 21.2147 1.26811 21.3753 1.02262C21.536 0.777122 21.7868 0.604712 22.0736 0.542657C23.8732 0.181438 25.7042 -0.000337408 27.5397 4.70155e-07C42.725 4.70155e-07 55.0793 12.3543 55.0793 27.5397C55.0793 35.2357 52.6621 43.5922 47.8948 52.3771C47.7989 52.554 47.657 52.7017 47.4841 52.8045C47.3112 52.9074 47.1137 52.9616 46.9125 52.9614ZM27.5397 76.6667C26.3549 76.6667 25.2461 76.1998 24.4174 75.3521C21.2323 72.0938 15.0981 65.3588 9.80031 56.8615C3.29741 46.4315 0 36.5663 0 27.5397C0 16.4465 6.60202 6.48627 16.8196 2.16464C17.0924 2.04925 17.3998 2.04694 17.6743 2.15821C17.9487 2.26948 18.1677 2.48523 18.2831 2.75798C18.3985 3.03073 18.4008 3.33815 18.2896 3.6126C18.1783 3.88706 17.9625 4.10607 17.6898 4.22146C8.30021 8.19285 2.23322 17.3457 2.23322 27.5397C2.23322 47.8815 20.4356 68.0837 26.0144 73.7911C26.4193 74.2054 26.9611 74.4334 27.5397 74.4334C28.1182 74.4334 28.66 74.2054 29.0649 73.7911C32.1647 70.62 38.1367 64.0664 43.3074 55.8026C43.4662 55.5553 43.7161 55.3807 44.0029 55.3165C44.2896 55.2523 44.5901 55.3037 44.8392 55.4595C45.0883 55.6154 45.266 55.8632 45.3336 56.1491C45.4013 56.4351 45.3535 56.7362 45.2007 56.9871C39.9188 65.4286 33.8244 72.1168 30.6619 75.3521C29.8332 76.1998 28.7244 76.6667 27.5397 76.6667Z"/>
</mask>
<path d="M46.9125 52.9614C46.7191 52.9613 46.5289 52.9109 46.3608 52.8152C46.1927 52.7194 46.0523 52.5817 45.9535 52.4154C45.8546 52.2491 45.8007 52.0599 45.797 51.8665C45.7932 51.6731 45.8398 51.482 45.9322 51.312C50.52 42.8577 52.8462 34.8595 52.8462 27.5397C52.8462 13.5856 41.4937 2.23322 27.5398 2.23322C25.8482 2.23322 24.1575 2.40093 22.5144 2.732C22.226 2.78576 21.928 2.72386 21.6848 2.55967C21.4417 2.39549 21.2729 2.14221 21.215 1.85459C21.1571 1.56697 21.2147 1.26811 21.3753 1.02262C21.536 0.777122 21.7868 0.604712 22.0736 0.542657C23.8732 0.181438 25.7042 -0.000337408 27.5397 4.70155e-07C42.725 4.70155e-07 55.0793 12.3543 55.0793 27.5397C55.0793 35.2357 52.6621 43.5922 47.8948 52.3771C47.7989 52.554 47.657 52.7017 47.4841 52.8045C47.3112 52.9074 47.1137 52.9616 46.9125 52.9614ZM27.5397 76.6667C26.3549 76.6667 25.2461 76.1998 24.4174 75.3521C21.2323 72.0938 15.0981 65.3588 9.80031 56.8615C3.29741 46.4315 0 36.5663 0 27.5397C0 16.4465 6.60202 6.48627 16.8196 2.16464C17.0924 2.04925 17.3998 2.04694 17.6743 2.15821C17.9487 2.26948 18.1677 2.48523 18.2831 2.75798C18.3985 3.03073 18.4008 3.33815 18.2896 3.6126C18.1783 3.88706 17.9625 4.10607 17.6898 4.22146C8.30021 8.19285 2.23322 17.3457 2.23322 27.5397C2.23322 47.8815 20.4356 68.0837 26.0144 73.7911C26.4193 74.2054 26.9611 74.4334 27.5397 74.4334C28.1182 74.4334 28.66 74.2054 29.0649 73.7911C32.1647 70.62 38.1367 64.0664 43.3074 55.8026C43.4662 55.5553 43.7161 55.3807 44.0029 55.3165C44.2896 55.2523 44.5901 55.3037 44.8392 55.4595C45.0883 55.6154 45.266 55.8632 45.3336 56.1491C45.4013 56.4351 45.3535 56.7362 45.2007 56.9871C39.9188 65.4286 33.8244 72.1168 30.6619 75.3521C29.8332 76.1998 28.7244 76.6667 27.5397 76.6667Z" fill="#162950"/>
<path d="M46.9125 52.9614L46.9204 44.9614L46.9176 44.9614L46.9125 52.9614ZM45.9322 51.312L52.9619 55.1307L52.9636 55.1277L45.9322 51.312ZM22.5144 2.732L23.9803 10.5966L24.0375 10.5859L24.0946 10.5744L22.5144 2.732ZM22.0736 0.542657L20.4992 -7.3009L20.4402 -7.28907L20.3815 -7.27635L22.0736 0.542657ZM27.5397 4.70155e-07L27.5382 8H27.5397L27.5397 4.70155e-07ZM47.8948 52.3771L40.8634 48.5614L40.8612 48.5655L47.8948 52.3771ZM24.4174 75.3521L18.6967 80.9443L18.6968 80.9444L24.4174 75.3521ZM9.80031 56.8615L16.589 52.629L16.5889 52.6289L9.80031 56.8615ZM16.8196 2.16464L19.936 9.53269L19.9366 9.53245L16.8196 2.16464ZM17.6898 4.22146L20.8062 11.5895L20.8067 11.5893L17.6898 4.22146ZM26.0144 73.7911L31.736 68.1997L31.7353 68.199L26.0144 73.7911ZM29.0649 73.7911L23.3441 68.1989L23.3433 68.1997L29.0649 73.7911ZM43.3074 55.8026L36.5771 51.4777L36.5511 51.5183L36.5255 51.5592L43.3074 55.8026ZM45.2007 56.9871L51.9825 61.2306L52.0082 61.1896L52.0333 61.1483L45.2007 56.9871ZM30.6619 75.3521L36.3825 80.9444L36.3827 80.9442L30.6619 75.3521ZM46.9125 52.9614L46.9176 44.9614C48.1103 44.9622 49.2825 45.2728 50.3191 45.863L46.3608 52.8152L42.4026 59.7673C43.7754 60.5489 45.3278 60.9604 46.9074 60.9614L46.9125 52.9614ZM46.3608 52.8152L50.3191 45.863C51.3556 46.4532 52.221 47.3026 52.8305 48.3279L45.9535 52.4154L39.0765 56.5028C39.8836 57.8607 41.0297 58.9857 42.4026 59.7673L46.3608 52.8152ZM45.9535 52.4154L52.8305 48.3279C53.4399 49.3533 53.7724 50.5194 53.7955 51.7119L45.797 51.8665L37.7985 52.0211C37.829 53.6004 38.2694 55.1448 39.0765 56.5028L45.9535 52.4154ZM45.797 51.8665L53.7955 51.7119C53.8185 52.9044 53.5313 54.0825 52.9619 55.1307L45.9322 51.312L38.9024 47.4933C38.1483 48.8816 37.7679 50.4418 37.7985 52.0211L45.797 51.8665ZM45.9322 51.312L52.9636 55.1277C57.9941 45.8577 60.8462 36.5455 60.8462 27.5397H52.8462H44.8462C44.8462 33.1736 43.046 39.8577 38.9008 47.4963L45.9322 51.312ZM52.8462 27.5397H60.8462C60.8462 9.16727 45.912 -5.76678 27.5398 -5.76678V2.23322V10.2332C37.0755 10.2332 44.8462 18.0039 44.8462 27.5397H52.8462ZM27.5398 2.23322V-5.76678C25.3229 -5.76678 23.1028 -5.54734 20.9342 -5.11038L22.5144 2.732L24.0946 10.5744C25.2122 10.3492 26.3735 10.2332 27.5398 10.2332V2.23322ZM22.5144 2.732L21.0485 -5.13256C22.8263 -5.46391 24.663 -5.08236 26.1617 -4.07039L21.6848 2.55967L17.208 9.18973C19.1929 10.5301 21.6257 11.0354 23.9803 10.5966L22.5144 2.732ZM21.6848 2.55967L26.1617 -4.07039C27.6604 -3.0584 28.7006 -1.4973 29.0576 0.275448L21.215 1.85459L13.3724 3.43373C13.8452 5.78171 15.2229 7.84938 17.208 9.18973L21.6848 2.55967ZM21.215 1.85459L29.0576 0.275448C29.4145 2.04821 29.0595 3.89025 28.0693 5.40339L21.3753 1.02262L14.6814 -3.35816C13.3698 -1.35403 12.8996 1.08573 13.3724 3.43373L21.215 1.85459ZM21.3753 1.02262L28.0693 5.40339C27.079 6.9165 25.5331 7.97917 23.7656 8.36166L22.0736 0.542657L20.3815 -7.27635C18.0405 -6.76975 15.9929 -5.36225 14.6814 -3.35816L21.3753 1.02262ZM22.0736 0.542657L23.6479 8.38621C24.9287 8.12913 26.2318 7.99976 27.5382 8L27.5397 4.70155e-07L27.5411 -8C25.1765 -8.00043 22.8176 -7.76625 20.4992 -7.3009L22.0736 0.542657ZM27.5397 4.70155e-07L27.5397 8C38.3068 8 47.0793 16.7725 47.0793 27.5397H55.0793H63.0793C63.0793 7.93599 47.1433 -8 27.5397 -8L27.5397 4.70155e-07ZM55.0793 27.5397H47.0793C47.0793 33.5637 45.1793 40.6082 40.8634 48.5614L47.8948 52.3771L54.9262 56.1928C60.1448 46.5762 63.0793 36.9077 63.0793 27.5397H55.0793ZM47.8948 52.3771L40.8612 48.5655C41.4525 47.4743 42.3278 46.5634 43.3944 45.9289L47.4841 52.8045L51.5739 59.6802C52.9863 58.84 54.1454 57.6337 54.9284 56.1887L47.8948 52.3771ZM47.4841 52.8045L43.3944 45.9289C44.461 45.2945 45.6793 44.9602 46.9204 44.9614L46.9125 52.9614L46.9047 60.9614C48.5482 60.963 50.1615 60.5203 51.5739 59.6802L47.4841 52.8045ZM27.5397 76.6667V68.6667C28.5098 68.6667 29.4627 69.0689 30.1381 69.7598L24.4174 75.3521L18.6968 80.9444C21.0294 83.3306 24.2001 84.6667 27.5397 84.6667V76.6667ZM24.4174 75.3521L30.1382 69.7599C27.1698 66.7233 21.4659 60.4513 16.589 52.629L9.80031 56.8615L3.01165 61.094C8.73028 70.2663 15.2948 77.4643 18.6967 80.9443L24.4174 75.3521ZM9.80031 56.8615L16.5889 52.6289C10.601 43.0249 8 34.6212 8 27.5397H0H-8C-8 38.5113 -4.00614 49.8382 3.01169 61.0941L9.80031 56.8615ZM0 27.5397H8C8 19.6608 12.6783 12.6024 19.936 9.53269L16.8196 2.16464L13.7033 -5.20342C0.52574 0.370133 -8 13.2322 -8 27.5397H0ZM16.8196 2.16464L19.9366 9.53245C18.2553 10.2437 16.3603 10.258 14.6685 9.57205L17.6743 2.15821L20.6801 -5.25563C18.4394 -6.1641 15.9295 -6.14523 13.7027 -5.20318L16.8196 2.16464ZM17.6743 2.15821L14.6685 9.57205C12.9766 8.88613 11.6266 7.55623 10.9153 5.87492L18.2831 2.75798L25.6509 -0.358966C24.7089 -2.58577 22.9208 -4.34716 20.6801 -5.25563L17.6743 2.15821ZM18.2831 2.75798L10.9153 5.87492C10.204 4.19361 10.1898 2.2986 10.8757 0.606787L18.2896 3.6126L25.7034 6.61842C26.6119 4.37769 26.593 1.86785 25.6509 -0.358966L18.2831 2.75798ZM18.2896 3.6126L10.8757 0.606787C11.5616 -1.08502 12.8915 -2.43507 14.5728 -3.14635L17.6898 4.22146L20.8067 11.5893C23.0336 10.6472 24.7949 8.85914 25.7034 6.61842L18.2896 3.6126ZM17.6898 4.22146L14.5734 -3.14659C2.22404 2.07667 -5.76678 14.1313 -5.76678 27.5397H2.23322H10.2332C10.2332 20.5601 14.3764 14.309 20.8062 11.5895L17.6898 4.22146ZM2.23322 27.5397H-5.76678C-5.76678 39.9302 -0.300837 51.6109 5.26842 60.4262C10.9289 69.3859 17.2922 76.3128 20.2935 79.3832L26.0144 73.7911L31.7353 68.199C29.1577 65.562 23.6305 59.5342 18.7951 51.8804C13.8684 44.0823 10.2332 35.491 10.2332 27.5397H2.23322ZM26.0144 73.7911L20.2928 79.3824C22.202 81.3361 24.8061 82.4334 27.5397 82.4334V74.4334V66.4334C29.1161 66.4334 30.6366 67.0747 31.736 68.1997L26.0144 73.7911ZM27.5397 74.4334V82.4334C30.2733 82.4334 32.8773 81.3361 34.7865 79.3824L29.0649 73.7911L23.3433 68.1997C24.4427 67.0747 25.9632 66.4334 27.5397 66.4334V74.4334ZM29.0649 73.7911L34.7857 79.3833C38.1007 75.992 44.4999 68.979 50.0892 60.0459L43.3074 55.8026L36.5255 51.5592C31.7736 59.1538 26.2286 65.248 23.3441 68.1989L29.0649 73.7911ZM43.3074 55.8026L50.0376 60.1274C49.0585 61.651 47.5183 62.7274 45.7509 63.1232L44.0029 55.3165L42.2548 47.5098C39.9139 48.034 37.8739 49.4597 36.5771 51.4777L43.3074 55.8026ZM44.0029 55.3165L45.7509 63.1232C43.9835 63.5189 42.1314 63.2021 40.596 62.2415L44.8392 55.4595L49.0825 48.6776C47.0489 47.4052 44.5957 46.9857 42.2548 47.5098L44.0029 55.3165ZM44.8392 55.4595L40.596 62.2415C39.0605 61.2808 37.9656 59.7537 37.5486 57.9912L45.3336 56.1491L53.1187 54.307C52.5663 51.9727 51.1162 49.95 49.0825 48.6776L44.8392 55.4595ZM45.3336 56.1491L37.5486 57.9912C37.1316 56.2288 37.426 54.3729 38.368 52.826L45.2007 56.9871L52.0333 61.1483C53.2811 59.0994 53.671 56.6414 53.1187 54.307L45.3336 56.1491ZM45.2007 56.9871L38.4189 52.7437C33.5554 60.5164 27.8878 66.7454 24.941 69.76L30.6619 75.3521L36.3827 80.9442C39.7609 77.4883 46.2821 70.3408 51.9825 61.2306L45.2007 56.9871ZM30.6619 75.3521L24.9412 69.7598C25.6166 69.0689 26.5695 68.6667 27.5397 68.6667V76.6667V84.6667C30.8792 84.6667 34.0499 83.3306 36.3825 80.9444L30.6619 75.3521Z" fill="white" mask="url(#path-1-inside-1_3196_15115)"/>
<mask id="path-3-inside-2_3196_15115" fill="white">
<path d="M27.539 40.1191C24.6915 40.1191 21.9965 39.203 19.7458 37.4699C19.6296 37.3805 19.5322 37.269 19.4591 37.1419C19.3859 37.0148 19.3386 36.8745 19.3197 36.7291C19.3008 36.5837 19.3107 36.4359 19.3489 36.2944C19.3871 36.1528 19.4528 36.0201 19.5423 35.9039C19.6317 35.7878 19.7432 35.6903 19.8703 35.6172C19.9974 35.5441 20.1376 35.4968 20.283 35.4779C20.4284 35.459 20.5761 35.4689 20.7177 35.5071C20.8593 35.5453 20.9919 35.611 21.1081 35.7004C22.965 37.1302 25.1888 37.8859 27.5391 37.8859C33.3576 37.8859 38.091 33.1523 38.091 27.334C38.091 21.5158 33.3574 16.782 27.539 16.782C21.7205 16.782 16.9871 21.5156 16.9871 27.3339C16.9871 28.9596 17.3466 30.5184 18.0558 31.9668C18.1822 32.2323 18.1988 32.537 18.1019 32.8146C18.005 33.0923 17.8026 33.3205 17.5385 33.4498C17.2744 33.5791 16.9699 33.599 16.6912 33.5052C16.4125 33.4114 16.1821 33.2115 16.0499 32.9488C15.1899 31.1921 14.7539 29.303 14.7539 27.3339C14.7539 20.2842 20.4892 14.5488 27.539 14.5488C34.5887 14.5488 40.324 20.2842 40.324 27.3339C40.324 34.3836 34.5887 40.1191 27.539 40.1191Z"/>
</mask>
<path d="M27.539 40.1191C24.6915 40.1191 21.9965 39.203 19.7458 37.4699C19.6296 37.3805 19.5322 37.269 19.4591 37.1419C19.3859 37.0148 19.3386 36.8745 19.3197 36.7291C19.3008 36.5837 19.3107 36.4359 19.3489 36.2944C19.3871 36.1528 19.4528 36.0201 19.5423 35.9039C19.6317 35.7878 19.7432 35.6903 19.8703 35.6172C19.9974 35.5441 20.1376 35.4968 20.283 35.4779C20.4284 35.459 20.5761 35.4689 20.7177 35.5071C20.8593 35.5453 20.9919 35.611 21.1081 35.7004C22.965 37.1302 25.1888 37.8859 27.5391 37.8859C33.3576 37.8859 38.091 33.1523 38.091 27.334C38.091 21.5158 33.3574 16.782 27.539 16.782C21.7205 16.782 16.9871 21.5156 16.9871 27.3339C16.9871 28.9596 17.3466 30.5184 18.0558 31.9668C18.1822 32.2323 18.1988 32.537 18.1019 32.8146C18.005 33.0923 17.8026 33.3205 17.5385 33.4498C17.2744 33.5791 16.9699 33.599 16.6912 33.5052C16.4125 33.4114 16.1821 33.2115 16.0499 32.9488C15.1899 31.1921 14.7539 29.303 14.7539 27.3339C14.7539 20.2842 20.4892 14.5488 27.539 14.5488C34.5887 14.5488 40.324 20.2842 40.324 27.3339C40.324 34.3836 34.5887 40.1191 27.539 40.1191Z" fill="#162950"/>
<path d="M19.7458 37.4699L24.6266 31.1313L24.6264 31.1312L19.7458 37.4699ZM19.5423 35.9039L25.8809 40.7847L25.8813 40.7842L19.5423 35.9039ZM21.1081 35.7004L16.2271 42.0389L16.2276 42.0393L21.1081 35.7004ZM18.0558 31.9668L25.2792 28.5285L25.2603 28.4886L25.2408 28.449L18.0558 31.9668ZM16.0499 32.9488L8.86461 36.4661L8.88398 36.5057L8.90379 36.5451L16.0499 32.9488ZM27.539 40.1191V32.1191C26.4526 32.1191 25.4746 31.7843 24.6266 31.1313L19.7458 37.4699L14.865 43.8085C18.5184 46.6217 22.9305 48.1191 27.539 48.1191V40.1191ZM19.7458 37.4699L24.6264 31.1312C25.3426 31.6827 25.9432 32.3698 26.3939 33.1534L19.4591 37.1419L12.5242 41.1303C13.1211 42.1682 13.9165 43.0782 14.8651 43.8086L19.7458 37.4699ZM19.4591 37.1419L26.3939 33.1534C26.8446 33.9371 27.1365 34.8018 27.253 35.6982L19.3197 36.7291L11.3864 37.76C11.5407 38.9472 11.9273 40.0924 12.5242 41.1303L19.4591 37.1419ZM19.3197 36.7291L27.253 35.6982C27.3695 36.5945 27.3083 37.5051 27.0728 38.3779L19.3489 36.2944L11.625 34.2108C11.3132 35.3668 11.2321 36.5728 11.3864 37.76L19.3197 36.7291ZM19.3489 36.2944L27.0728 38.3779C26.8374 39.2507 26.4324 40.0685 25.8809 40.7847L19.5423 35.9039L13.2037 31.0231C12.4733 31.9717 11.9368 33.0549 11.625 34.2108L19.3489 36.2944ZM19.5423 35.9039L25.8813 40.7842C25.3298 41.5006 24.6426 42.1013 23.8589 42.552L19.8703 35.6172L15.8816 28.6825C14.8438 29.2794 13.9337 30.0749 13.2033 31.0236L19.5423 35.9039ZM19.8703 35.6172L23.8589 42.552C23.0753 43.0027 22.2106 43.2946 21.3141 43.4112L20.283 35.4779L19.252 27.5446C18.0647 27.6989 16.9194 28.0856 15.8816 28.6825L19.8703 35.6172ZM20.283 35.4779L21.3141 43.4112C20.4176 43.5277 19.507 43.4665 18.6341 43.231L20.7177 35.5071L22.8013 27.7832C21.6453 27.4714 20.4393 27.3903 19.252 27.5446L20.283 35.4779ZM20.7177 35.5071L18.6341 43.231C17.7613 42.9955 16.9434 42.5905 16.2271 42.0389L21.1081 35.7004L25.9891 29.362C25.0405 28.6315 23.9573 28.095 22.8013 27.7832L20.7177 35.5071ZM21.1081 35.7004L16.2276 42.0393C19.4878 44.5494 23.4287 45.8859 27.5391 45.8859V37.8859V29.8859C26.949 29.8859 26.4423 29.7109 25.9886 29.3616L21.1081 35.7004ZM27.5391 37.8859V45.8859C37.7759 45.8859 46.091 37.5705 46.091 27.334H38.091H30.091C30.091 28.7341 28.9392 29.8859 27.5391 29.8859V37.8859ZM38.091 27.334H46.091C46.091 17.0976 37.7758 8.78204 27.539 8.78204V16.782V24.782C28.9391 24.782 30.091 25.934 30.091 27.334H38.091ZM27.539 16.782V8.78204C17.3022 8.78204 8.98712 17.0974 8.98712 27.3339H16.9871H24.9871C24.9871 25.9338 26.1389 24.782 27.539 24.782V16.782ZM16.9871 27.3339H8.98712C8.98712 30.1686 9.62084 32.9318 10.8708 35.4847L18.0558 31.9668L25.2408 28.449C25.0725 28.1051 24.9871 27.7506 24.9871 27.3339H16.9871ZM18.0558 31.9668L10.8324 35.4052C10.0534 33.7686 9.95135 31.8909 10.5483 30.1796L18.1019 32.8146L25.6555 35.4496C26.4462 33.1831 26.311 30.6961 25.2792 28.5285L18.0558 31.9668ZM18.1019 32.8146L10.5483 30.1796C11.1453 28.4683 12.3931 27.0615 14.021 26.2646L17.5385 33.4498L21.056 40.635C23.2121 39.5795 24.8648 37.7162 25.6555 35.4496L18.1019 32.8146ZM17.5385 33.4498L14.021 26.2646C15.6488 25.4677 17.5253 25.345 19.2431 25.9231L16.6912 33.5052L14.1394 41.0873C16.4146 41.8531 18.8999 41.6905 21.056 40.635L17.5385 33.4498ZM16.6912 33.5052L19.2431 25.9231C20.9608 26.5013 22.3812 27.7335 23.196 29.3526L16.0499 32.9488L8.90379 36.5451C9.98294 38.6894 11.8643 40.3216 14.1394 41.0873L16.6912 33.5052ZM16.0499 32.9488L23.2352 29.4315C22.915 28.7774 22.7539 28.0922 22.7539 27.3339H14.7539H6.75391C6.75391 30.5137 7.4649 33.6068 8.86461 36.4661L16.0499 32.9488ZM14.7539 27.3339H22.7539C22.7539 24.7024 24.9075 22.5488 27.539 22.5488V14.5488V6.54883C16.071 6.54883 6.75391 15.8659 6.75391 27.3339H14.7539ZM27.539 14.5488V22.5488C30.1704 22.5488 32.324 24.7024 32.324 27.3339H40.324H48.324C48.324 15.8659 39.007 6.54883 27.539 6.54883V14.5488ZM40.324 27.3339H32.324C32.324 29.9655 30.1703 32.1191 27.539 32.1191V40.1191V48.1191C39.0071 48.1191 48.324 38.8018 48.324 27.3339H40.324Z" fill="white" mask="url(#path-3-inside-2_3196_15115)"/>
</svg>
