<svg width="19" height="18" viewBox="0 0 19 18" fill="none" xmlns="http://www.w3.org/2000/svg">
<path d="M8.1507 7.17866H6.97717C6.69144 7.17866 6.41786 7.06594 6.21582 6.86524C6.01378 6.66455 5.90039 6.3924 5.90039 6.1086H8.17409L6.54925 4.48825C6.81248 4.32792 7.12296 4.26114 7.42984 4.29879C7.73672 4.33643 8.02156 4.4763 8.23799 4.69556L9.09654 5.5431L9.94248 4.70821C10.1054 4.5423 10.3065 4.41846 10.5283 4.34752C10.7142 4.29135 10.9099 4.27474 11.1025 4.29877C11.2951 4.3228 11.4805 4.38693 11.647 4.48698L10.0235 6.1086H11.2182C11.5039 6.1086 11.7775 6.22132 11.9795 6.42201C12.1815 6.6227 12.2949 6.89485 12.2949 7.17866H10.0455L11.7676 8.8903C11.5493 8.99065 11.3122 9.04275 11.0724 9.04307C10.8591 9.04352 10.648 9.00212 10.451 8.92117C10.2539 8.84022 10.0748 8.72138 9.92403 8.57144L9.09969 7.75112L8.27444 8.57144C8.1237 8.72138 7.94461 8.84026 7.74752 8.92121C7.55043 9.00217 7.3394 9.04356 7.12611 9.04307C6.88628 9.04266 6.64959 8.99056 6.43181 8.8903L8.1507 7.17866Z" fill="#1C355E"/>
<path d="M10.3641 12.7849C9.58295 11.4568 8.38692 10.4166 6.98391 9.72809C6.69278 9.58603 6.3643 9.53824 6.04482 9.59148C5.72534 9.64471 5.43016 9.79626 5.20202 10.0248L5.08008 10.1465C5.32216 10.2088 5.56065 10.2841 5.79419 10.3722C7.41768 10.9832 8.75455 12.1721 9.54515 13.7079L10.7997 13.7124C10.9738 13.7126 11.1412 13.6469 11.2685 13.5286C11.6317 13.188 12.0303 12.887 12.4578 12.6309C12.6378 12.5222 12.7867 12.3692 12.8898 12.1866C12.9928 12.004 13.0468 11.7981 13.0464 11.5887V11.0505C12.0461 11.4471 11.1344 12.0363 10.3641 12.7843" fill="#1C355E"/>
<path d="M10.3733 0.916325C10.3144 1.01807 10.2357 1.10725 10.1416 1.17876C10.048 1.25027 9.94092 1.30271 9.82663 1.33309C9.71279 1.36346 9.59355 1.37118 9.4761 1.3558C9.35911 1.34042 9.24617 1.30223 9.14357 1.24344L7.75586 0.447214C7.87555 0.241679 8.07219 0.0917496 8.30303 0.0304048C8.53386 -0.0309398 8.77955 0.00132528 8.98608 0.120103L10.3733 0.916325Z" fill="#3F738D"/>
<path d="M7.79083 0.911352C7.74089 1.14342 7.6005 1.3463 7.40026 1.4754C7.19957 1.60449 6.95613 1.64924 6.7226 1.5998L5.15625 1.27206C5.181 1.15717 5.22824 1.04824 5.29529 0.951485C5.36234 0.854739 5.44783 0.772068 5.54682 0.708198C5.64627 0.644323 5.75696 0.600499 5.8735 0.579233C5.98959 0.557962 6.10884 0.559667 6.22448 0.584241L7.79083 0.911352Z" fill="#3F738D"/>
<path d="M5.33605 1.69824C5.36079 1.93412 5.29015 2.17013 5.14031 2.35439C4.99002 2.53865 4.77223 2.65608 4.5351 2.68084L2.9404 2.84693C2.91565 2.61105 2.98629 2.37504 3.13613 2.19078C3.28643 2.00652 3.50421 1.8891 3.74135 1.86434L5.33605 1.69824Z" fill="#3F738D"/>
<path d="M3.24534 3.19824C3.34208 3.4149 3.34839 3.66083 3.26289 3.88203C3.1774 4.10322 3.00686 4.2816 2.78907 4.37799L1.32576 5.0246C1.27762 4.91732 1.25152 4.80172 1.24837 4.68432C1.24522 4.56697 1.26547 4.45012 1.30776 4.34051C1.35006 4.23089 1.41396 4.13064 1.49495 4.04548C1.5764 3.96033 1.67404 3.89194 1.78203 3.84422L3.24534 3.19824Z" fill="#3F738D"/>
<path d="M1.72431 5.26465C1.8035 5.35172 1.8647 5.45346 1.90474 5.56402C1.94434 5.67463 1.96144 5.79189 1.95559 5.9092C1.94974 6.02647 1.92049 6.14139 1.8701 6.2475C1.81925 6.35356 1.74815 6.44873 1.66041 6.52743L0.470686 7.59119C0.391491 7.50417 0.330294 7.40252 0.290247 7.29196C0.250649 7.18144 0.233551 7.06417 0.239401 6.94695C0.24525 6.82973 0.274496 6.71485 0.324893 6.60884C0.37574 6.50278 0.446837 6.40769 0.534131 6.32904L1.72431 5.26465Z" fill="#3F738D"/>
<path d="M0.921542 7.70117C1.12853 7.8197 1.27927 8.01499 1.34092 8.24408C1.40301 8.47316 1.37061 8.71728 1.25137 8.92274L0.44997 10.3003C0.347376 10.2416 0.257833 10.1634 0.185837 10.0702C0.113842 9.97709 0.0611944 9.87072 0.0305964 9.75728C-1.7098e-06 9.64384 -0.00764892 9.52549 0.00765012 9.40908C0.0229492 9.29263 0.0616465 9.18036 0.120593 9.0787L0.921542 7.70117Z" fill="#3F738D"/>
<path d="M0.91513 10.2627C1.14867 10.312 1.35295 10.4514 1.48299 10.6503C1.61304 10.8492 1.65803 11.0912 1.60854 11.3233L1.27556 12.8789C1.16037 12.8545 1.05057 12.8076 0.953377 12.7411C0.856183 12.6746 0.773389 12.5897 0.709043 12.4913C0.644697 12.3929 0.601049 12.2828 0.57945 12.1675C0.557852 12.0521 0.559652 11.9337 0.584401 11.819L0.91513 10.2627Z" fill="#3F738D"/>
<path d="M1.70703 12.7022C1.82447 12.6899 1.94327 12.7006 2.05666 12.7339C2.17005 12.7672 2.27579 12.8223 2.36759 12.8962C2.45938 12.9702 2.53543 13.0613 2.59212 13.1645C2.64837 13.2677 2.68392 13.381 2.69607 13.4979L2.86391 15.0795C2.74647 15.0919 2.62767 15.0811 2.51428 15.0479C2.40089 15.0146 2.29514 14.9594 2.20335 14.8855C2.11155 14.8116 2.03506 14.7205 1.97881 14.6172C1.92257 14.514 1.88702 14.4007 1.87487 14.2839L1.70703 12.7022Z" fill="#3F738D"/>
<path d="M3.21875 14.7777C3.43699 14.6811 3.68447 14.6746 3.90766 14.7594C4.1304 14.8443 4.31038 15.0137 4.40758 15.2303L5.05959 16.6839C4.84135 16.7804 4.59387 16.7869 4.37113 16.7022C4.14839 16.6175 3.96841 16.4484 3.87076 16.2319L3.21875 14.7777Z" fill="#3F738D"/>
<path d="M5.30469 16.2881C5.48243 16.1294 5.71596 16.0474 5.95445 16.0598C6.19293 16.0723 6.41657 16.1784 6.57631 16.3546L7.64769 17.5363C7.47085 17.6952 7.23732 17.7779 6.99928 17.766C6.7608 17.7541 6.53716 17.6487 6.37697 17.4729L5.30469 16.2881Z" fill="#3F738D"/>
<path d="M7.75586 17.0854C7.87555 16.8801 8.07219 16.7305 8.30258 16.6691C8.53341 16.6078 8.77865 16.6398 8.98563 16.7583L10.3729 17.5532C10.2532 17.7588 10.0566 17.9087 9.82573 17.97C9.5949 18.0314 9.34921 17.9991 9.14267 17.8804L7.75586 17.0854Z" fill="#3F738D"/>
<path d="M10.3359 17.0919C10.3854 16.8599 10.5258 16.657 10.7261 16.5279C10.9263 16.3988 11.1702 16.354 11.4033 16.4034L12.9705 16.7343C12.9206 16.9664 12.7802 17.1693 12.5795 17.2984C12.3793 17.4275 12.1358 17.4722 11.9023 17.4228L10.3359 17.0919Z" fill="#3F738D"/>
<path d="M12.79 16.3059C12.7653 16.07 12.8355 15.834 12.9858 15.6497C13.1361 15.4655 13.3538 15.3481 13.591 15.3233L15.1852 15.1572C15.1978 15.274 15.187 15.3921 15.1533 15.5047C15.1195 15.6173 15.0642 15.7223 14.9899 15.8135C14.9152 15.9048 14.8235 15.9806 14.72 16.0365C14.616 16.0925 14.5017 16.1276 14.3843 16.1398L12.79 16.3059Z" fill="#3F738D"/>
<path d="M14.8805 14.8046C14.7833 14.5879 14.7771 14.3419 14.8625 14.1205C14.948 13.8992 15.1186 13.7206 15.3364 13.6242L16.8033 12.9775C16.9 13.1943 16.9063 13.4403 16.8208 13.6617C16.7353 13.883 16.5648 14.0615 16.3466 14.1579L14.8805 14.8046Z" fill="#3F738D"/>
<path d="M16.4019 12.7347C16.2422 12.5588 16.1589 12.327 16.1711 12.0902C16.1832 11.8534 16.289 11.6311 16.4658 11.472L17.656 10.4082C17.7352 10.4953 17.7964 10.597 17.836 10.7076C17.876 10.8182 17.8931 10.9354 17.8873 11.0527C17.8814 11.17 17.8522 11.2849 17.8018 11.3911C17.7509 11.4971 17.6798 11.5922 17.5921 11.671L16.4019 12.7347Z" fill="#3F738D"/>
<path d="M17.2043 10.3003C17.1017 10.2416 17.0122 10.1635 16.9402 10.0704C16.8682 9.97723 16.8156 9.8709 16.7845 9.75741C16.7539 9.64397 16.7463 9.52563 16.7616 9.40917C16.7773 9.29272 16.8155 9.1804 16.8745 9.0787L17.6768 7.70117C17.7794 7.7598 17.8689 7.83792 17.9409 7.93107C18.0129 8.02421 18.066 8.13059 18.0966 8.24403C18.1272 8.35747 18.1349 8.47582 18.1196 8.59227C18.1043 8.70873 18.0656 8.82104 18.0066 8.92274L17.2043 10.3003Z" fill="#3F738D"/>
<path d="M17.2114 7.73866C17.0958 7.71441 16.986 7.66775 16.8883 7.60128C16.7911 7.53482 16.7074 7.44986 16.6431 7.35136C16.5787 7.25286 16.5346 7.14266 16.513 7.02715C16.4914 6.91159 16.4932 6.79302 16.518 6.6781L16.851 5.12305C16.9666 5.14735 17.0764 5.19401 17.1736 5.26047C17.2712 5.32693 17.3545 5.41189 17.4188 5.51039C17.4832 5.60889 17.5277 5.71909 17.5489 5.8346C17.5705 5.95016 17.5687 6.06873 17.5444 6.18366L17.2114 7.73866Z" fill="#3F738D"/>
<path d="M16.4186 5.30021C16.3012 5.31268 16.1824 5.30197 16.069 5.26871C15.9556 5.23546 15.8498 5.18034 15.758 5.10641C15.6658 5.03252 15.5897 4.94131 15.5335 4.83804C15.4768 4.73476 15.4417 4.62146 15.4296 4.50464L15.2617 2.92295C15.3792 2.91057 15.498 2.92132 15.6114 2.95461C15.7247 2.9879 15.8305 3.04306 15.9223 3.11695C16.0141 3.19084 16.0901 3.282 16.1468 3.38523C16.2031 3.48846 16.2386 3.60172 16.2508 3.71854L16.4186 5.30021Z" fill="#3F738D"/>
<path d="M14.9068 3.22432C14.7992 3.27223 14.6827 3.29852 14.5644 3.3017C14.4465 3.30487 14.3286 3.28487 14.2183 3.24284C14.1076 3.2008 14.0068 3.13756 13.9209 3.05672C13.8354 2.97588 13.7661 2.87902 13.718 2.77169L13.0664 1.31871C13.2842 1.22214 13.5321 1.21556 13.7549 1.30044C13.978 1.38531 14.158 1.55469 14.2552 1.77134L14.9068 3.22432Z" fill="#3F738D"/>
<path d="M12.8244 1.7152C12.6471 1.87438 12.4135 1.95712 12.1751 1.94524C11.9366 1.93335 11.7129 1.8278 11.5528 1.65181L10.4805 0.470155C10.6578 0.311134 10.8908 0.228498 11.1293 0.240383C11.3678 0.252269 11.5919 0.357705 11.7521 0.533549L12.8244 1.7152Z" fill="#3F738D"/>
<path d="M13.0473 10.1466L12.9249 10.0242C12.6959 9.79492 12.4007 9.64287 12.0798 9.58955C11.7595 9.53618 11.4305 9.58424 11.139 9.72688C9.73909 10.4154 8.54081 11.4556 7.75876 12.7837C6.98931 12.036 6.07902 11.4468 5.08008 11.0499V11.5881C5.07963 11.7975 5.13363 12.0035 5.23667 12.1861C5.33971 12.3687 5.48865 12.5217 5.66864 12.6303C6.09612 12.8864 6.49479 13.1872 6.85837 13.5273C6.98481 13.6461 7.15265 13.7121 7.32679 13.7118C7.32679 13.7118 8.58266 13.7118 8.58131 13.708C9.03038 12.8348 9.66079 12.066 10.4302 11.4522C11.1997 10.8384 12.0911 10.3934 13.0459 10.1466" fill="#3F738D"/>
</svg>
