<svg width="25" height="24" viewBox="0 0 25 24" fill="none" xmlns="http://www.w3.org/2000/svg">
<path d="M10.8676 9.57086H9.30292C8.92194 9.57086 8.55715 9.42057 8.28777 9.15298C8.01838 8.88539 7.86719 8.52253 7.86719 8.14412H10.8988L8.73234 5.98368C9.08333 5.76992 9.49731 5.68087 9.90649 5.73107C10.3157 5.78126 10.6955 5.96774 10.984 6.26009L12.1288 7.39014L13.2567 6.27695C13.4739 6.05574 13.7421 5.89063 14.0379 5.79604C14.2857 5.72115 14.5467 5.699 14.8035 5.73104C15.0603 5.76308 15.3074 5.84859 15.5294 5.98199L13.3647 8.14412H14.9577C15.3386 8.14412 15.7034 8.29442 15.9728 8.56201C16.2422 8.82959 16.3934 9.19246 16.3934 9.57086H13.3941L15.6902 11.853C15.3992 11.9868 15.0831 12.0563 14.7633 12.0567C14.4789 12.0573 14.1975 12.0021 13.9347 11.8942C13.6719 11.7863 13.4331 11.6278 13.2321 11.4279L12.133 10.3341L11.0326 11.4279C10.8316 11.6278 10.5929 11.7863 10.3301 11.8943C10.0673 12.0022 9.7859 12.0574 9.50151 12.0567C9.18173 12.0562 8.86614 11.9867 8.57575 11.853L10.8676 9.57086Z" fill="#063235"/>
<path d="M13.8189 17.0459C12.7774 15.2751 11.1826 13.8881 9.31192 12.9701C8.92374 12.7807 8.48576 12.717 8.05978 12.788C7.6338 12.859 7.24022 13.061 6.93603 13.3657L6.77344 13.528C7.09622 13.6111 7.41421 13.7115 7.7256 13.8289C9.8903 14.6436 11.6728 16.2288 12.727 18.2765L14.3997 18.2825C14.6319 18.2828 14.8551 18.1951 15.0249 18.0374C15.509 17.5833 16.0406 17.182 16.6106 16.8405C16.8506 16.6956 17.0492 16.4916 17.1866 16.2481C17.324 16.0047 17.3959 15.7301 17.3953 15.4509V14.7333C16.0616 15.2621 14.8461 16.0478 13.8189 17.045" fill="#063235"/>
<path d="M13.8299 1.22176C13.7513 1.35742 13.6463 1.47632 13.5209 1.57167C13.3961 1.66701 13.2533 1.73693 13.1009 1.77743C12.9491 1.81793 12.7901 1.82823 12.6335 1.80771C12.4775 1.78721 12.327 1.7363 12.1902 1.6579L10.3398 0.596281C10.4994 0.322237 10.7616 0.122332 11.0694 0.0405395C11.3772 -0.0412527 11.7048 0.00176703 11.9802 0.160137L13.8299 1.22176Z" fill="#063235"/>
<path d="M10.3898 1.21448C10.3232 1.5239 10.136 1.7944 9.86901 1.96653C9.60143 2.13866 9.27684 2.19833 8.96545 2.13241L6.87695 1.69542C6.90995 1.54223 6.97295 1.39699 7.06234 1.26799C7.15174 1.139 7.26573 1.02877 7.39773 0.943611C7.53032 0.858445 7.67791 0.800014 7.83331 0.771659C7.9881 0.743298 8.14709 0.745572 8.30129 0.778337L10.3898 1.21448Z" fill="#063235"/>
<path d="M7.11478 2.26172C7.14778 2.57622 7.05359 2.8909 6.8538 3.13658C6.65341 3.38226 6.36302 3.53882 6.04683 3.57184L3.92053 3.79329C3.88753 3.47879 3.98173 3.16411 4.18152 2.91844C4.38191 2.67275 4.6723 2.5162 4.98848 2.48317L7.11478 2.26172Z" fill="#063235"/>
<path d="M4.32717 4.26367C4.45616 4.55255 4.46456 4.88045 4.35057 5.17538C4.23657 5.4703 4.00918 5.70814 3.71879 5.83666L1.76769 6.6988C1.70349 6.55576 1.66869 6.40163 1.66449 6.2451C1.66029 6.08863 1.68729 5.93283 1.74369 5.78668C1.80008 5.64052 1.88528 5.50686 1.99327 5.39332C2.10187 5.27979 2.23206 5.1886 2.37606 5.12497L4.32717 4.26367Z" fill="#063235"/>
<path d="M2.2978 7.01953C2.4034 7.13563 2.485 7.27128 2.53839 7.41869C2.59119 7.56617 2.61399 7.72252 2.60619 7.87893C2.59839 8.03528 2.5594 8.18852 2.4922 8.32999C2.4244 8.4714 2.3296 8.5983 2.21261 8.70323L0.626284 10.1216C0.520689 10.0055 0.439092 9.87 0.385695 9.72259C0.332897 9.57523 0.310099 9.41888 0.317899 9.26259C0.325698 9.10629 0.364693 8.95312 0.43189 8.81177C0.499687 8.67035 0.594485 8.54358 0.71088 8.43871L2.2978 7.01953Z" fill="#063235"/>
<path d="M1.22874 10.2695C1.50473 10.4276 1.70572 10.688 1.78792 10.9934C1.87071 11.2988 1.82752 11.6243 1.66852 11.8983L0.59997 13.735C0.463176 13.6567 0.343783 13.5525 0.247787 13.4283C0.151791 13.3041 0.081594 13.1622 0.0407958 13.011C-2.27977e-06 12.8597 -0.0101987 12.7019 0.0102003 12.5467C0.0305994 12.3915 0.0821967 12.2418 0.160793 12.1062L1.22874 10.2695Z" fill="#063235"/>
<path d="M1.21953 13.6836C1.53092 13.7493 1.8033 13.9352 1.9767 14.2003C2.15009 14.4655 2.21008 14.7883 2.14409 15.0977L1.70011 17.1719C1.54652 17.1393 1.40012 17.0768 1.27053 16.9881C1.14093 16.8994 1.03054 16.7862 0.944743 16.655C0.858947 16.5238 0.800748 16.377 0.77195 16.2233C0.743151 16.0694 0.745552 15.9116 0.77855 15.7587L1.21953 13.6836Z" fill="#063235"/>
<path d="M2.27539 16.9363C2.43198 16.9198 2.59038 16.9342 2.74157 16.9786C2.89276 17.023 3.03375 17.0965 3.15615 17.195C3.27854 17.2935 3.37994 17.415 3.45553 17.5527C3.53053 17.6903 3.57793 17.8413 3.59413 17.9971L3.81792 20.106C3.66133 20.1225 3.50293 20.1081 3.35174 20.0638C3.20055 20.0194 3.05955 19.9458 2.93716 19.8473C2.81476 19.7488 2.71277 19.6273 2.63777 19.4896C2.56278 19.352 2.51538 19.201 2.49918 19.0452L2.27539 16.9363Z" fill="#063235"/>
<path d="M4.29102 19.7029C4.582 19.5742 4.91199 19.5654 5.20958 19.6786C5.50656 19.7917 5.74655 20.0176 5.87615 20.3064L6.7455 22.2446C6.45452 22.3732 6.12453 22.3819 5.82755 22.269C5.53056 22.156 5.29057 21.9305 5.16038 21.6419L4.29102 19.7029Z" fill="#063235"/>
<path d="M7.07227 21.7161C7.30925 21.5046 7.62064 21.3952 7.93863 21.4118C8.25661 21.4284 8.5548 21.5698 8.76779 21.8048L10.1963 23.3804C9.96053 23.5923 9.64915 23.7025 9.33176 23.6867C9.01378 23.6708 8.71559 23.5302 8.502 23.2959L7.07227 21.7161Z" fill="#063235"/>
<path d="M10.3398 22.7792C10.4994 22.5055 10.7616 22.306 11.0688 22.2242C11.3766 22.1424 11.7036 22.1852 11.9796 22.3431L13.8293 23.403C13.6697 23.677 13.4075 23.877 13.0997 23.9587C12.7919 24.0405 12.4643 23.9975 12.189 23.8392L10.3398 22.7792Z" fill="#063235"/>
<path d="M13.7812 22.7878C13.8472 22.4785 14.0344 22.208 14.3014 22.0358C14.5684 21.8637 14.8936 21.804 15.2044 21.8699L17.2941 22.3111C17.2275 22.6206 17.0403 22.891 16.7727 23.0632C16.5057 23.2353 16.1811 23.295 15.8698 23.2291L13.7812 22.7878Z" fill="#063235"/>
<path d="M17.0534 21.7405C17.0204 21.426 17.114 21.1113 17.3144 20.8657C17.5147 20.62 17.8051 20.4634 18.1213 20.4304L20.247 20.209C20.2638 20.3647 20.2494 20.5222 20.2044 20.6723C20.1594 20.8225 20.0856 20.9624 19.9866 21.084C19.887 21.2057 19.7646 21.3068 19.6267 21.3814C19.4881 21.456 19.3357 21.5028 19.1791 21.5191L17.0534 21.7405Z" fill="#063235"/>
<path d="M19.842 19.7387C19.7124 19.4499 19.704 19.1219 19.818 18.8267C19.932 18.5316 20.1594 18.2935 20.4498 18.1649L22.4057 17.3027C22.5347 17.5917 22.5431 17.9198 22.4291 18.2149C22.3151 18.5101 22.0877 18.7481 21.7967 18.8766L19.842 19.7387Z" fill="#063235"/>
<path d="M21.8679 16.979C21.6549 16.7444 21.5439 16.4354 21.5601 16.1196C21.5763 15.8039 21.7173 15.5074 21.9531 15.2953L23.5401 13.877C23.6457 13.993 23.7272 14.1287 23.78 14.2761C23.8334 14.4236 23.8562 14.5799 23.8484 14.7363C23.8406 14.8927 23.8016 15.0459 23.7344 15.1874C23.6666 15.3288 23.5719 15.4557 23.4549 15.5607L21.8679 16.979Z" fill="#063235"/>
<path d="M22.9404 13.735C22.8036 13.6568 22.6842 13.5526 22.5882 13.4284C22.4922 13.3043 22.422 13.1625 22.3806 13.0112C22.3398 12.8599 22.3296 12.7021 22.35 12.5468C22.371 12.3916 22.422 12.2418 22.5006 12.1062L23.5704 10.2695C23.7072 10.3477 23.8266 10.4519 23.9226 10.5761C24.0186 10.7003 24.0894 10.8421 24.1302 10.9933C24.171 11.1446 24.1812 11.3024 24.1608 11.4577C24.1404 11.6129 24.0888 11.7627 24.0102 11.8983L22.9404 13.735Z" fill="#063235"/>
<path d="M22.9492 10.3156C22.795 10.2832 22.6486 10.221 22.5184 10.1324C22.3888 10.0438 22.2772 9.93052 22.1914 9.79919C22.1056 9.66785 22.0468 9.52092 22.018 9.36691C21.9892 9.21283 21.9916 9.05474 22.0246 8.90151L22.4686 6.82812C22.6228 6.86052 22.7692 6.92274 22.8988 7.01136C23.029 7.09997 23.14 7.21325 23.2258 7.34458C23.3116 7.47591 23.371 7.62285 23.3992 7.77686C23.428 7.93093 23.4256 8.08903 23.3932 8.24226L22.9492 10.3156Z" fill="#063235"/>
<path d="M21.8921 7.06692C21.7355 7.08354 21.5772 7.06926 21.426 7.02493C21.2748 6.98059 21.1338 6.90709 21.0114 6.80852C20.8884 6.71 20.787 6.58839 20.712 6.45069C20.6364 6.313 20.5896 6.16193 20.5734 6.00617L20.3496 3.89727C20.5062 3.88075 20.6646 3.8951 20.8158 3.93948C20.967 3.98386 21.108 4.05742 21.2304 4.15594C21.3528 4.25445 21.4542 4.376 21.5298 4.51363C21.6048 4.65127 21.6521 4.80228 21.6683 4.95805L21.8921 7.06692Z" fill="#063235"/>
<path d="M19.8758 4.29842C19.7324 4.3623 19.577 4.39735 19.4192 4.40159C19.262 4.40582 19.1048 4.37916 18.9578 4.32311C18.8102 4.26707 18.6758 4.18274 18.5612 4.07495C18.4472 3.96717 18.3548 3.83803 18.2906 3.69492L17.4219 1.75763C17.7123 1.62886 18.0428 1.6201 18.3398 1.73326C18.6374 1.84643 18.8774 2.07226 19.007 2.36113L19.8758 4.29842Z" fill="#063235"/>
<path d="M17.0979 2.28627C16.8615 2.49851 16.5501 2.60883 16.2322 2.59298C15.9142 2.57713 15.616 2.4364 15.4024 2.20175L13.9727 0.62622C14.209 0.414194 14.5198 0.304013 14.8378 0.31986C15.1558 0.335707 15.4546 0.476287 15.6682 0.710744L17.0979 2.28627Z" fill="#063235"/>
<path d="M17.3966 13.5288L17.2334 13.3656C16.928 13.0599 16.5344 12.8572 16.1066 12.7861C15.6794 12.7149 15.2409 12.779 14.8521 12.9692C12.9856 13.8871 11.3878 15.2741 10.3451 17.045C9.31913 16.0479 8.10538 15.2623 6.77344 14.7332V15.4508C6.77284 15.73 6.84484 16.0046 6.98223 16.2481C7.11962 16.4916 7.31822 16.6955 7.5582 16.8404C8.12818 17.1819 8.65976 17.5828 9.14453 18.0364C9.31313 18.1948 9.53692 18.2828 9.76911 18.2823C9.76911 18.2823 11.4436 18.2823 11.4418 18.2773C12.0406 17.1131 12.8812 16.088 13.9071 15.2696C14.9331 14.4512 16.1216 13.8579 17.3948 13.5288" fill="#063235"/>
</svg>
