<svg width="165" height="102" viewBox="0 0 165 102" fill="none" xmlns="http://www.w3.org/2000/svg">
<path d="M106.831 30.5059L76.6111 37.5693L69.4713 39.211L69.4522 39.2683L52.9581 43.1245L45.8184 44.7663L41.5039 62.902L51.4881 60.573L78.9974 54.1396L79.0165 54.1014L102.65 48.5843L106.831 30.5059Z" fill="#063235"/>
<path d="M110.647 6.75977L106.524 24.8191L67.7129 33.9634L68.8774 28.2554L71.3401 16.0185L102.629 8.63061L103.832 8.36335L104.977 8.077L105.55 7.94336L107.555 7.48519L110.647 6.75977Z" fill="#063235"/>
<path d="M41.6743 62.9023L37.5126 80.9808L10.0034 87.3951L0 89.7241L4.33347 71.5884L11.4734 69.9466L41.6743 62.9023Z" fill="#063235"/>
<path d="M158.05 41.7109L153.678 59.8467L107.479 70.6136L100.416 72.2553L93.9058 73.7635L72.4863 78.746L76.1899 60.3621L97.953 55.4177L104.444 53.9287L158.05 41.7109Z" fill="#063235"/>
<path d="M145.469 27.393L154.918 36.8236L164.349 27.393L154.918 17.9434L145.469 27.393Z" fill="#77B0A9"/>
<path d="M145.469 9.44967L154.918 18.8802L164.349 9.44967L154.918 0L145.469 9.44967Z" fill="#77B0A9"/>
<path d="M47.6484 92.5688L57.0791 101.999L66.5288 92.5688L57.0791 83.1191L47.6484 92.5688Z" fill="#77B0A9"/>
<path d="M47.6484 73.6508L57.0791 83.1005L66.5288 73.6508L57.0791 64.2012L47.6484 73.6508Z" fill="#77B0A9"/>
</svg>
