<svg width="77" height="77" viewBox="0 0 77 77" fill="none" xmlns="http://www.w3.org/2000/svg">
<mask id="path-1-inside-1_3196_22392" fill="white">
<path d="M21.3388 0H7.12521C3.19634 0 0.000149738 3.19634 0.000149738 7.12521V53.5187C0.000149738 53.8207 0.120111 54.1103 0.333644 54.3238C0.547176 54.5374 0.836789 54.6573 1.13877 54.6573C1.44075 54.6573 1.73036 54.5374 1.9439 54.3238C2.15743 54.1103 2.27739 53.8207 2.27739 53.5187V7.12521C2.27739 4.45206 4.45221 2.27724 7.12521 2.27724H21.3389C24.0119 2.27724 26.1869 4.45206 26.1869 7.12521V69.5418C26.1869 72.2148 24.0121 74.3896 21.3389 74.3896H7.12521C4.45221 74.3896 2.27724 72.2148 2.27724 69.5418V57.3143C2.27724 57.0123 2.15728 56.7227 1.94375 56.5092C1.73021 56.2957 1.4406 56.1757 1.13862 56.1757C0.836639 56.1757 0.547027 56.2957 0.333494 56.5092C0.119961 56.7227 0 57.0123 0 57.3143V69.5418C0.00014974 73.4703 3.19634 76.6667 7.12521 76.6667H21.3389C25.2678 76.6667 28.4641 73.4703 28.4641 69.5416V7.12521C28.464 3.19634 25.2677 0 21.3388 0ZM69.7509 4.06243H30.8046C30.5026 4.06243 30.213 4.1824 29.9994 4.39593C29.7859 4.60946 29.666 4.89907 29.666 5.20105C29.666 5.50304 29.7859 5.79265 29.9994 6.00618C30.213 6.21971 30.5026 6.33967 30.8046 6.33967H69.7511C72.2189 6.33967 74.2267 8.34738 74.2267 10.8152V65.8513C74.2267 68.319 72.2189 70.3268 69.7511 70.3268H30.8046C30.5026 70.3268 30.213 70.4468 29.9994 70.6603C29.7859 70.8739 29.666 71.1635 29.666 71.4655C29.666 71.7674 29.7859 72.0571 29.9994 72.2706C30.213 72.4841 30.5026 72.6041 30.8046 72.6041H69.7511C73.4745 72.6041 76.5039 69.5747 76.5039 65.8513V10.8152C76.5037 7.09182 73.4744 4.06243 69.7509 4.06243Z"/>
</mask>
<path d="M21.3388 0H7.12521C3.19634 0 0.000149738 3.19634 0.000149738 7.12521V53.5187C0.000149738 53.8207 0.120111 54.1103 0.333644 54.3238C0.547176 54.5374 0.836789 54.6573 1.13877 54.6573C1.44075 54.6573 1.73036 54.5374 1.9439 54.3238C2.15743 54.1103 2.27739 53.8207 2.27739 53.5187V7.12521C2.27739 4.45206 4.45221 2.27724 7.12521 2.27724H21.3389C24.0119 2.27724 26.1869 4.45206 26.1869 7.12521V69.5418C26.1869 72.2148 24.0121 74.3896 21.3389 74.3896H7.12521C4.45221 74.3896 2.27724 72.2148 2.27724 69.5418V57.3143C2.27724 57.0123 2.15728 56.7227 1.94375 56.5092C1.73021 56.2957 1.4406 56.1757 1.13862 56.1757C0.836639 56.1757 0.547027 56.2957 0.333494 56.5092C0.119961 56.7227 0 57.0123 0 57.3143V69.5418C0.00014974 73.4703 3.19634 76.6667 7.12521 76.6667H21.3389C25.2678 76.6667 28.4641 73.4703 28.4641 69.5416V7.12521C28.464 3.19634 25.2677 0 21.3388 0ZM69.7509 4.06243H30.8046C30.5026 4.06243 30.213 4.1824 29.9994 4.39593C29.7859 4.60946 29.666 4.89907 29.666 5.20105C29.666 5.50304 29.7859 5.79265 29.9994 6.00618C30.213 6.21971 30.5026 6.33967 30.8046 6.33967H69.7511C72.2189 6.33967 74.2267 8.34738 74.2267 10.8152V65.8513C74.2267 68.319 72.2189 70.3268 69.7511 70.3268H30.8046C30.5026 70.3268 30.213 70.4468 29.9994 70.6603C29.7859 70.8739 29.666 71.1635 29.666 71.4655C29.666 71.7674 29.7859 72.0571 29.9994 72.2706C30.213 72.4841 30.5026 72.6041 30.8046 72.6041H69.7511C73.4745 72.6041 76.5039 69.5747 76.5039 65.8513V10.8152C76.5037 7.09182 73.4744 4.06243 69.7509 4.06243Z" fill="#162950"/>
<path d="M0.000149738 53.5187L-7.99985 53.5187L0.000149738 53.5187ZM2.27739 53.5187H10.2774H2.27739ZM2.27724 57.3143L10.2772 57.3143L2.27724 57.3143ZM0 57.3143H-8H0ZM0 69.5418L-8 69.5418L-8 69.5421L0 69.5418ZM28.4641 7.12521L36.4641 7.12521L36.4641 7.1249L28.4641 7.12521ZM30.8046 70.3268V78.3268V70.3268ZM76.5039 10.8152L84.5039 10.8152L84.5039 10.8149L76.5039 10.8152ZM21.3388 0V-8H7.12521V0V8H21.3388V0ZM7.12521 0V-8C-1.22216 -8 -7.99985 -1.22172 -7.99985 7.12521H0.000149738H8.00015C8.00015 7.6144 7.61484 8 7.12521 8V0ZM0.000149738 7.12521H-7.99985V53.5187H0.000149738H8.00015V7.12521H0.000149738ZM0.000149738 53.5187L-7.99985 53.5187C-7.99985 55.9424 -7.03705 58.2669 -5.32321 59.9807L0.333644 54.3238L5.9905 48.667C7.27727 49.9538 8.00015 51.699 8.00015 53.5187L0.000149738 53.5187ZM0.333644 54.3238L-5.32321 59.9807C-3.60935 61.6946 -1.2849 62.6573 1.13877 62.6573V54.6573V46.6573C2.95847 46.6573 4.70371 47.3802 5.9905 48.667L0.333644 54.3238ZM1.13877 54.6573V62.6573C3.56243 62.6573 5.88689 61.6946 7.60075 59.9807L1.9439 54.3238L-3.71296 48.667C-2.42617 47.3802 -0.680934 46.6573 1.13877 46.6573V54.6573ZM1.9439 54.3238L7.60075 59.9807C9.31459 58.2669 10.2774 55.9424 10.2774 53.5187L2.27739 53.5187L-5.72261 53.5187C-5.72261 51.699 -4.99973 49.9538 -3.71296 48.667L1.9439 54.3238ZM2.27739 53.5187H10.2774V7.12521H2.27739H-5.72261V53.5187H2.27739ZM2.27739 7.12521H10.2774C10.2774 8.87017 8.87065 10.2772 7.12521 10.2772V2.27724V-5.72276C0.0337678 -5.72276 -5.72261 0.0339402 -5.72261 7.12521H2.27739ZM7.12521 2.27724V10.2772H21.3389V2.27724V-5.72276H7.12521V2.27724ZM21.3389 2.27724V10.2772C19.5938 10.2772 18.1869 8.8705 18.1869 7.12521H26.1869H34.1869C34.1869 0.033616 28.4301 -5.72276 21.3389 -5.72276V2.27724ZM26.1869 7.12521H18.1869V69.5418H26.1869H34.1869V7.12521H26.1869ZM26.1869 69.5418H18.1869C18.1869 67.7963 19.594 66.3896 21.3389 66.3896V74.3896V82.3896C28.4302 82.3896 34.1869 76.6332 34.1869 69.5418H26.1869ZM21.3389 74.3896V66.3896H7.12521V74.3896V82.3896H21.3389V74.3896ZM7.12521 74.3896V66.3896C8.87016 66.3896 10.2772 67.7962 10.2772 69.5418H2.27724H-5.72276C-5.72276 76.6334 0.0342503 82.3896 7.12521 82.3896V74.3896ZM2.27724 69.5418H10.2772V57.3143H2.27724H-5.72276V69.5418H2.27724ZM2.27724 57.3143L10.2772 57.3143C10.2772 54.8906 9.31444 52.5662 7.6006 50.8523L1.94375 56.5092L-3.71311 62.166C-4.99989 60.8793 -5.72276 59.134 -5.72276 57.3143L2.27724 57.3143ZM1.94375 56.5092L7.6006 50.8523C5.88674 49.1385 3.56228 48.1757 1.13862 48.1757V56.1757V64.1757C-0.681083 64.1757 -2.42632 63.4528 -3.71311 62.166L1.94375 56.5092ZM1.13862 56.1757V48.1757C-1.28505 48.1757 -3.6095 49.1385 -5.32336 50.8523L0.333494 56.5092L5.99035 62.166C4.70356 63.4528 2.95832 64.1757 1.13862 64.1757V56.1757ZM0.333494 56.5092L-5.32336 50.8523C-7.0372 52.5662 -8 54.8906 -8 57.3143L0 57.3143L8 57.3143C8 59.134 7.27712 60.8793 5.99035 62.166L0.333494 56.5092ZM0 57.3143H-8V69.5418H0H8V57.3143H0ZM0 69.5418L-8 69.5421C-7.99968 77.8886 -1.222 84.6667 7.12521 84.6667V76.6667V68.6667C7.61468 68.6667 7.99998 69.052 8 69.5415L0 69.5418ZM7.12521 76.6667V84.6667H21.3389V76.6667V68.6667H7.12521V76.6667ZM21.3389 76.6667V84.6667C29.686 84.6667 36.4641 77.8887 36.4641 69.5416H28.4641H20.4641C20.4641 69.0519 20.8496 68.6667 21.3389 68.6667V76.6667ZM28.4641 69.5416H36.4641V7.12521H28.4641H20.4641V69.5416H28.4641ZM28.4641 7.12521L36.4641 7.1249C36.4638 -1.22194 29.686 -8 21.3388 -8V0V8C20.8493 8 20.4642 7.61462 20.4641 7.12551L28.4641 7.12521ZM69.7509 4.06243V-3.93757H30.8046V4.06243V12.0624H69.7509V4.06243ZM30.8046 4.06243V-3.93757C28.3809 -3.93757 26.0564 -2.97475 24.3426 -1.26093L29.9994 4.39593L35.6563 10.0528C34.3695 11.3395 32.6243 12.0624 30.8046 12.0624V4.06243ZM29.9994 4.39593L24.3426 -1.26093C22.6288 0.452903 21.666 2.77735 21.666 5.20105H29.666H37.666C37.666 7.0208 36.9431 8.76602 35.6563 10.0528L29.9994 4.39593ZM29.666 5.20105H21.666C21.666 7.62476 22.6288 9.94921 24.3426 11.663L29.9994 6.00618L35.6563 0.349326C36.9431 1.63609 37.666 3.38131 37.666 5.20105H29.666ZM29.9994 6.00618L24.3426 11.663C26.0564 13.3769 28.3809 14.3397 30.8046 14.3397V6.33967V-1.66033C32.6243 -1.66033 34.3695 -0.937435 35.6563 0.349326L29.9994 6.00618ZM30.8046 6.33967V14.3397H69.7511V6.33967V-1.66033H30.8046V6.33967ZM69.7511 6.33967V14.3397C67.8007 14.3397 66.2267 12.7657 66.2267 10.8152H74.2267H82.2267C82.2267 3.9291 76.6372 -1.66033 69.7511 -1.66033V6.33967ZM74.2267 10.8152H66.2267V65.8513H74.2267H82.2267V10.8152H74.2267ZM74.2267 65.8513H66.2267C66.2267 63.9009 67.8005 62.3268 69.7511 62.3268V70.3268V78.3268C76.6374 78.3268 82.2267 72.7371 82.2267 65.8513H74.2267ZM69.7511 70.3268V62.3268H30.8046V70.3268V78.3268H69.7511V70.3268ZM30.8046 70.3268L30.8046 62.3268C28.3809 62.3268 26.0565 63.2896 24.3426 65.0035L29.9994 70.6603L35.6563 76.3172C34.3695 77.604 32.6243 78.3268 30.8046 78.3268L30.8046 70.3268ZM29.9994 70.6603L24.3426 65.0035C22.6287 66.7173 21.666 69.0418 21.666 71.4655H29.666H37.666C37.666 73.2852 36.9431 75.0304 35.6563 76.3172L29.9994 70.6603ZM29.666 71.4655H21.666C21.666 73.8892 22.6288 76.2136 24.3426 77.9274L29.9994 72.2706L35.6563 66.6137C36.9431 67.9005 37.666 69.6457 37.666 71.4655H29.666ZM29.9994 72.2706L24.3426 77.9274C26.0565 79.6413 28.3809 80.6041 30.8046 80.6041V72.6041V64.6041C32.6243 64.6041 34.3695 65.3269 35.6563 66.6137L29.9994 72.2706ZM30.8046 72.6041V80.6041H69.7511V72.6041V64.6041H30.8046V72.6041ZM69.7511 72.6041V80.6041C77.8928 80.6041 84.5039 73.993 84.5039 65.8513H76.5039H68.5039C68.5039 65.1564 69.0562 64.6041 69.7511 64.6041V72.6041ZM76.5039 65.8513H84.5039V10.8152H76.5039H68.5039V65.8513H76.5039ZM76.5039 10.8152L84.5039 10.8149C84.5036 2.67353 77.8927 -3.93757 69.7509 -3.93757V4.06243V12.0624C69.056 12.0624 68.5039 11.5101 68.5039 10.8156L76.5039 10.8152Z" fill="white" mask="url(#path-1-inside-1_3196_22392)"/>
<mask id="path-3-inside-2_3196_22392" fill="white">
<path d="M66.6072 11.5449H64.2159C63.9139 11.5449 63.6243 11.6649 63.4108 11.8784C63.1972 12.0919 63.0773 12.3816 63.0773 12.6835C63.0773 12.9855 63.1972 13.2751 63.4108 13.4887C63.6243 13.7022 63.9139 13.8222 64.2159 13.8222H66.6072C67.4646 13.8222 68.1624 14.5199 68.1624 15.3774V22.9692C68.1624 23.8266 67.4646 24.5243 66.6072 24.5243H35.4752C34.6178 24.5243 33.92 23.8266 33.92 22.9692V15.3774C33.9198 14.5199 34.6176 13.8222 35.4752 13.8222H60.4204C60.7224 13.8222 61.012 13.7022 61.2256 13.4887C61.4391 13.2751 61.559 12.9855 61.559 12.6835C61.559 12.3816 61.4391 12.0919 61.2256 11.8784C61.012 11.6649 60.7224 11.5449 60.4204 11.5449H35.4752C33.3619 11.5449 31.6427 13.2642 31.6427 15.3774V22.9692C31.6427 25.0824 33.3619 26.8016 35.4752 26.8016H66.6074C68.7206 26.8016 70.4398 25.0824 70.4398 22.9692V15.3774C70.4397 13.2642 68.7205 11.5449 66.6072 11.5449ZM40.1539 30.3691H35.286C33.2771 30.3691 31.6426 32.0035 31.6426 34.0127C31.6426 36.0217 33.277 37.6562 35.286 37.6562H40.1539C42.1628 37.6562 43.7974 36.0218 43.7974 34.0127C43.7974 32.0037 42.163 30.3691 40.1539 30.3691ZM40.1539 35.379H35.286C34.5327 35.379 33.9198 34.7661 33.9198 34.0127C33.9198 33.2593 34.5329 32.6464 35.286 32.6464H40.1539C40.9073 32.6464 41.5202 33.2593 41.5202 34.0127C41.5202 34.7661 40.9073 35.379 40.1539 35.379ZM53.4751 30.3693H48.6073C46.5984 30.3693 44.9639 32.0037 44.9639 34.0129C44.9639 36.0218 46.5983 37.6564 48.6073 37.6564H53.4751C55.484 37.6564 57.1185 36.022 57.1185 34.0129C57.1185 32.0037 55.4841 30.3693 53.4751 30.3693ZM53.4751 35.3788H48.6073C47.854 35.3788 47.2411 34.7659 47.2411 34.0126C47.2411 33.2593 47.854 32.6462 48.6073 32.6462H53.4751C54.2284 32.6462 54.8413 33.2591 54.8413 34.0126C54.8413 34.7659 54.2284 35.3788 53.4751 35.3788ZM66.7963 30.3693H61.9285C59.9196 30.3693 58.285 32.0037 58.285 34.0129C58.285 36.0218 59.9194 37.6564 61.9285 37.6564H66.7963C68.8052 37.6564 70.4398 36.022 70.4398 34.0129C70.4397 32.0037 68.8052 30.3693 66.7963 30.3693ZM66.7963 35.3788H61.9285C61.1751 35.3788 60.5622 34.7659 60.5622 34.0126C60.5622 33.2593 61.1751 32.6462 61.9285 32.6462H66.7963C67.5497 32.6462 68.1626 33.2591 68.1626 34.0126C68.1624 34.7659 67.5495 35.3788 66.7963 35.3788ZM40.1539 39.7052H35.286C33.2771 39.7052 31.6426 41.3397 31.6426 43.3489C31.6426 45.3578 33.277 46.9923 35.286 46.9923H40.1539C42.1628 46.9923 43.7974 45.3579 43.7974 43.3487C43.7974 41.3397 42.163 39.7052 40.1539 39.7052ZM40.1539 44.7152H35.286C34.5327 44.7152 33.9198 44.1023 33.9198 43.3489C33.9198 42.5955 34.5329 41.9826 35.286 41.9826H40.1539C40.9073 41.9826 41.5202 42.5955 41.5202 43.349C41.5202 44.1023 40.9073 44.7152 40.1539 44.7152ZM53.4751 39.7054H48.6073C46.5984 39.7054 44.9639 41.3398 44.9639 43.349C44.9639 45.3579 46.5983 46.9925 48.6073 46.9925H53.4751C55.484 46.9925 57.1185 45.3581 57.1185 43.3489C57.1185 41.3398 55.4841 39.7054 53.4751 39.7054ZM53.4751 44.7151H48.6073C47.854 44.7151 47.2411 44.1022 47.2411 43.3487C47.2411 42.5954 47.854 41.9825 48.6073 41.9825H53.4751C54.2284 41.9825 54.8413 42.5954 54.8413 43.3489C54.8413 44.1022 54.2284 44.7151 53.4751 44.7151ZM66.7963 39.7054H61.9285C59.9196 39.7054 58.285 41.3398 58.285 43.349C58.285 45.3579 59.9194 46.9925 61.9285 46.9925H66.7963C68.8052 46.9925 70.4398 45.3581 70.4398 43.3489C70.4397 41.3398 68.8052 39.7054 66.7963 39.7054ZM66.7963 44.7151H61.9285C61.1751 44.7151 60.5622 44.1022 60.5622 43.3487C60.5622 42.5954 61.1751 41.9825 61.9285 41.9825H66.7963C67.5497 41.9825 68.1626 42.5954 68.1626 43.3489C68.1624 44.1022 67.5495 44.7151 66.7963 44.7151ZM40.1539 49.0415H35.286C33.2771 49.0415 31.6426 50.6759 31.6426 52.685C31.6426 54.694 33.277 56.3286 35.286 56.3286H40.1539C42.1628 56.3286 43.7974 54.6942 43.7974 52.685C43.7974 50.6759 42.163 49.0415 40.1539 49.0415ZM40.1539 54.0513H35.286C34.5327 54.0513 33.9198 53.4385 33.9198 52.685C33.9198 51.9316 34.5329 51.3187 35.286 51.3187H40.1539C40.9073 51.3187 41.5202 51.9316 41.5202 52.685C41.5202 53.4383 40.9073 54.0513 40.1539 54.0513ZM53.4751 49.0417H48.6073C46.5984 49.0417 44.9639 50.6761 44.9639 52.6851C44.9639 54.6942 46.5983 56.3287 48.6073 56.3287H53.4751C55.484 56.3287 57.1185 54.6943 57.1185 52.6851C57.1185 50.6761 55.4841 49.0417 53.4751 49.0417ZM53.4751 54.0512H48.6073C47.854 54.0512 47.2411 53.4383 47.2411 52.6848C47.2411 51.9315 47.854 51.3186 48.6073 51.3186H53.4751C54.2284 51.3186 54.8413 51.9315 54.8413 52.6848C54.8413 53.4383 54.2284 54.0512 53.4751 54.0512ZM66.7963 49.0417H61.9285C59.9196 49.0417 58.285 50.6761 58.285 52.6851C58.285 54.6942 59.9194 56.3287 61.9285 56.3287H66.7963C68.8052 56.3287 70.4398 54.6943 70.4398 52.6851C70.4397 50.6761 68.8052 49.0417 66.7963 49.0417ZM66.7963 54.0512H61.9285C61.1751 54.0512 60.5622 53.4383 60.5622 52.6848C60.5622 51.9315 61.1751 51.3186 61.9285 51.3186H66.7963C67.5497 51.3186 68.1626 51.9315 68.1626 52.6848C68.1624 53.4383 67.5495 54.0512 66.7963 54.0512ZM40.1539 58.3778H35.286C33.2771 58.3778 31.6426 60.0122 31.6426 62.0212C31.6426 64.0301 33.277 65.6647 35.286 65.6647H40.1539C42.1628 65.6647 43.7974 64.0303 43.7974 62.0212C43.7974 60.0122 42.163 58.3778 40.1539 58.3778ZM40.1539 63.3875H35.286C34.5327 63.3875 33.9198 62.7746 33.9198 62.0212C33.9198 61.2679 34.5329 60.655 35.286 60.655H40.1539C40.9073 60.655 41.5202 61.2679 41.5202 62.0212C41.5202 62.7746 40.9073 63.3875 40.1539 63.3875ZM53.4751 58.3778H48.6073C46.5984 58.3778 44.9639 60.0122 44.9639 62.0212C44.9639 64.0301 46.5983 65.6647 48.6073 65.6647H53.4751C55.484 65.6647 57.1185 64.0303 57.1185 62.0212C57.1185 60.0122 55.4841 58.3778 53.4751 58.3778ZM53.4751 63.3875H48.6073C47.854 63.3875 47.2411 62.7746 47.2411 62.0212C47.2411 61.2679 47.854 60.655 48.6073 60.655H53.4751C54.2284 60.655 54.8413 61.2679 54.8413 62.0212C54.8413 62.7746 54.2284 63.3875 53.4751 63.3875ZM66.7963 58.3778H61.9285C59.9196 58.3778 58.285 60.0122 58.285 62.0212C58.285 64.0301 59.9194 65.6647 61.9285 65.6647H66.7963C68.8052 65.6647 70.4398 64.0303 70.4398 62.0212C70.4397 60.0122 68.8052 58.3778 66.7963 58.3778ZM66.7963 63.3875H61.9285C61.1751 63.3875 60.5622 62.7746 60.5622 62.0212C60.5622 61.2679 61.1751 60.655 61.9285 60.655H66.7963C67.5497 60.655 68.1626 61.2679 68.1626 62.0212C68.1624 62.7746 67.5495 63.3875 66.7963 63.3875Z"/>
</mask>
<path d="M66.6072 11.5449H64.2159C63.9139 11.5449 63.6243 11.6649 63.4108 11.8784C63.1972 12.0919 63.0773 12.3816 63.0773 12.6835C63.0773 12.9855 63.1972 13.2751 63.4108 13.4887C63.6243 13.7022 63.9139 13.8222 64.2159 13.8222H66.6072C67.4646 13.8222 68.1624 14.5199 68.1624 15.3774V22.9692C68.1624 23.8266 67.4646 24.5243 66.6072 24.5243H35.4752C34.6178 24.5243 33.92 23.8266 33.92 22.9692V15.3774C33.9198 14.5199 34.6176 13.8222 35.4752 13.8222H60.4204C60.7224 13.8222 61.012 13.7022 61.2256 13.4887C61.4391 13.2751 61.559 12.9855 61.559 12.6835C61.559 12.3816 61.4391 12.0919 61.2256 11.8784C61.012 11.6649 60.7224 11.5449 60.4204 11.5449H35.4752C33.3619 11.5449 31.6427 13.2642 31.6427 15.3774V22.9692C31.6427 25.0824 33.3619 26.8016 35.4752 26.8016H66.6074C68.7206 26.8016 70.4398 25.0824 70.4398 22.9692V15.3774C70.4397 13.2642 68.7205 11.5449 66.6072 11.5449ZM40.1539 30.3691H35.286C33.2771 30.3691 31.6426 32.0035 31.6426 34.0127C31.6426 36.0217 33.277 37.6562 35.286 37.6562H40.1539C42.1628 37.6562 43.7974 36.0218 43.7974 34.0127C43.7974 32.0037 42.163 30.3691 40.1539 30.3691ZM40.1539 35.379H35.286C34.5327 35.379 33.9198 34.7661 33.9198 34.0127C33.9198 33.2593 34.5329 32.6464 35.286 32.6464H40.1539C40.9073 32.6464 41.5202 33.2593 41.5202 34.0127C41.5202 34.7661 40.9073 35.379 40.1539 35.379ZM53.4751 30.3693H48.6073C46.5984 30.3693 44.9639 32.0037 44.9639 34.0129C44.9639 36.0218 46.5983 37.6564 48.6073 37.6564H53.4751C55.484 37.6564 57.1185 36.022 57.1185 34.0129C57.1185 32.0037 55.4841 30.3693 53.4751 30.3693ZM53.4751 35.3788H48.6073C47.854 35.3788 47.2411 34.7659 47.2411 34.0126C47.2411 33.2593 47.854 32.6462 48.6073 32.6462H53.4751C54.2284 32.6462 54.8413 33.2591 54.8413 34.0126C54.8413 34.7659 54.2284 35.3788 53.4751 35.3788ZM66.7963 30.3693H61.9285C59.9196 30.3693 58.285 32.0037 58.285 34.0129C58.285 36.0218 59.9194 37.6564 61.9285 37.6564H66.7963C68.8052 37.6564 70.4398 36.022 70.4398 34.0129C70.4397 32.0037 68.8052 30.3693 66.7963 30.3693ZM66.7963 35.3788H61.9285C61.1751 35.3788 60.5622 34.7659 60.5622 34.0126C60.5622 33.2593 61.1751 32.6462 61.9285 32.6462H66.7963C67.5497 32.6462 68.1626 33.2591 68.1626 34.0126C68.1624 34.7659 67.5495 35.3788 66.7963 35.3788ZM40.1539 39.7052H35.286C33.2771 39.7052 31.6426 41.3397 31.6426 43.3489C31.6426 45.3578 33.277 46.9923 35.286 46.9923H40.1539C42.1628 46.9923 43.7974 45.3579 43.7974 43.3487C43.7974 41.3397 42.163 39.7052 40.1539 39.7052ZM40.1539 44.7152H35.286C34.5327 44.7152 33.9198 44.1023 33.9198 43.3489C33.9198 42.5955 34.5329 41.9826 35.286 41.9826H40.1539C40.9073 41.9826 41.5202 42.5955 41.5202 43.349C41.5202 44.1023 40.9073 44.7152 40.1539 44.7152ZM53.4751 39.7054H48.6073C46.5984 39.7054 44.9639 41.3398 44.9639 43.349C44.9639 45.3579 46.5983 46.9925 48.6073 46.9925H53.4751C55.484 46.9925 57.1185 45.3581 57.1185 43.3489C57.1185 41.3398 55.4841 39.7054 53.4751 39.7054ZM53.4751 44.7151H48.6073C47.854 44.7151 47.2411 44.1022 47.2411 43.3487C47.2411 42.5954 47.854 41.9825 48.6073 41.9825H53.4751C54.2284 41.9825 54.8413 42.5954 54.8413 43.3489C54.8413 44.1022 54.2284 44.7151 53.4751 44.7151ZM66.7963 39.7054H61.9285C59.9196 39.7054 58.285 41.3398 58.285 43.349C58.285 45.3579 59.9194 46.9925 61.9285 46.9925H66.7963C68.8052 46.9925 70.4398 45.3581 70.4398 43.3489C70.4397 41.3398 68.8052 39.7054 66.7963 39.7054ZM66.7963 44.7151H61.9285C61.1751 44.7151 60.5622 44.1022 60.5622 43.3487C60.5622 42.5954 61.1751 41.9825 61.9285 41.9825H66.7963C67.5497 41.9825 68.1626 42.5954 68.1626 43.3489C68.1624 44.1022 67.5495 44.7151 66.7963 44.7151ZM40.1539 49.0415H35.286C33.2771 49.0415 31.6426 50.6759 31.6426 52.685C31.6426 54.694 33.277 56.3286 35.286 56.3286H40.1539C42.1628 56.3286 43.7974 54.6942 43.7974 52.685C43.7974 50.6759 42.163 49.0415 40.1539 49.0415ZM40.1539 54.0513H35.286C34.5327 54.0513 33.9198 53.4385 33.9198 52.685C33.9198 51.9316 34.5329 51.3187 35.286 51.3187H40.1539C40.9073 51.3187 41.5202 51.9316 41.5202 52.685C41.5202 53.4383 40.9073 54.0513 40.1539 54.0513ZM53.4751 49.0417H48.6073C46.5984 49.0417 44.9639 50.6761 44.9639 52.6851C44.9639 54.6942 46.5983 56.3287 48.6073 56.3287H53.4751C55.484 56.3287 57.1185 54.6943 57.1185 52.6851C57.1185 50.6761 55.4841 49.0417 53.4751 49.0417ZM53.4751 54.0512H48.6073C47.854 54.0512 47.2411 53.4383 47.2411 52.6848C47.2411 51.9315 47.854 51.3186 48.6073 51.3186H53.4751C54.2284 51.3186 54.8413 51.9315 54.8413 52.6848C54.8413 53.4383 54.2284 54.0512 53.4751 54.0512ZM66.7963 49.0417H61.9285C59.9196 49.0417 58.285 50.6761 58.285 52.6851C58.285 54.6942 59.9194 56.3287 61.9285 56.3287H66.7963C68.8052 56.3287 70.4398 54.6943 70.4398 52.6851C70.4397 50.6761 68.8052 49.0417 66.7963 49.0417ZM66.7963 54.0512H61.9285C61.1751 54.0512 60.5622 53.4383 60.5622 52.6848C60.5622 51.9315 61.1751 51.3186 61.9285 51.3186H66.7963C67.5497 51.3186 68.1626 51.9315 68.1626 52.6848C68.1624 53.4383 67.5495 54.0512 66.7963 54.0512ZM40.1539 58.3778H35.286C33.2771 58.3778 31.6426 60.0122 31.6426 62.0212C31.6426 64.0301 33.277 65.6647 35.286 65.6647H40.1539C42.1628 65.6647 43.7974 64.0303 43.7974 62.0212C43.7974 60.0122 42.163 58.3778 40.1539 58.3778ZM40.1539 63.3875H35.286C34.5327 63.3875 33.9198 62.7746 33.9198 62.0212C33.9198 61.2679 34.5329 60.655 35.286 60.655H40.1539C40.9073 60.655 41.5202 61.2679 41.5202 62.0212C41.5202 62.7746 40.9073 63.3875 40.1539 63.3875ZM53.4751 58.3778H48.6073C46.5984 58.3778 44.9639 60.0122 44.9639 62.0212C44.9639 64.0301 46.5983 65.6647 48.6073 65.6647H53.4751C55.484 65.6647 57.1185 64.0303 57.1185 62.0212C57.1185 60.0122 55.4841 58.3778 53.4751 58.3778ZM53.4751 63.3875H48.6073C47.854 63.3875 47.2411 62.7746 47.2411 62.0212C47.2411 61.2679 47.854 60.655 48.6073 60.655H53.4751C54.2284 60.655 54.8413 61.2679 54.8413 62.0212C54.8413 62.7746 54.2284 63.3875 53.4751 63.3875ZM66.7963 58.3778H61.9285C59.9196 58.3778 58.285 60.0122 58.285 62.0212C58.285 64.0301 59.9194 65.6647 61.9285 65.6647H66.7963C68.8052 65.6647 70.4398 64.0303 70.4398 62.0212C70.4397 60.0122 68.8052 58.3778 66.7963 58.3778ZM66.7963 63.3875H61.9285C61.1751 63.3875 60.5622 62.7746 60.5622 62.0212C60.5622 61.2679 61.1751 60.655 61.9285 60.655H66.7963C67.5497 60.655 68.1626 61.2679 68.1626 62.0212C68.1624 62.7746 67.5495 63.3875 66.7963 63.3875Z" fill="#162950" stroke="white" stroke-width="16" mask="url(#path-3-inside-2_3196_22392)"/>
</svg>
