<svg width="68" height="49" viewBox="0 0 68 49" fill="none" xmlns="http://www.w3.org/2000/svg">
<g clip-path="url(#clip0_4050_5997)">
<path d="M44.1536 12.4805C44.0943 12.7672 44.0286 13.0524 43.9619 13.3375C43.9501 13.3877 43.9384 13.438 43.9267 13.4882C43.9014 13.5968 43.876 13.7053 43.8507 13.8138C43.8099 13.9883 43.7692 14.1628 43.7285 14.3372C43.7142 14.3983 43.7 14.4595 43.6857 14.5206C43.6821 14.536 43.6785 14.5514 43.6748 14.5672C43.6488 14.6789 43.6227 14.7907 43.5966 14.9024C43.4339 15.5995 43.2714 16.2966 43.1089 16.9937C43.0611 17.1985 43.0134 17.4034 42.9656 17.6083C42.9326 17.75 42.8995 17.8917 42.8665 18.0335C42.8429 18.1345 42.8194 18.2355 42.7958 18.3364C42.7269 18.6318 42.6581 18.9271 42.5905 19.2227C42.5805 19.266 42.5706 19.3092 42.5607 19.3525C42.5433 19.4285 42.526 19.5046 42.5087 19.5806C42.5013 19.613 42.4939 19.6454 42.4865 19.6778C42.4833 19.692 42.4801 19.7062 42.4769 19.7208C42.444 19.8631 42.444 19.8631 42.4125 19.9007C42.3624 19.9186 42.3169 19.9311 42.2653 19.9422C42.2498 19.9458 42.2344 19.9493 42.2185 19.953C42.1665 19.965 42.1143 19.9765 42.0622 19.988C42.0248 19.9965 41.9875 20.005 41.9501 20.0136C41.869 20.0321 41.7878 20.0504 41.7066 20.0685C41.5753 20.0979 41.4442 20.1277 41.313 20.1576C41.1737 20.1893 41.0344 20.2209 40.8951 20.2525C40.5667 20.3268 40.2386 20.4019 39.9107 20.4777C39.8878 20.483 39.865 20.4883 39.8415 20.4937C39.7254 20.5206 39.6092 20.5475 39.4931 20.5744C39.3511 20.6072 39.2091 20.64 39.0671 20.6728C38.3103 20.8477 37.5535 21.0229 36.7968 21.1982C36.2299 21.3295 35.6629 21.4607 35.0959 21.5917C34.9753 21.6195 34.8547 21.6474 34.7341 21.6753C34.6678 21.6906 34.6014 21.7059 34.5351 21.7213C34.5189 21.725 34.5028 21.7287 34.4862 21.7326C34.283 21.7795 34.0798 21.8263 33.8766 21.8731C33.7378 21.905 33.5991 21.9369 33.4604 21.9689C33.3637 21.9912 33.2669 22.0134 33.1701 22.0356C33.1113 22.0491 33.0526 22.0627 32.9939 22.0762C32.9669 22.0825 32.9398 22.0887 32.9127 22.0948C32.8759 22.1033 32.839 22.1118 32.8021 22.1203C32.7816 22.1251 32.7611 22.1298 32.7399 22.1346C32.6859 22.1477 32.6859 22.1477 32.6415 22.1671C32.5652 22.1963 32.4865 22.2127 32.4069 22.2309C32.3883 22.2352 32.3697 22.2395 32.3506 22.2439C32.2883 22.2582 32.2261 22.2725 32.1638 22.2868C32.1193 22.297 32.0748 22.3073 32.0303 22.3175C31.9343 22.3397 31.8383 22.3617 31.7423 22.3838C31.6017 22.4161 31.461 22.4485 31.3203 22.4809C31.2546 22.496 31.1888 22.5112 31.123 22.5263C31.1099 22.5294 31.0968 22.5324 31.0832 22.5355C30.9889 22.5572 30.8946 22.579 30.8003 22.6007C30.7868 22.6037 30.7734 22.6068 30.7596 22.61C30.7461 22.6131 30.7327 22.6162 30.7188 22.6194C30.255 22.7261 29.7912 22.8332 29.3274 22.9404C29.2106 22.9674 29.0937 22.9944 28.9769 23.0214C28.4685 23.1388 27.9602 23.2564 27.4519 23.3741C27.4396 23.3769 27.4272 23.3798 27.4145 23.3828C27.2029 23.4318 26.9914 23.4808 26.7798 23.5298C26.0758 23.6929 25.3716 23.8556 24.6674 24.018C24.0134 24.1687 23.3595 24.32 22.7057 24.4715C21.697 24.7052 20.688 24.9381 19.6789 25.1704C19.1737 25.2868 18.6684 25.4033 18.1632 25.5199C18.098 25.535 18.0328 25.55 17.9675 25.5651C17.7318 25.6195 17.496 25.6739 17.2602 25.7283C17.1223 26.2791 16.9947 26.8324 16.8662 27.3854C16.8294 27.5435 16.7926 27.7016 16.7558 27.8596C16.7417 27.9201 16.7277 27.9806 16.7136 28.041C16.7083 28.0639 16.7083 28.0639 16.7028 28.0872C16.6772 28.1975 16.6515 28.3079 16.6258 28.4182C16.5124 28.9054 16.3989 29.3926 16.2853 29.8798C16.2673 29.9572 16.2492 30.0346 16.2312 30.112C16.1644 30.3981 16.0977 30.6843 16.031 30.9705C15.9845 31.1697 15.9381 31.3689 15.8917 31.5681C15.8686 31.6668 15.8456 31.7655 15.8226 31.8642C15.8119 31.9102 15.8012 31.9562 15.7905 32.0022C15.7768 32.0609 15.7631 32.1196 15.7493 32.1783C15.7182 32.3113 15.6875 32.4442 15.6579 32.5775C15.6442 32.6389 15.6304 32.7003 15.6166 32.7616C15.6102 32.7907 15.6038 32.8197 15.5974 32.8488C15.5887 32.8888 15.5798 32.9287 15.5708 32.9685C15.5633 33.0025 15.5633 33.0025 15.5557 33.0371C15.538 33.0923 15.5283 33.1155 15.4812 33.1485C15.4457 33.1621 15.4457 33.1621 15.4049 33.1715C15.3893 33.1752 15.3737 33.1788 15.3577 33.1826C15.3406 33.1865 15.3235 33.1903 15.3059 33.1942C15.2878 33.1985 15.2696 33.2027 15.2509 33.207C15.19 33.2212 15.1291 33.235 15.0681 33.2489C15.0248 33.2589 14.9814 33.2689 14.9381 33.2789C14.8205 33.3061 14.7029 33.3331 14.5852 33.36C14.4735 33.3855 14.3618 33.4113 14.2501 33.4371C14.0332 33.4872 13.8164 33.537 13.5995 33.5868C13.3359 33.6473 13.0724 33.708 12.8089 33.7689C12.7305 33.787 12.6522 33.8051 12.5738 33.8232C12.545 33.8298 12.545 33.8298 12.5156 33.8366C12.3782 33.8683 12.2407 33.9 12.1033 33.9317C11.6623 34.0333 11.2213 34.1351 10.7805 34.2372C10.7683 34.2401 10.756 34.2429 10.7434 34.2458C10.5689 34.2863 10.3943 34.3267 10.2197 34.3672C10.0074 34.4163 9.79517 34.4655 9.5829 34.5147C9.57067 34.5175 9.55845 34.5203 9.54585 34.5232C9.0223 34.6445 8.49866 34.7653 7.97499 34.886C7.32099 35.0368 6.66711 35.188 6.01328 35.3395C5.00382 35.5734 3.99416 35.8064 2.98438 36.039C2.64416 36.1173 2.30395 36.1958 1.96376 36.2743C1.9413 36.2795 1.91883 36.2846 1.89569 36.29C1.70119 36.3349 1.5067 36.3798 1.31221 36.4246C1.27226 36.4339 1.23232 36.4431 1.19237 36.4523C1.17309 36.4568 1.15382 36.4612 1.13396 36.4658C1.04191 36.487 0.949848 36.5083 0.857783 36.5295C0.832137 36.5354 0.832137 36.5354 0.805973 36.5414C0.77274 36.5491 0.739504 36.5567 0.706271 36.5644C0.61918 36.5844 0.532116 36.6046 0.445082 36.6249C0.408994 36.6333 0.372897 36.6417 0.3368 36.6501C0.29553 36.6597 0.254275 36.6693 0.213039 36.679C0.195606 36.683 0.178173 36.6871 0.160212 36.6912C0.14552 36.6947 0.130827 36.6981 0.115689 36.7016C0.0757022 36.7088 0.0757027 36.7088 0 36.7088C0.0571431 36.45 0.117901 36.1922 0.17972 35.9346C0.189978 35.8918 0.200237 35.8489 0.210493 35.8061C0.238193 35.6904 0.265926 35.5748 0.293672 35.4592C0.311252 35.3859 0.328824 35.3126 0.346392 35.2393C0.534449 34.4549 0.723892 33.6708 0.913954 32.8869C1.15126 31.908 1.38676 30.9287 1.62044 29.949C1.62916 29.9126 1.63797 29.8763 1.64689 29.84C1.66889 29.75 1.68891 29.6602 1.70599 29.5691C1.70964 29.551 1.7133 29.5328 1.71707 29.5141C1.72394 29.4798 1.73021 29.4454 1.73579 29.4108C1.75832 29.3023 1.75832 29.3023 1.8102 29.2677C1.85622 29.2515 1.90141 29.2417 1.94935 29.2323C1.99252 29.2217 2.03568 29.2112 2.07885 29.2006C2.13025 29.1887 2.18173 29.1771 2.2332 29.1654C2.26185 29.1589 2.2905 29.1523 2.31914 29.1458C2.38095 29.1316 2.44276 29.1175 2.50459 29.1035C2.60413 29.0809 2.70365 29.0582 2.80317 29.0354C2.94597 29.0028 3.08878 28.9703 3.23159 28.9377C3.45644 28.8865 3.68125 28.8352 3.90606 28.7838C3.92474 28.7796 3.94341 28.7753 3.96265 28.7709C4.03809 28.7537 4.11352 28.7364 4.18895 28.7192C4.30222 28.6933 4.41549 28.6675 4.52876 28.6416C5.15996 28.4974 5.79094 28.3523 6.42172 28.2064C6.46694 28.1959 6.51216 28.1855 6.55738 28.175C6.75798 28.1286 6.95858 28.0822 7.15918 28.0357C7.60793 27.9318 8.05674 27.8282 8.50554 27.7245C8.62555 27.6968 8.74556 27.6691 8.86557 27.6413C9.51028 27.4924 10.155 27.3436 10.7998 27.1949C11.4767 27.0387 12.1536 26.8825 12.8304 26.7261C12.8539 26.7206 12.8774 26.7152 12.9016 26.7096C13.2257 26.6347 13.5499 26.5598 13.8741 26.4849C14.0143 26.4525 14.1546 26.4201 14.2949 26.3877C14.3077 26.3847 14.3206 26.3818 14.3338 26.3787C14.5525 26.3282 14.7712 26.2777 14.9899 26.2271C15.1116 26.199 15.2334 26.1709 15.3551 26.1427C15.3781 26.1374 15.4011 26.1321 15.4248 26.1266C15.4704 26.1161 15.516 26.1055 15.5617 26.095C15.6707 26.0698 15.7798 26.0446 15.8889 26.0195C15.9306 26.0098 15.9723 26.0002 16.014 25.9906C16.0342 25.9859 16.0545 25.9812 16.0754 25.9764C16.1971 25.9483 16.3189 25.92 16.4406 25.8917C16.5173 25.8738 16.594 25.856 16.6707 25.8382C16.7062 25.8299 16.7418 25.8216 16.7773 25.8133C16.8256 25.8019 16.874 25.7907 16.9223 25.7795C16.9434 25.7745 16.9434 25.7745 16.965 25.7694C17.028 25.7549 17.0815 25.747 17.1467 25.747C17.1499 25.7161 17.1499 25.7161 17.1532 25.6846C17.1656 25.5869 17.1886 25.4925 17.2121 25.3969C17.2169 25.3773 17.2216 25.3576 17.2265 25.3374C17.2423 25.2722 17.2583 25.207 17.2742 25.1418C17.2854 25.0956 17.2967 25.0493 17.3079 25.003C17.3318 24.9044 17.3558 24.8057 17.3799 24.707C17.4179 24.551 17.4558 24.395 17.4937 24.2389C17.5064 24.1865 17.5192 24.134 17.5319 24.0816C17.535 24.0686 17.5382 24.0557 17.5414 24.0423C17.5637 23.9507 17.5859 23.8591 17.6082 23.7675C17.7033 23.3762 17.7978 22.9848 17.8918 22.5933C17.9099 22.5181 17.9279 22.4429 17.946 22.3677C17.9688 22.2726 17.9917 22.1776 18.0145 22.0825C18.0812 21.8045 18.1481 21.5265 18.215 21.2485C18.2338 21.1703 18.2526 21.0921 18.2714 21.0139C18.2746 21.0009 18.2777 20.9879 18.2809 20.9745C18.2936 20.9218 18.3063 20.8691 18.319 20.8163C18.353 20.6747 18.3871 20.533 18.4212 20.3914C18.4561 20.2465 18.4909 20.1015 18.5258 19.9566C18.5342 19.9216 18.5342 19.9216 18.5428 19.8859C18.6061 19.6226 18.6693 19.3593 18.732 19.0959C18.7378 19.0716 18.7436 19.0472 18.7494 19.0228C18.7769 18.9076 18.8043 18.7924 18.8316 18.6772C18.8414 18.6364 18.8511 18.5956 18.8608 18.5548C18.8652 18.5362 18.8696 18.5176 18.8741 18.4984C18.8782 18.4815 18.8822 18.4645 18.8864 18.447C18.8899 18.4323 18.8934 18.4176 18.897 18.4024C18.9051 18.3705 18.9152 18.3392 18.9257 18.308C18.9792 18.2885 18.9792 18.2885 19.0503 18.2713C19.063 18.2682 19.0758 18.265 19.0889 18.2618C19.1291 18.2519 19.1693 18.2425 19.2096 18.233C19.2333 18.2274 19.257 18.2217 19.2815 18.2159C19.3564 18.1983 19.4313 18.1811 19.5063 18.1641C19.535 18.1575 19.5636 18.151 19.5923 18.1444C19.6538 18.1303 19.7153 18.1163 19.7768 18.1023C19.8759 18.0797 19.975 18.0571 20.074 18.0344C20.2162 18.0019 20.3583 17.9695 20.5005 17.9371C20.8554 17.8561 21.2103 17.7749 21.5652 17.6937C21.6216 17.6808 21.678 17.6679 21.7344 17.655C22.3905 17.505 23.0464 17.3542 23.7021 17.2025C23.7478 17.1919 23.7936 17.1813 23.8393 17.1707C24.017 17.1296 24.1948 17.0885 24.3725 17.0473C24.7707 16.9551 25.169 16.8632 25.5674 16.7714C25.6873 16.7437 25.8072 16.716 25.9271 16.6883C26.3229 16.5969 26.7188 16.5057 27.1148 16.4151C27.2746 16.3785 27.4343 16.3418 27.5941 16.3052C27.7246 16.2752 27.8551 16.2454 27.9856 16.2156C28.0659 16.1973 28.146 16.1789 28.2262 16.1604C28.2634 16.1519 28.3006 16.1434 28.3378 16.135C28.3887 16.1234 28.4396 16.1117 28.4904 16.1C28.5051 16.0967 28.5198 16.0934 28.535 16.09C28.5979 16.0753 28.6533 16.0595 28.7124 16.033C28.8239 15.9833 28.9468 15.9631 29.0655 15.9364C29.0942 15.9298 29.1228 15.9233 29.1514 15.9167C29.2296 15.8988 29.3078 15.8811 29.386 15.8634C29.4694 15.8445 29.5529 15.8254 29.6363 15.8064C29.7793 15.7737 29.9224 15.7411 30.0655 15.7086C30.2904 15.6575 30.5153 15.6063 30.7401 15.5549C30.7778 15.5463 30.8156 15.5377 30.8533 15.5291C30.9098 15.5162 30.9664 15.5033 31.023 15.4904C31.1363 15.4645 31.2496 15.4387 31.3629 15.4129C31.9789 15.2724 32.5947 15.1309 33.2102 14.9884C33.2788 14.9725 33.3474 14.9567 33.416 14.9408C33.5941 14.8996 33.7722 14.8584 33.9503 14.8172C34.3621 14.7218 34.774 14.6268 35.1859 14.5318C35.3854 14.4858 35.5849 14.4398 35.7844 14.3938C35.8143 14.3869 35.8143 14.3869 35.8448 14.3799C36.3619 14.2606 36.8789 14.1411 37.396 14.0217C37.4196 14.0162 37.4433 14.0107 37.4676 14.0051C37.829 13.9216 38.1903 13.8381 38.5516 13.7547C41.3525 13.1075 41.3525 13.1075 42.3883 12.8688C42.603 12.8193 42.8176 12.7698 43.0322 12.7201C43.1589 12.6908 43.2855 12.6615 43.4122 12.6323C43.497 12.6127 43.5818 12.593 43.6666 12.5734C43.7289 12.5589 43.7911 12.5446 43.8534 12.5302C43.8754 12.5251 43.8974 12.52 43.92 12.5147C43.9399 12.5101 43.9599 12.5056 43.9804 12.5009C44.0061 12.4949 44.0061 12.4949 44.0324 12.4888C44.0779 12.4805 44.0779 12.4805 44.1536 12.4805Z" fill="#E5E7EB"/>
<path d="M65.3135 17.0508C65.2629 17.2956 65.207 17.5387 65.147 17.7815C65.1382 17.8174 65.1294 17.8533 65.1206 17.8892C65.1017 17.9658 65.0829 18.0425 65.064 18.1191C65.0179 18.3061 64.9721 18.4931 64.9262 18.6802C64.9156 18.7234 64.9049 18.7667 64.8943 18.8099C64.7863 19.25 64.6794 19.6904 64.5728 20.1308C64.5353 20.2857 64.4977 20.4407 64.4602 20.5956C64.4507 20.6349 64.4412 20.6741 64.4317 20.7134C64.3184 21.1812 64.2047 21.6489 64.0909 22.1165C63.8984 22.9075 63.7066 23.6985 63.5156 24.4898C63.0213 24.6102 62.5261 24.7259 62.0302 24.8395C61.9294 24.8626 61.8285 24.8858 61.7277 24.9089C61.6855 24.9186 61.6434 24.9283 61.6012 24.938C61.5801 24.9428 61.5589 24.9477 61.5371 24.9527C61.472 24.9676 61.4069 24.9826 61.3419 24.9975C60.8672 25.1065 60.3926 25.2158 59.9181 25.3252C59.8485 25.3413 59.7789 25.3573 59.7092 25.3733C58.7384 25.5971 57.7677 25.821 56.797 26.045C56.4772 26.1188 56.1574 26.1926 55.8377 26.2664C55.8078 26.2733 55.8078 26.2733 55.7773 26.2803C55.0783 26.4416 54.3793 26.6027 53.6802 26.7638C53.0075 26.9188 52.3348 27.0739 51.6622 27.2291C51.6423 27.2337 51.6223 27.2383 51.6018 27.243C51.3022 27.3121 51.0025 27.3813 50.7029 27.4504C50.3831 27.5242 50.0634 27.598 49.7436 27.6717C49.7137 27.6786 49.7137 27.6786 49.6833 27.6857C48.9842 27.8469 48.2852 28.0081 47.5861 28.1691C46.9134 28.3241 46.2408 28.4792 45.5681 28.6344C45.5482 28.639 45.5283 28.6436 45.5077 28.6483C45.2081 28.7175 44.9085 28.7866 44.6088 28.8558C44.2891 28.9295 43.9693 29.0033 43.6495 29.0771C43.6197 29.084 43.6197 29.084 43.5892 29.091C42.8902 29.2523 42.1911 29.4134 41.4921 29.5745C40.8194 29.7295 40.1467 29.8846 39.474 30.0398C39.4541 30.0444 39.4342 30.049 39.4137 30.0537C39.114 30.1228 38.8144 30.192 38.5147 30.2611C38.195 30.3349 37.8752 30.4087 37.5554 30.4824C37.5256 30.4893 37.5256 30.4893 37.4951 30.4964C36.7961 30.6576 36.0971 30.8188 35.398 30.9798C34.7253 31.1349 34.0526 31.2899 33.38 31.4451C33.3403 31.4543 33.3006 31.4634 33.2609 31.4726C32.8696 31.5629 32.4782 31.6532 32.0869 31.7435C31.9076 31.7849 31.7284 31.8262 31.5492 31.8676C31.4428 31.8921 31.3363 31.9167 31.2299 31.9413C31.0242 31.9887 30.8185 32.0362 30.6128 32.0836C30.5241 32.104 30.4354 32.1245 30.3467 32.145C30.2886 32.1584 30.2305 32.1718 30.1724 32.1851C30.1527 32.1897 30.1329 32.1943 30.1125 32.199C30.095 32.203 30.0775 32.207 30.0595 32.2112C30.0447 32.2146 30.0299 32.218 30.0147 32.2215C29.9793 32.2286 29.9793 32.2286 29.9414 32.2286C30.0231 31.7751 30.1159 31.3237 30.2077 30.8722C30.2306 30.7597 30.2534 30.6472 30.2762 30.5346C30.3149 30.3442 30.3536 30.1538 30.3923 29.9634C30.4452 29.7028 30.4981 29.4422 30.551 29.1816C30.6552 28.6685 30.7594 28.1554 30.8638 27.6424C30.8926 27.5006 30.9214 27.3589 30.9502 27.2172C30.9978 26.983 31.0455 26.7488 31.0931 26.5146C31.1153 26.4056 31.1375 26.2965 31.1597 26.1875C31.2621 25.6835 31.3663 25.18 31.4744 24.6772C32.7009 24.3997 33.9275 24.1225 35.1543 23.8457C35.1675 23.8427 35.1807 23.8397 35.1944 23.8366C35.4512 23.7787 35.7081 23.7207 35.9649 23.6628C36.3419 23.5777 36.719 23.4926 37.096 23.4075C37.1092 23.4045 37.1225 23.4015 37.1362 23.3984C37.2567 23.3712 37.3772 23.344 37.4978 23.3168C37.6853 23.2745 37.8729 23.2322 38.0605 23.1898C38.0738 23.1868 38.087 23.1839 38.1007 23.1808C38.1677 23.1656 38.2348 23.1505 38.3018 23.1354C38.4225 23.1082 38.5431 23.0809 38.6638 23.0537C38.7308 23.0386 38.7978 23.0234 38.8649 23.0083C38.8917 23.0023 38.9185 22.9962 38.9453 22.9902C40.2725 22.6906 41.5996 22.3911 44.254 21.7921C44.2739 21.7876 44.2739 21.7876 44.2942 21.783C44.321 21.777 44.3478 21.7709 44.3746 21.7649C44.4416 21.7497 44.5087 21.7346 44.5757 21.7195C44.6964 21.6923 44.817 21.665 44.9377 21.6378C45.0047 21.6227 45.0718 21.6075 45.1388 21.5924C45.1521 21.5894 45.1654 21.5864 45.1791 21.5833C45.3664 21.541 45.5538 21.4987 45.7412 21.4565C45.8616 21.4293 45.9819 21.4021 46.1023 21.375C46.1156 21.372 46.1288 21.369 46.1425 21.3659C46.5223 21.2802 46.9021 21.1945 47.2819 21.1087C47.5414 21.0502 47.8009 20.9916 48.0604 20.9331C48.0806 20.9285 48.0806 20.9285 48.1012 20.9239C48.8675 20.7509 49.6338 20.5779 50.4001 20.4049C51.18 20.2288 51.9599 20.0527 52.7398 19.8767C52.7532 19.8737 52.7667 19.8706 52.7805 19.8675C53.0402 19.8089 53.2998 19.7503 53.5594 19.6917C53.9389 19.6061 54.3184 19.5205 54.6978 19.4348C54.7111 19.4318 54.7243 19.4289 54.738 19.4258C54.8583 19.3986 54.9787 19.3714 55.099 19.3443C55.2865 19.302 55.4739 19.2597 55.6613 19.2174C55.6746 19.2144 55.6879 19.2114 55.7015 19.2083C55.7686 19.1932 55.8356 19.178 55.9027 19.1629C56.0234 19.1357 56.144 19.1085 56.2647 19.0812C56.3317 19.0661 56.3987 19.051 56.4658 19.0358C56.4926 19.0298 56.5194 19.0237 56.5462 19.0177C57.9136 18.7091 57.9136 18.7091 59.281 18.4005C59.3009 18.396 59.3009 18.396 59.3212 18.3914C59.348 18.3854 59.3748 18.3793 59.4016 18.3733C59.4686 18.3582 59.5357 18.343 59.6027 18.3279C59.7234 18.3007 59.8441 18.2734 59.9648 18.2462C60.0319 18.231 60.099 18.2159 60.1661 18.2007C60.1794 18.1977 60.1927 18.1947 60.2064 18.1917C60.3929 18.1496 60.5793 18.1075 60.7658 18.0654C60.8854 18.0384 61.0049 18.0114 61.1244 17.9845C61.1442 17.98 61.1442 17.98 61.1643 17.9755C61.5575 17.8867 61.9507 17.798 62.3439 17.7093C62.4466 17.6861 62.5494 17.6629 62.6521 17.6398C62.6737 17.6349 62.6737 17.6349 62.6957 17.6299C62.7679 17.6136 62.84 17.5973 62.9122 17.5811C63.0637 17.5469 63.2153 17.5127 63.3668 17.4785C63.4697 17.4553 63.5725 17.4321 63.6754 17.4089C63.761 17.3896 63.8466 17.3703 63.9322 17.351C64.1621 17.2991 64.3919 17.247 64.6217 17.1945C64.6647 17.1847 64.7076 17.1749 64.7506 17.1651C64.8301 17.147 64.9095 17.1287 64.989 17.1105C65.024 17.1025 65.059 17.0945 65.0941 17.0865C65.1178 17.081 65.1178 17.081 65.142 17.0754C65.2004 17.0621 65.2534 17.0508 65.3135 17.0508Z" fill="#E5E7EB"/>
<path d="M45.725 2.75391C45.7136 2.87193 45.6945 2.98462 45.6674 3.10002C45.6615 3.12566 45.6615 3.12566 45.6555 3.15181C45.6424 3.20877 45.6291 3.2657 45.6158 3.32264C45.6063 3.36371 45.5968 3.40479 45.5874 3.44587C45.5669 3.53459 45.5463 3.62329 45.5257 3.71198C45.4926 3.85472 45.4595 3.99749 45.4265 4.14027C45.3916 4.29124 45.3567 4.44221 45.3217 4.59317C45.3188 4.60595 45.3158 4.61872 45.3128 4.63189C45.3098 4.64469 45.3068 4.65749 45.3038 4.67068C45.2278 4.99863 45.1521 5.32662 45.0765 5.65464C45.0707 5.67938 45.065 5.70411 45.0593 5.72884C45.0365 5.82784 45.0137 5.92684 44.9909 6.02584C44.9509 6.19932 44.9109 6.3728 44.8709 6.54628C44.8651 6.57111 44.8594 6.59594 44.8537 6.62077C44.8508 6.63306 44.848 6.64535 44.8451 6.65801C44.8423 6.6703 44.8394 6.68259 44.8365 6.69525C44.8337 6.70754 44.8308 6.71982 44.8279 6.73248C44.6936 7.31481 44.5593 7.89716 44.4252 8.47952C44.399 8.59303 44.3729 8.70654 44.3467 8.82004C44.3368 8.86302 44.3269 8.90599 44.317 8.94896C44.2938 9.04999 44.2704 9.15101 44.247 9.252C44.2077 9.42155 44.1691 9.59113 44.1333 9.76143C44.1246 9.80244 44.1158 9.84346 44.107 9.88447C44.0993 9.92103 44.092 9.95768 44.0848 9.99433C44.0802 10.0154 44.0757 10.0366 44.0711 10.0583C44.0674 10.0764 44.0637 10.0944 44.06 10.113C44.0406 10.1554 44.0406 10.1554 44.0029 10.1774C43.9224 10.1993 43.8416 10.2192 43.7603 10.2379C43.7415 10.2423 43.7227 10.2467 43.7033 10.2512C43.6404 10.2658 43.5775 10.2803 43.5146 10.2949C43.4698 10.3053 43.425 10.3157 43.3802 10.3261C43.2839 10.3485 43.1876 10.3708 43.0913 10.3931C42.9375 10.4287 42.7838 10.4644 42.6301 10.5001C42.5778 10.5123 42.5254 10.5244 42.4731 10.5366C42.4601 10.5396 42.4471 10.5426 42.4337 10.5457C42.3409 10.5673 42.2481 10.5889 42.1553 10.6104C41.8329 10.6852 41.5106 10.7602 41.1884 10.8355C41.1686 10.8401 41.1487 10.8448 41.1283 10.8495C41.0289 10.8728 40.9296 10.896 40.8302 10.9192C40.6253 10.9671 40.4204 11.015 40.2154 11.0628C40.1945 11.0677 40.1735 11.0726 40.152 11.0777C39.7967 11.1606 39.4413 11.2434 39.086 11.3262C39.073 11.3292 39.0601 11.3322 39.0468 11.3353C38.9006 11.3694 38.7543 11.4034 38.6081 11.4375C38.5539 11.4501 38.4998 11.4627 38.4457 11.4753C38.4322 11.4784 38.4188 11.4815 38.405 11.4848C37.528 11.689 36.6511 11.8937 35.7742 12.0988C34.7059 12.3486 33.6375 12.5979 32.5689 12.8467C32.1772 12.9379 31.7855 13.0291 31.3938 13.1204C31.088 13.1917 30.7821 13.263 30.4763 13.3342C30.4629 13.3373 30.4496 13.3404 30.4359 13.3436C30.3172 13.3712 30.1986 13.3989 30.0799 13.4265C29.7996 13.4918 29.5192 13.5571 29.2389 13.6225C29.0889 13.6575 28.9389 13.6925 28.7888 13.7275C28.6907 13.7504 28.5925 13.7733 28.4943 13.7963C28.4362 13.8099 28.378 13.8234 28.3198 13.8369C28.2936 13.843 28.2673 13.8492 28.241 13.8554C28.206 13.8636 28.1709 13.8717 28.1358 13.8799C28.1164 13.8844 28.0971 13.8889 28.0771 13.8936C28.0294 13.903 28.0294 13.903 27.9727 13.903C28.05 13.4699 28.1399 13.0393 28.2291 12.6084C28.275 12.3863 28.3207 12.1641 28.3665 11.942C28.3716 11.917 28.3768 11.892 28.3819 11.867C28.5121 11.2345 28.6409 10.6017 28.7694 9.96889C28.784 9.89734 28.7985 9.8258 28.8131 9.75425C28.8362 9.64042 28.8593 9.5266 28.8825 9.41277C28.8867 9.39176 28.8867 9.39176 28.8911 9.37032C28.9054 9.29996 28.9197 9.22959 28.934 9.15922C29.0491 8.59245 29.1646 8.02573 29.2801 7.45903C29.2939 7.39184 29.3076 7.32464 29.3213 7.25745C29.3701 7.01796 29.4189 6.77848 29.4678 6.53899C29.4828 6.53548 29.4979 6.53196 29.5134 6.52834C29.7221 6.47959 29.9309 6.43082 30.1396 6.38206C30.1576 6.37788 30.1755 6.37369 30.194 6.36938C30.9379 6.1956 31.6818 6.0217 32.4257 5.84779C34.0072 5.47806 34.0072 5.47806 34.7847 5.29643C34.8097 5.2906 34.8097 5.2906 34.8351 5.28465C35.0931 5.22439 35.3511 5.16413 35.6091 5.10387C35.8524 5.04704 36.0957 4.99021 36.339 4.93338C36.3555 4.92951 36.3721 4.92564 36.3891 4.92166C37.1291 4.74881 37.869 4.57583 38.6089 4.40285C39.5127 4.19157 40.4164 3.98032 41.3203 3.76922C41.551 3.71533 41.7817 3.66142 42.0124 3.60749C42.7602 3.43271 43.508 3.25808 44.256 3.08375C44.3409 3.06395 44.4258 3.04415 44.5107 3.02434C44.6108 3.001 44.7108 2.97768 44.8108 2.95438C44.8474 2.94586 44.8839 2.93734 44.9205 2.92881C45.1141 2.88363 45.3079 2.83889 45.5018 2.7949C45.5288 2.78873 45.5288 2.78873 45.5563 2.78245C45.5812 2.77683 45.5812 2.77683 45.6065 2.77111C45.6212 2.76778 45.6359 2.76445 45.651 2.76102C45.6871 2.75391 45.6871 2.75391 45.725 2.75391Z" fill="#E5E7EB"/>
<path d="M23.5823 26.252C23.6414 26.278 23.6817 26.3081 23.7274 26.3532C23.7409 26.3665 23.7544 26.3798 23.7684 26.3935C23.7831 26.4081 23.7979 26.4228 23.8131 26.4378C23.8367 26.4611 23.8367 26.4611 23.8609 26.4848C23.9046 26.5279 23.9482 26.5711 23.9919 26.6143C24.0389 26.6608 24.0861 26.7073 24.1332 26.7538C24.2363 26.8554 24.3392 26.9571 24.4421 27.0589C24.5063 27.1224 24.5705 27.1859 24.6348 27.2493C24.8126 27.425 24.9903 27.6007 25.168 27.7765C25.1793 27.7877 25.1907 27.799 25.2024 27.8106C25.2254 27.8334 25.2485 27.8562 25.2715 27.879C25.283 27.8903 25.2944 27.9016 25.3062 27.9133C25.3176 27.9246 25.3291 27.936 25.3409 27.9477C25.5267 28.1315 25.7127 28.3152 25.8988 28.4988C26.0898 28.6871 26.2806 28.8757 26.4712 29.0644C26.5782 29.1704 26.6854 29.2763 26.7927 29.382C26.8841 29.472 26.9752 29.5621 27.0662 29.6525C27.1127 29.6986 27.1592 29.7447 27.2059 29.7905C27.2564 29.8401 27.3067 29.8901 27.3568 29.9401C27.3718 29.9546 27.3867 29.9692 27.4021 29.9842C27.4221 30.0043 27.4221 30.0043 27.4424 30.0247C27.4599 30.042 27.4599 30.042 27.4777 30.0596C27.4999 30.0933 27.4999 30.0933 27.4979 30.1307C27.4776 30.1756 27.4538 30.2021 27.4186 30.2368C27.4052 30.2502 27.3918 30.2636 27.378 30.2774C27.3631 30.292 27.3482 30.3066 27.3328 30.3216C27.3171 30.3372 27.3014 30.3528 27.2853 30.3689C27.2416 30.4122 27.1978 30.4554 27.154 30.4985C27.1067 30.545 27.0597 30.5917 27.0126 30.6384C26.931 30.7192 26.8493 30.7999 26.7675 30.8806C26.6492 30.9972 26.5311 31.114 26.4131 31.2308C26.2215 31.4203 26.0299 31.6097 25.8381 31.799C25.6518 31.9829 25.4656 32.1669 25.2795 32.351C25.268 32.3623 25.2565 32.3737 25.2447 32.3853C25.1872 32.4422 25.1296 32.4992 25.0721 32.5561C24.5946 33.0282 24.1169 33.5002 23.6391 33.972C23.6653 34.0305 23.6956 34.0701 23.7413 34.1151C23.7547 34.1284 23.7681 34.1417 23.7819 34.1554C23.7967 34.1698 23.8115 34.1843 23.8267 34.1992C23.8424 34.2147 23.858 34.2301 23.8742 34.2461C23.9176 34.289 23.9612 34.3318 24.0048 34.3746C24.0518 34.4208 24.0987 34.467 24.1456 34.5133C24.2268 34.5935 24.3081 34.6735 24.3895 34.7536C24.518 34.8801 24.6464 35.0067 24.7747 35.1334C24.8186 35.1767 24.8624 35.22 24.9063 35.2634C24.9173 35.2742 24.9283 35.285 24.9396 35.2962C25.0644 35.4194 25.1893 35.5425 25.3142 35.6657C25.3313 35.6826 25.3313 35.6826 25.3488 35.6998C25.534 35.8824 25.7193 36.0649 25.9047 36.2474C26.0948 36.4347 26.2849 36.6222 26.4747 36.8098C26.5919 36.9255 26.7092 37.0411 26.8268 37.1566C26.9072 37.2356 26.9875 37.3148 27.0676 37.3942C27.1139 37.44 27.1603 37.4857 27.2069 37.5313C27.2572 37.5806 27.3073 37.6302 27.3573 37.6799C27.3722 37.6943 27.3871 37.7088 27.4025 37.7237C27.4157 37.737 27.429 37.7503 27.4426 37.7639C27.4542 37.7754 27.4658 37.7868 27.4778 37.7986C27.4999 37.8321 27.4999 37.8321 27.4979 37.8695C27.4776 37.9145 27.4537 37.9411 27.4186 37.976C27.4051 37.9895 27.3917 38.0029 27.3778 38.0168C27.3629 38.0315 27.348 38.0462 27.3326 38.0613C27.3169 38.077 27.3012 38.0927 27.285 38.1088C27.2412 38.1524 27.1974 38.1958 27.1535 38.2392C27.1062 38.286 27.059 38.3329 27.0119 38.3798C26.9194 38.4717 26.8268 38.5635 26.7342 38.6552C26.6589 38.7297 26.5837 38.8043 26.5085 38.8788C26.4869 38.9003 26.4652 38.9218 26.4436 38.9432C26.4328 38.9539 26.422 38.9646 26.411 38.9756C26.2072 39.1777 26.0033 39.3796 25.7993 39.5814C25.6125 39.7662 25.426 39.9513 25.2395 40.1365C25.0483 40.3265 24.8568 40.5163 24.6652 40.706C24.5575 40.8125 24.45 40.9191 24.3426 41.0259C24.2512 41.1168 24.1596 41.2075 24.0678 41.298C24.021 41.3443 23.9742 41.3906 23.9276 41.4371C23.8772 41.4873 23.8265 41.5373 23.7757 41.5872C23.7609 41.6021 23.7461 41.617 23.7309 41.6323C23.7173 41.6455 23.7037 41.6588 23.6897 41.6724C23.6722 41.6898 23.6722 41.6898 23.6543 41.7075C23.6201 41.7296 23.6201 41.7296 23.5823 41.7277C23.5369 41.7075 23.51 41.6838 23.4748 41.6488C23.4612 41.6355 23.4476 41.6221 23.4336 41.6084C23.4188 41.5936 23.404 41.5787 23.3888 41.5635C23.365 41.54 23.365 41.54 23.3408 41.5161C23.2968 41.4727 23.253 41.4291 23.2092 41.3855C23.162 41.3385 23.1146 41.2917 23.0673 41.2448C22.9852 41.1636 22.9033 41.0823 22.8214 41.0009C22.703 40.8833 22.5845 40.7658 22.4659 40.6483C22.2736 40.4577 22.0813 40.267 21.8892 40.0763C21.7025 39.8909 21.5158 39.7056 21.329 39.5204C21.3175 39.509 21.3059 39.4976 21.2941 39.4858C21.2363 39.4286 21.1786 39.3713 21.1208 39.3141C20.6416 38.839 20.1625 38.3637 19.6836 37.8883C19.7099 37.8297 19.7404 37.7899 19.7861 37.7447C19.7996 37.7313 19.813 37.7179 19.8269 37.7041C19.8417 37.6895 19.8566 37.6749 19.8719 37.6599C19.8954 37.6365 19.8954 37.6365 19.9195 37.6126C19.9631 37.5694 20.0069 37.5262 20.0506 37.483C20.0978 37.4365 20.1449 37.3898 20.192 37.3432C20.2736 37.2624 20.3552 37.1816 20.437 37.101C20.5551 36.9843 20.6731 36.8675 20.7911 36.7507C20.9826 36.5612 21.1741 36.3719 21.3657 36.1825C21.5519 35.9986 21.738 35.8146 21.924 35.6306C21.9355 35.6192 21.9469 35.6079 21.9587 35.5962C22.0163 35.5393 22.0738 35.4824 22.1313 35.4255C22.6085 34.9534 23.0859 34.4814 23.5634 34.0095C23.478 33.9082 23.3876 33.8141 23.2932 33.721C23.2777 33.7057 23.2622 33.6903 23.2463 33.6745C23.2036 33.6323 23.1609 33.5901 23.1182 33.5479C23.0721 33.5022 23.0259 33.4566 22.9798 33.4109C22.9 33.3319 22.8202 33.2529 22.7403 33.1739C22.6248 33.0597 22.5094 32.9455 22.394 32.8313C22.2068 32.6459 22.0195 32.4606 21.8321 32.2753C21.6502 32.0954 21.4683 31.9154 21.2865 31.7354C21.2752 31.7243 21.264 31.7132 21.2525 31.7018C21.1962 31.6461 21.1399 31.5903 21.0836 31.5346C20.617 31.0729 20.1503 30.6111 19.6836 30.1495C19.7099 30.0907 19.7406 30.0509 19.7864 30.0056C19.7999 29.9921 19.8134 29.9787 19.8274 29.9648C19.8423 29.9501 19.8572 29.9355 19.8726 29.9204C19.8884 29.9047 19.9042 29.889 19.9204 29.8729C19.9643 29.8294 20.0083 29.786 20.0522 29.7426C20.0997 29.6959 20.147 29.649 20.1943 29.6021C20.2763 29.5209 20.3583 29.4398 20.4405 29.3587C20.5592 29.2414 20.6778 29.1241 20.7964 29.0067C20.9888 28.8163 21.1813 28.626 21.3738 28.4357C21.5609 28.2508 21.7479 28.066 21.9348 27.881C21.9464 27.8696 21.9579 27.8582 21.9698 27.8465C22.0276 27.7893 22.0854 27.7321 22.1432 27.6749C22.6227 27.2005 23.1025 26.7262 23.5823 26.252Z" fill="#77B0A9"/>
<path d="M63.9885 0C64.0476 0.0260068 64.0879 0.0561832 64.1336 0.101284C64.1472 0.114562 64.1607 0.127841 64.1747 0.141522C64.1894 0.156162 64.2041 0.170802 64.2193 0.185886C64.243 0.209155 64.243 0.209155 64.2671 0.232893C64.3108 0.275965 64.3545 0.319121 64.3981 0.362314C64.4452 0.408875 64.4923 0.45533 64.5395 0.501799C64.6425 0.603401 64.7454 0.705142 64.8483 0.80691C64.9125 0.870419 64.9768 0.933898 65.041 0.997369C65.2188 1.17303 65.3966 1.34872 65.5742 1.52454C65.5856 1.53579 65.5969 1.54704 65.6086 1.55863C65.6317 1.58144 65.6547 1.60424 65.6778 1.62705C65.6892 1.63837 65.7006 1.64969 65.7124 1.66136C65.7239 1.67269 65.7353 1.68402 65.7471 1.6957C65.9329 1.87958 66.1189 2.06324 66.305 2.24681C66.496 2.43517 66.6868 2.6237 66.8774 2.81242C66.9845 2.91842 67.0916 3.02434 67.199 3.13007C67.2903 3.22005 67.3815 3.31018 67.4725 3.40053C67.5189 3.44666 67.5654 3.4927 67.6122 3.53855C67.6627 3.5882 67.7129 3.63812 67.7631 3.68813C67.778 3.70269 67.793 3.71724 67.8084 3.73224C67.8283 3.75231 67.8283 3.75231 67.8487 3.77278C67.8661 3.79004 67.8661 3.79004 67.884 3.80764C67.9062 3.8413 67.9062 3.8413 67.904 3.87895C67.8844 3.92263 67.862 3.94817 67.8279 3.98195C67.8087 4.00107 67.8087 4.00107 67.7892 4.02058C67.7679 4.04136 67.7679 4.04136 67.7463 4.06256C67.7314 4.07739 67.7164 4.09222 67.701 4.10751C67.6507 4.15738 67.6003 4.20706 67.5498 4.25674C67.5138 4.29237 67.4778 4.32801 67.4418 4.36366C67.3642 4.44051 67.2865 4.51725 67.2088 4.59393C67.0963 4.70479 66.9841 4.8158 66.8718 4.92685C66.6897 5.10702 66.5075 5.28706 66.3252 5.46702C66.1481 5.64185 65.9711 5.81673 65.7941 5.9917C65.7832 6.00248 65.7723 6.01327 65.7611 6.02438C65.7064 6.07847 65.6517 6.13256 65.5969 6.18666C65.143 6.63552 64.6889 7.08417 64.2346 7.5327C64.3176 7.6311 64.405 7.72264 64.497 7.81287C64.5116 7.82731 64.5263 7.84176 64.5413 7.85664C64.5902 7.90479 64.639 7.95286 64.6879 8.00094C64.723 8.03554 64.7581 8.07014 64.7932 8.10475C64.8589 8.16952 64.9246 8.23428 64.9904 8.29901C65.1194 8.42607 65.2483 8.55326 65.3772 8.68048C65.3975 8.70053 65.4178 8.72058 65.4381 8.74064C65.4689 8.77102 65.4996 8.8014 65.5304 8.83177C65.6462 8.9461 65.762 9.06042 65.8779 9.17472C65.8885 9.18516 65.899 9.19561 65.9099 9.20636C66.0818 9.37593 66.2538 9.54535 66.4258 9.71474C66.6025 9.88871 66.779 10.0629 66.9553 10.2372C67.0641 10.3447 67.173 10.452 67.2821 10.5592C67.3655 10.6412 67.4487 10.7234 67.5318 10.8057C67.566 10.8395 67.6003 10.8732 67.6346 10.9069C67.6813 10.9526 67.7278 10.9986 67.7741 11.0447C67.7879 11.0581 67.8018 11.0715 67.816 11.0854C67.8283 11.0977 67.8406 11.11 67.8532 11.1227C67.864 11.1333 67.8747 11.1439 67.8858 11.1549C67.9062 11.1866 67.9062 11.1866 67.9039 11.2238C67.8839 11.2692 67.8601 11.2954 67.8246 11.3305C67.8111 11.344 67.7976 11.3574 67.7837 11.3713C67.7688 11.3859 67.7538 11.4006 67.7384 11.4157C67.7226 11.4314 67.7068 11.447 67.6906 11.4632C67.6467 11.5067 67.6027 11.5501 67.5586 11.5934C67.5112 11.6402 67.4639 11.6871 67.4165 11.734C67.3345 11.8152 67.2524 11.8964 67.1702 11.9774C67.0514 12.0946 66.9327 12.212 66.8141 12.3294C66.6216 12.5198 66.429 12.7101 66.2363 12.9004C66.0491 13.0852 65.8619 13.2701 65.6749 13.4551C65.6633 13.4665 65.6518 13.4779 65.6399 13.4896C65.5821 13.5468 65.5243 13.604 65.4665 13.6612C64.9866 14.1357 64.5066 14.61 64.0264 15.0841C63.967 15.0581 63.9268 15.0277 63.8811 14.9823C63.8675 14.969 63.8539 14.9556 63.8399 14.9418C63.8251 14.927 63.8103 14.9122 63.795 14.897C63.7792 14.8814 63.7633 14.8657 63.747 14.8496C63.7031 14.8062 63.6593 14.7627 63.6155 14.7191C63.5682 14.6722 63.5209 14.6254 63.4735 14.5785C63.3915 14.4973 63.3096 14.4161 63.2277 14.3348C63.1093 14.2172 62.9907 14.0998 62.8722 13.9824C62.6799 13.7919 62.4876 13.6013 62.2954 13.4107C62.1087 13.2255 61.922 13.0403 61.7352 12.8552C61.7237 12.8438 61.7122 12.8324 61.7003 12.8206C61.6426 12.7634 61.5848 12.7062 61.5271 12.6489C61.0479 12.1741 60.5688 11.6991 60.0898 11.2241C60.1156 11.1671 60.1446 11.1278 60.1891 11.0837C60.2018 11.071 60.2146 11.0584 60.2277 11.0453C60.2417 11.0315 60.2557 11.0177 60.2702 11.0035C60.2851 10.9888 60.2999 10.974 60.3153 10.9588C60.3653 10.9093 60.4154 10.8598 60.4656 10.8104C60.5014 10.7749 60.5372 10.7395 60.573 10.704C60.6501 10.6276 60.7274 10.5512 60.8046 10.4749C60.9164 10.3646 61.028 10.2542 61.1396 10.1437C61.3207 9.96455 61.5018 9.78544 61.683 9.60638C61.8591 9.43244 62.0351 9.25846 62.211 9.08442C62.2219 9.0737 62.2327 9.06297 62.2439 9.05192C62.2983 8.99811 62.3527 8.94429 62.4071 8.89048C62.8584 8.44401 63.3099 7.99768 63.7614 7.55143C63.7357 7.49444 63.7067 7.4551 63.6622 7.41107C63.6494 7.39839 63.6367 7.38571 63.6236 7.37264C63.6096 7.35886 63.5955 7.34508 63.5811 7.33089C63.5662 7.31613 63.5513 7.30137 63.536 7.28617C63.486 7.2366 63.4359 7.18716 63.3857 7.13771C63.3499 7.10227 63.3141 7.06681 63.2783 7.03135C63.2011 6.95493 63.1239 6.87858 63.0466 6.80228C62.9349 6.69196 62.8233 6.58153 62.7117 6.47108C62.5306 6.29189 62.3494 6.11278 62.1682 5.93372C61.9922 5.75978 61.8162 5.5858 61.6403 5.41176C61.6294 5.40104 61.6186 5.39031 61.6074 5.37926C61.553 5.32545 61.4986 5.27163 61.4442 5.21782C60.9929 4.77135 60.5414 4.32502 60.0898 3.87878C60.1754 3.7772 60.2661 3.6829 60.3608 3.58956C60.3763 3.57415 60.3919 3.55873 60.4079 3.54285C60.4508 3.50038 60.4937 3.45796 60.5366 3.41555C60.583 3.36969 60.6293 3.32378 60.6757 3.27788C60.7559 3.19845 60.8361 3.11907 60.9164 3.0397C61.0324 2.92495 61.1484 2.81015 61.2644 2.69534C61.4526 2.50904 61.6409 2.32279 61.8291 2.13656C62.012 1.95571 62.1948 1.77484 62.3776 1.59395C62.3889 1.58279 62.4001 1.57163 62.4118 1.56013C62.4683 1.50414 62.5249 1.44815 62.5815 1.39217C63.0504 0.928051 63.5195 0.464003 63.9885 0Z" fill="#77B0A9"/>
<path d="M57.3223 41.765C57.4885 41.9179 57.6328 42.1425 57.651 42.3717C57.6639 42.883 57.4973 43.2354 57.1447 43.613C56.884 43.8839 56.5698 44.0873 56.2471 44.2782C56.5628 44.3403 56.8834 44.3375 57.2039 44.3376C57.2425 44.3377 57.281 44.3377 57.3196 44.3378C57.3999 44.3379 57.4803 44.3379 57.5606 44.3379C57.6625 44.3379 57.7644 44.3382 57.8663 44.3385C57.9458 44.3387 58.0253 44.3387 58.1048 44.3387C58.1423 44.3388 58.1798 44.3388 58.2173 44.339C58.4037 44.3397 58.5881 44.3365 58.7736 44.3176C58.7956 44.3154 58.7956 44.3154 58.818 44.3132C58.9648 44.2965 59.1154 44.2582 59.2185 44.1471C59.3561 43.9272 59.3381 43.6449 59.3399 43.3954C59.3402 43.3634 59.3406 43.3314 59.341 43.2994C59.3419 43.216 59.3427 43.1327 59.3434 43.0493C59.3442 42.9638 59.3451 42.8784 59.3461 42.793C59.3479 42.626 59.3495 42.459 59.3509 42.292C59.5258 42.292 59.7007 42.292 59.8809 42.292C59.8817 42.4684 59.8824 42.6449 59.8828 42.8213C59.883 42.9033 59.8833 42.9853 59.8837 43.0672C59.8842 43.162 59.8845 43.2568 59.8846 43.3515C59.8846 43.3669 59.8846 43.3822 59.8847 43.398C59.8848 43.5935 59.8809 43.7864 59.848 43.9797C59.8402 44.0257 59.8402 44.0257 59.843 44.0909C59.9811 44.2627 60.1792 44.3243 60.3919 44.3532C60.5868 44.3704 60.7681 44.331 60.9407 44.2408C60.9526 44.2349 60.9645 44.229 60.9768 44.223C61.0977 44.1524 61.1587 44.0164 61.1974 43.8865C61.2061 43.8452 61.2083 43.8078 61.2087 43.7657C61.2088 43.7495 61.209 43.7333 61.2092 43.7166C61.2093 43.699 61.2094 43.6814 61.2095 43.6633C61.2098 43.6353 61.2098 43.6353 61.2101 43.6068C61.2107 43.5451 61.2112 43.4835 61.2117 43.4219C61.212 43.3791 61.2124 43.3364 61.2128 43.2936C61.2139 43.1811 61.2148 43.0686 61.2157 42.9561C61.2167 42.8413 61.2177 42.7265 61.2188 42.6117C61.2208 42.3865 61.2227 42.1612 61.2246 41.936C61.3995 41.936 61.5743 41.936 61.7545 41.936C61.7549 42.1807 61.7553 42.4253 61.7555 42.67C61.7556 42.7836 61.7557 42.8973 61.7559 43.0109C61.7561 43.1207 61.7563 43.2306 61.7563 43.3404C61.7563 43.3821 61.7564 43.4238 61.7565 43.4656C61.7566 43.5244 61.7567 43.5832 61.7567 43.642C61.7567 43.6602 61.7567 43.6784 61.7566 43.6971C61.7561 43.8196 61.7492 43.9396 61.7346 44.0613C61.7358 44.1184 61.7472 44.1368 61.7876 44.1764C61.8251 44.2011 61.8251 44.2011 61.8681 44.222C61.8918 44.2349 61.8918 44.2349 61.916 44.248C62.1795 44.3788 62.4408 44.3763 62.7197 44.297C62.8715 44.2385 62.9903 44.1322 63.058 43.9843C63.0874 43.8986 63.1006 43.8216 63.1012 43.7312C63.1014 43.712 63.1016 43.6928 63.1018 43.673C63.1019 43.6521 63.102 43.6313 63.1021 43.6098C63.1024 43.5766 63.1024 43.5766 63.1027 43.5427C63.1032 43.4822 63.1036 43.4217 63.104 43.3612C63.1044 43.2979 63.1049 43.2346 63.1054 43.1713C63.1064 43.0515 63.1072 42.9317 63.108 42.812C63.109 42.6756 63.11 42.5392 63.111 42.4028C63.1132 42.1222 63.1152 41.8417 63.1172 41.5612C63.292 41.5612 63.4669 41.5612 63.6471 41.5612C63.6474 41.6299 63.6476 41.6985 63.6479 41.7692C63.6489 41.9965 63.6501 42.2238 63.6515 42.4511C63.6524 42.5888 63.6531 42.7266 63.6536 42.8643C63.6541 42.9845 63.6547 43.1046 63.6556 43.2248C63.656 43.2883 63.6564 43.3519 63.6565 43.4154C63.6567 43.4866 63.6572 43.5577 63.6578 43.6289C63.6578 43.6496 63.6578 43.6704 63.6577 43.6918C63.6598 43.8597 63.6723 44.0301 63.7796 44.1658C63.7796 44.1782 63.7796 44.1905 63.7796 44.2033C63.8408 44.2358 63.9027 44.2583 63.9688 44.2794C63.9883 44.2858 64.0078 44.2922 64.028 44.2988C64.4866 44.4046 65.4078 44.3499 65.6343 44.3532C65.6343 43.4318 65.6343 42.5105 65.6343 41.5612C65.8091 41.5612 65.984 41.5612 66.1642 41.5612C66.1642 42.6743 66.1642 43.7873 66.1642 44.9341C65.8769 44.9345 65.5896 44.9348 65.2936 44.9352C65.2035 44.9354 65.1134 44.9356 65.0205 44.9358C64.909 44.9358 64.909 44.9358 64.8564 44.9359C64.8204 44.9359 64.7844 44.936 64.7483 44.936C63.7435 44.9386 63.7435 44.9386 63.433 44.6354C63.4157 44.6166 63.3986 44.5976 63.3821 44.578C63.3274 44.6028 63.2974 44.6238 63.252 44.6659C63.0216 44.8652 62.7272 44.9262 62.4299 44.9235C62.4075 44.9234 62.3851 44.9232 62.3621 44.9231C62.0064 44.9165 61.7444 44.8056 61.4895 44.5593C61.462 44.5837 61.462 44.5837 61.434 44.6085C61.0931 44.8953 60.7319 44.9433 60.2972 44.9153C60.0668 44.8861 59.8678 44.7888 59.6899 44.6446C59.6514 44.6127 59.6514 44.6127 59.597 44.578C59.5891 44.586 59.5813 44.5939 59.5732 44.6021C59.4137 44.7524 59.2259 44.8364 59.0138 44.8849C58.9951 44.8893 58.9951 44.8893 58.9759 44.8937C58.7034 44.9491 58.4139 44.9369 58.1371 44.9366C58.1012 44.9366 58.0653 44.9366 58.0295 44.9366C57.9547 44.9366 57.88 44.9366 57.8053 44.9365C57.7107 44.9364 57.6162 44.9365 57.5217 44.9366C57.4477 44.9367 57.3737 44.9366 57.2997 44.9366C57.2649 44.9366 57.2302 44.9366 57.1954 44.9366C57.0061 44.9368 56.8173 44.9338 56.6281 44.9254C56.6109 44.9247 56.5937 44.9239 56.5759 44.9231C56.4485 44.917 56.3232 44.905 56.1975 44.8837C56.1682 44.8789 56.1682 44.8789 56.1384 44.8741C55.9213 44.8364 55.7084 44.7783 55.5044 44.6952C55.4024 44.6615 55.3324 44.6912 55.2323 44.7225C55.0255 44.7859 54.8197 44.8475 54.6065 44.8861C54.5912 44.8889 54.5759 44.8917 54.5601 44.8946C54.3054 44.9374 54.045 44.937 53.7874 44.9366C53.7576 44.9366 53.7277 44.9366 53.6979 44.9366C53.636 44.9366 53.574 44.9366 53.512 44.9365C53.4335 44.9364 53.355 44.9365 53.2765 44.9366C53.2151 44.9366 53.1537 44.9366 53.0923 44.9366C53.0634 44.9366 53.0345 44.9366 53.0056 44.9366C52.1385 44.9377 52.1385 44.9377 51.7996 44.653C51.7805 44.6379 51.7613 44.6229 51.7416 44.6073C51.7295 44.5977 51.7174 44.588 51.705 44.578C51.6955 44.5876 51.6861 44.5971 51.6764 44.6069C51.2479 45.0136 50.58 44.9369 50.032 44.9362C49.9515 44.9362 49.8709 44.9362 49.7903 44.9362C49.651 44.9362 49.5117 44.9362 49.3725 44.9361C49.1711 44.9359 48.9697 44.9359 48.7684 44.9358C48.4416 44.9358 48.1148 44.9357 47.788 44.9355C47.4708 44.9353 47.1535 44.9352 46.8363 44.9351C46.8167 44.9351 46.7971 44.9351 46.7769 44.9351C46.6787 44.9351 46.5804 44.935 46.4821 44.935C45.6681 44.9348 44.8541 44.9345 44.0401 44.9341C44.0402 44.9524 44.0404 44.9707 44.0405 44.9895C44.0411 45.0582 44.0415 45.127 44.0418 45.1957C44.0419 45.2253 44.0421 45.2549 44.0424 45.2845C44.0463 45.7236 43.9547 46.1091 43.639 46.439C43.3804 46.6808 43.0127 46.8007 42.661 46.7911C42.641 46.7901 42.641 46.7901 42.6206 46.7891C42.5934 46.6746 42.5663 46.5599 42.5414 46.4448C42.5384 46.4312 42.5354 46.4175 42.5323 46.4034C42.5241 46.3444 42.5251 46.2865 42.526 46.227C42.548 46.2252 42.5699 46.2233 42.5925 46.2214C42.8623 46.1968 43.1191 46.1552 43.315 45.9541C43.5297 45.6954 43.5158 45.3573 43.5162 45.0414C43.5164 45.0033 43.5165 44.9653 43.5168 44.9272C43.5173 44.8245 43.5176 44.7217 43.5178 44.619C43.5181 44.5114 43.5186 44.4038 43.5191 44.2963C43.52 44.0928 43.5207 43.8893 43.5213 43.6859C43.522 43.4541 43.523 43.2224 43.5239 42.9906C43.5259 42.5142 43.5275 42.0377 43.5291 41.5612C43.6977 41.5612 43.8663 41.5612 44.0401 41.5612C44.0401 42.4826 44.0401 43.4039 44.0401 44.3532C44.8802 44.3516 45.7204 44.3499 46.5605 44.3479C46.6598 44.3477 46.7591 44.3475 46.8585 44.3472C46.8881 44.3472 46.8881 44.3472 46.9184 44.3471C47.238 44.3464 47.5576 44.3457 47.8772 44.3452C48.2055 44.3446 48.5337 44.3439 48.862 44.343C49.0643 44.3425 49.2667 44.3421 49.469 44.3418C49.608 44.3416 49.747 44.3413 49.886 44.3408C49.966 44.3406 50.0461 44.3404 50.1261 44.3404C50.51 44.3422 50.51 44.3422 50.8928 44.3189C50.906 44.3176 50.9193 44.3163 50.9329 44.3149C51.0892 44.2961 51.2437 44.2536 51.3454 44.1283C51.4362 43.9602 51.4429 43.7944 51.4439 43.6076C51.4441 43.5855 51.4443 43.5634 51.4445 43.5406C51.445 43.4801 51.4454 43.4197 51.4457 43.3593C51.4462 43.296 51.4467 43.2328 51.4472 43.1696C51.4481 43.0499 51.449 42.9303 51.4498 42.8106C51.4507 42.6743 51.4518 42.5381 51.4528 42.4018C51.455 42.1216 51.457 41.8414 51.4589 41.5612C51.6338 41.5612 51.8087 41.5612 51.9889 41.5612C51.9893 41.6632 51.9893 41.6632 51.9897 41.7672C51.9906 41.9924 51.9919 42.2176 51.9933 42.4428C51.9942 42.5793 51.9949 42.7157 51.9954 42.8522C51.9958 42.9712 51.9965 43.0903 51.9973 43.2093C51.9978 43.2723 51.9981 43.3352 51.9983 43.3981C51.9985 43.4687 51.999 43.5392 51.9996 43.6098C51.9996 43.6405 51.9996 43.6405 51.9995 43.6719C52.0016 43.8423 52.0108 44.0285 52.1213 44.1658C52.1213 44.1782 52.1213 44.1905 52.1213 44.2033C52.1826 44.2358 52.2445 44.2583 52.3106 44.2794C52.3301 44.2858 52.3496 44.2922 52.3697 44.2988C52.576 44.3464 52.7919 44.3375 53.0026 44.3376C53.0345 44.3377 53.0665 44.3377 53.0984 44.3378C53.165 44.3379 53.2316 44.3379 53.2983 44.3379C53.3826 44.3379 53.4669 44.3382 53.5512 44.3385C53.6171 44.3387 53.683 44.3387 53.7488 44.3387C53.7799 44.3388 53.8109 44.3388 53.8419 44.339C54.1289 44.3402 54.4148 44.3232 54.6952 44.2595C54.6867 44.2517 54.6783 44.2438 54.6695 44.2358C54.6304 44.1996 54.5912 44.1634 54.5521 44.1272C54.5388 44.1149 54.5254 44.1026 54.5117 44.0899C54.0457 43.6583 53.7417 43.1458 53.568 42.5379C53.563 42.5207 53.558 42.5034 53.5528 42.4856C53.5235 42.3769 53.507 42.2984 53.5628 42.1949C53.5922 42.1457 53.6229 42.0976 53.6543 42.0496C53.7479 41.9086 53.7479 41.9086 53.8263 41.7593C53.8898 41.623 53.9516 41.552 54.0945 41.4944C54.1863 41.4621 54.2793 41.436 54.3735 41.4113C54.3933 41.4059 54.413 41.4006 54.4334 41.395C55.3707 41.1418 56.5361 41.1145 57.3223 41.765ZM54.2469 42.0496C54.2274 42.0558 54.2274 42.0558 54.2074 42.0621C54.1244 42.0911 54.0742 42.1204 54.0328 42.1983C54.0347 42.3164 54.0717 42.4243 54.1097 42.5356C54.1185 42.5614 54.1185 42.5614 54.1275 42.5877C54.3099 43.1075 54.6535 43.5513 55.1134 43.8603C55.1373 43.8765 55.1609 43.893 55.1843 43.9098C55.313 44.0049 55.313 44.0049 55.4662 44.0308C55.5153 44.012 55.5592 43.9892 55.6044 43.9622C55.6488 43.9368 55.6944 43.9144 55.7405 43.892C55.9782 43.7751 56.2024 43.6452 56.4175 43.4912C56.4354 43.4784 56.4354 43.4784 56.4537 43.4653C56.7495 43.2505 57.0775 42.9796 57.1445 42.6041C57.1537 42.4672 57.093 42.3563 57.0093 42.2508C56.915 42.1499 56.8071 42.0881 56.6824 42.0297C56.6651 42.0214 56.6478 42.0131 56.6299 42.0046C55.8884 41.6737 54.9915 41.8038 54.2469 42.0496Z" fill="#77B0A9"/>
<path d="M63.042 34.3839C63.0612 34.3886 63.0612 34.3886 63.0809 34.3934C63.3479 34.4609 63.5897 34.5797 63.799 34.7587C63.8127 34.7696 63.8264 34.7804 63.8405 34.7916C64.2573 35.1347 64.4251 35.669 64.4992 36.1828C64.4992 36.3868 64.4992 36.5909 64.4992 36.8011C63.3001 36.8011 62.101 36.8011 60.8655 36.8011C60.9789 37.3065 61.1389 37.7257 61.5889 38.0129C62.0013 38.262 62.5017 38.3066 62.9675 38.1971C63.311 38.1092 63.5766 37.9315 63.8368 37.7006C63.9005 37.7279 63.9418 37.7626 63.9903 37.8114C64.0046 37.8256 64.0188 37.8399 64.0336 37.8546C64.0483 37.8695 64.063 37.8843 64.0781 37.8997C64.0931 37.9147 64.1081 37.9297 64.1236 37.9452C64.1606 37.9822 64.1975 38.0194 64.2343 38.0566C63.868 38.4864 63.3209 38.7334 62.7581 38.7874C62.0994 38.8153 62.0994 38.8153 61.7929 38.7312C61.7794 38.7275 61.766 38.7239 61.7522 38.7202C61.2374 38.5773 60.7843 38.2717 60.5059 37.813C60.1688 37.2145 60.0946 36.5049 60.2758 35.8451C60.3813 35.4847 60.5647 35.1945 60.8276 34.9273C60.8384 34.9153 60.8492 34.9032 60.8603 34.8908C61.3712 34.3344 62.3462 34.2137 63.042 34.3839ZM61.2086 35.3997C61.0135 35.6531 60.8655 35.9738 60.8655 36.2952C61.8648 36.2952 62.864 36.2952 63.8936 36.2952C63.8936 35.8878 63.7461 35.5365 63.4583 35.2459C63.4457 35.2327 63.4331 35.2196 63.4202 35.2061C63.1321 34.9274 62.7401 34.8588 62.353 34.8623C61.8937 34.8751 61.512 35.0531 61.2086 35.3997Z" fill="#77B0A9"/>
<path d="M58.0634 34.3839C58.0827 34.3886 58.0827 34.3886 58.1024 34.3934C58.3694 34.4609 58.6112 34.5797 58.8205 34.7587C58.8341 34.7696 58.8478 34.7804 58.8619 34.7916C59.2788 35.1347 59.4466 35.669 59.5207 36.1828C59.5207 36.3868 59.5207 36.5909 59.5207 36.8011C58.3216 36.8011 57.1224 36.8011 55.887 36.8011C56.0004 37.3065 56.1604 37.7257 56.6104 38.0129C57.0228 38.262 57.5231 38.3066 57.9889 38.1971C58.3325 38.1092 58.5981 37.9315 58.8583 37.7006C58.922 37.7279 58.9633 37.7626 59.0118 37.8114C59.0261 37.8256 59.0403 37.8399 59.055 37.8546C59.0697 37.8695 59.0845 37.8843 59.0996 37.8997C59.1146 37.9147 59.1296 37.9297 59.1451 37.9452C59.1821 37.9822 59.2189 38.0194 59.2558 38.0566C58.8895 38.4864 58.3424 38.7334 57.7796 38.7874C57.1209 38.8153 57.1209 38.8153 56.8143 38.7312C56.8009 38.7275 56.7875 38.7239 56.7737 38.7202C56.2589 38.5773 55.8058 38.2717 55.5274 37.813C55.1903 37.2145 55.116 36.5049 55.2972 35.8451C55.4028 35.4847 55.5862 35.1945 55.8491 34.9273C55.8599 34.9153 55.8707 34.9032 55.8818 34.8908C56.3927 34.3344 57.3677 34.2137 58.0634 34.3839ZM56.2301 35.3997C56.035 35.6531 55.887 35.9738 55.887 36.2952C56.8863 36.2952 57.8855 36.2952 58.9151 36.2952C58.9151 35.8878 58.7675 35.5365 58.4798 35.2459C58.4672 35.2327 58.4546 35.2196 58.4417 35.2061C58.1536 34.9274 57.7616 34.8588 57.3745 34.8623C56.9152 34.8751 56.5334 35.0531 56.2301 35.3997Z" fill="#77B0A9"/>
<path d="M48.5901 34.3243C48.6036 34.3243 48.6171 34.3242 48.631 34.3242C49.0795 34.3246 49.5224 34.3996 49.8699 34.7037C49.8855 34.7172 49.9011 34.7306 49.9172 34.7445C50.1865 34.9925 50.331 35.3503 50.3488 35.7115C50.3521 35.814 50.3524 35.9166 50.3528 36.0192C50.3531 36.0578 50.3534 36.0965 50.3538 36.1351C50.3547 36.238 50.3553 36.3408 50.3558 36.4437C50.3562 36.5287 50.3569 36.6138 50.3575 36.6988C50.3628 37.3892 50.3642 38.0795 50.362 38.7699C50.1434 38.7699 49.9248 38.7699 49.6996 38.7699C49.6871 38.5658 49.6746 38.3618 49.6618 38.1515C49.6056 38.2134 49.5493 38.2752 49.4914 38.3389C49.0721 38.715 48.4812 38.8351 47.9307 38.8105C47.5256 38.7839 47.1701 38.6441 46.8797 38.3576C46.8616 38.3404 46.8616 38.3404 46.8432 38.3228C46.606 38.0786 46.5267 37.7334 46.5314 37.4049C46.5421 37.1037 46.6548 36.8395 46.8686 36.6224C47.2756 36.2493 47.8172 36.1963 48.3463 36.1991C48.3849 36.1992 48.4236 36.1992 48.4623 36.1993C48.5631 36.1994 48.664 36.1998 48.7649 36.2002C48.8681 36.2006 48.9714 36.2007 49.0747 36.2009C49.2767 36.2013 49.4787 36.202 49.6807 36.2028C49.6781 36.1405 49.6754 36.0783 49.6726 36.016C49.6716 35.9899 49.6716 35.9899 49.6705 35.9632C49.6568 35.6609 49.6021 35.3803 49.3839 35.154C49.0646 34.8769 48.6438 34.8698 48.2423 34.8911C47.8455 34.9336 47.4365 35.1293 47.1162 35.3603C47.0879 35.3783 47.0879 35.3783 47.05 35.3783C47.0176 35.3312 46.9874 35.2842 46.9578 35.2354C46.9413 35.2086 46.9248 35.1818 46.9082 35.155C46.9003 35.1421 46.8923 35.1292 46.8841 35.1159C46.8524 35.0651 46.8189 35.0155 46.7851 34.9661C46.8132 34.8848 46.8731 34.8542 46.9447 34.8138C46.9573 34.8066 46.9698 34.7994 46.9827 34.792C47.0239 34.7686 47.0653 34.7455 47.1068 34.7225C47.1277 34.7106 47.1277 34.7106 47.149 34.6985C47.4619 34.5218 47.7909 34.4017 48.1477 34.3477C48.1693 34.3443 48.1909 34.3408 48.2131 34.3373C48.3381 34.3225 48.4644 34.3244 48.5901 34.3243ZM47.3204 37.0056C47.1809 37.1757 47.1649 37.3576 47.1785 37.5706C47.1992 37.7652 47.312 37.9375 47.4593 38.0625C47.6822 38.2294 47.9252 38.271 48.1974 38.2698C48.2211 38.2697 48.2448 38.2696 48.2692 38.2695C48.4317 38.2675 48.5791 38.2584 48.7344 38.2077C48.755 38.2011 48.7755 38.1945 48.7967 38.1878C49.1351 38.0687 49.4157 37.8654 49.5808 37.5448C49.6469 37.4064 49.6832 37.3087 49.6825 37.1552C49.6825 37.1424 49.6825 37.1296 49.6825 37.1164C49.6824 37.0758 49.6821 37.0351 49.6819 36.9944C49.6818 36.9668 49.6817 36.9392 49.6816 36.9115C49.6814 36.8439 49.6811 36.7763 49.6807 36.7087C49.4712 36.7074 49.2618 36.7064 49.0523 36.7058C48.955 36.7055 48.8578 36.7051 48.7605 36.7045C48.6664 36.7038 48.5722 36.7035 48.4781 36.7034C48.4424 36.7033 48.4068 36.7031 48.3711 36.7027C48.0025 36.6997 47.5887 36.72 47.3204 37.0056Z" fill="#77B0A9"/>
<path d="M41.4668 32.8848C42.9782 32.8848 44.4896 32.8848 46.0468 32.8848C46.0468 33.0826 46.0468 33.2805 46.0468 33.4844C45.4035 33.4844 44.7602 33.4844 44.0975 33.4844C44.0975 35.2281 44.0975 36.9719 44.0975 38.7685C43.8726 38.7685 43.6478 38.7685 43.4161 38.7685C43.4161 37.0248 43.4161 35.281 43.4161 33.4844C42.7729 33.4844 42.1296 33.4844 41.4668 33.4844C41.4668 33.2865 41.4668 33.0886 41.4668 32.8848Z" fill="#77B0A9"/>
<path d="M54.4498 34.7027C54.4367 34.768 54.4106 34.8205 54.3793 34.8792C54.3641 34.908 54.3641 34.908 54.3485 34.9374C54.3378 34.9574 54.3271 34.9773 54.3161 34.9978C54.3054 35.018 54.2946 35.0382 54.2836 35.0591C54.257 35.109 54.2304 35.1588 54.2038 35.2086C54.1941 35.2041 54.1844 35.1996 54.1744 35.1949C53.6252 34.9402 53.0573 34.7519 52.4555 34.9592C52.3156 35.0206 52.2075 35.1099 52.1491 35.2519C52.0991 35.4161 52.1031 35.5777 52.1787 35.7333C52.3302 35.9677 52.66 36.0655 52.9147 36.1448C52.9575 36.1584 53.0002 36.172 53.043 36.1856C53.1093 36.2066 53.1756 36.2274 53.242 36.2483C54.2516 36.5663 54.2516 36.5663 54.473 36.9792C54.6285 37.2905 54.6404 37.6309 54.5444 37.9631C54.482 38.1286 54.3868 38.2521 54.2605 38.3753C54.2503 38.3857 54.24 38.396 54.2295 38.4067C54.0506 38.5731 53.8126 38.6694 53.5792 38.7314C53.5569 38.7374 53.5347 38.7433 53.5117 38.7495C53.1399 38.8311 52.679 38.8295 52.3112 38.7314C52.2967 38.7277 52.2822 38.7241 52.2673 38.7204C51.916 38.6312 51.4679 38.4807 51.2324 38.188C51.2408 38.1263 51.2684 38.0776 51.2987 38.0237C51.3081 38.007 51.3174 37.9904 51.327 37.9732C51.3368 37.956 51.3466 37.9387 51.3566 37.9209C51.3665 37.9034 51.3763 37.8859 51.3865 37.8678C51.4107 37.8246 51.4351 37.7814 51.4595 37.7383C51.5508 37.7383 51.5647 37.7559 51.6334 37.812C51.8696 37.9955 52.1374 38.108 52.4247 38.188C52.4467 38.1943 52.4687 38.2007 52.4913 38.2073C52.8704 38.2999 53.3258 38.2889 53.6667 38.0885C53.7759 38.0115 53.8565 37.9178 53.8927 37.7885C53.9282 37.5729 53.9063 37.4102 53.7862 37.23C53.595 37.0223 53.2708 36.9323 53.0084 36.8515C52.9442 36.8316 52.8801 36.8113 52.816 36.791C52.8035 36.7871 52.7909 36.7831 52.7779 36.779C51.8066 36.4727 51.8066 36.4727 51.5596 36.0435C51.4256 35.7799 51.4092 35.4065 51.4967 35.126C51.619 34.8228 51.8366 34.6207 52.1314 34.4813C52.8542 34.1797 53.7976 34.2645 54.4498 34.7027Z" fill="#77B0A9"/>
<path d="M67.9248 34.3281C67.9248 34.5322 67.9248 34.7362 67.9248 34.9465C67.7749 34.9558 67.7749 34.9558 67.622 34.9652C67.2577 35.0181 66.9254 35.1812 66.6885 35.4662C66.3653 35.8979 66.3264 36.3478 66.3254 36.8703C66.3253 36.9373 66.3248 37.0042 66.3243 37.0712C66.3235 37.1975 66.3229 37.3237 66.3225 37.45C66.322 37.594 66.3212 37.738 66.3203 37.8819C66.3185 38.1776 66.3172 38.4733 66.3161 38.769C66.0913 38.769 65.8664 38.769 65.6348 38.769C65.6348 37.3097 65.6348 35.8504 65.6348 34.3469C65.8596 34.3469 66.0844 34.3469 66.3161 34.3469C66.3223 34.6375 66.3286 34.9281 66.335 35.2276C66.4193 35.0977 66.4193 35.0977 66.5053 34.9652C66.8667 34.5127 67.3507 34.3281 67.9248 34.3281Z" fill="#77B0A9"/>
<path d="M66.4616 40.0824C66.5476 40.1322 66.612 40.1987 66.6568 40.2874C66.6754 40.5439 66.6754 40.5439 66.6 40.6434C66.5142 40.7284 66.436 40.7721 66.313 40.7758C66.202 40.7696 66.1151 40.7364 66.0323 40.6621C65.958 40.5708 65.9434 40.4715 65.9481 40.3564C65.9668 40.2458 66.0227 40.1782 66.1103 40.1105C66.2271 40.0477 66.3354 40.0464 66.4616 40.0824Z" fill="#77B0A9"/>
<path d="M65.697 40.1141C65.7731 40.1667 65.8195 40.2362 65.8432 40.324C65.8571 40.468 65.8382 40.5589 65.7462 40.6742C65.6521 40.7491 65.5537 40.7808 65.4327 40.7726C65.3285 40.7558 65.2631 40.7088 65.1938 40.6308C65.119 40.5266 65.1326 40.4107 65.1429 40.2865C65.1895 40.1875 65.2601 40.1284 65.3558 40.0757C65.4797 40.0423 65.5849 40.0514 65.697 40.1141Z" fill="#77B0A9"/>
<path d="M51.4868 45.7183C51.5685 45.7627 51.6191 45.8191 51.6553 45.904C51.6858 46.0122 51.6823 46.1127 51.6352 46.2153C51.5847 46.3029 51.5143 46.3568 51.4211 46.3957C51.3047 46.4091 51.1969 46.4091 51.0993 46.3394C51.0027 46.2419 50.9638 46.1833 50.9609 46.0443C50.9618 45.9651 50.964 45.9151 50.9952 45.8417C51.1369 45.705 51.2897 45.6511 51.4868 45.7183Z" fill="#77B0A9"/>
<path d="M52.2949 45.7163C52.3865 45.7652 52.4476 45.8304 52.4803 45.9277C52.4983 46.1647 52.4983 46.1647 52.4236 46.265C52.3335 46.3541 52.2662 46.3985 52.1361 46.4032C52.0264 46.402 51.9559 46.3753 51.8747 46.3025C51.784 46.1873 51.7649 46.0892 51.7801 45.9464C51.8064 45.859 51.8415 45.8078 51.9137 45.7509C52.0291 45.6901 52.1691 45.6757 52.2949 45.7163Z" fill="#77B0A9"/>
</g>
<defs>
<clipPath id="clip0_4050_5997">
<rect width="68" height="49" fill="white"/>
</clipPath>
</defs>
</svg>
